<svg xmlns="http://www.w3.org/2000/svg" xmlns:xlink="http://www.w3.org/1999/xlink" id="Camada_1" data-name="Camada 1" viewBox="0 0 1173 733.3">
  <defs>
    <linearGradient id="Gradiente_sem_nome_7" x1="807.4" x2="860.7" y1="419.6" y2="419.6" gradientUnits="userSpaceOnUse">
      <stop offset="0" stop-color="#5b007f"/>
      <stop offset="1" stop-color="#78fff1"/>
    </linearGradient>
    <linearGradient id="Gradiente_sem_nome_23" x1="728.2" x2="750" y1="515.1" y2="615.5" gradientUnits="userSpaceOnUse">
      <stop offset=".6" stop-color="#ff935c"/>
      <stop offset=".7" stop-color="#dd906a"/>
      <stop offset=".7" stop-color="#be8e76"/>
      <stop offset=".7" stop-color="#a28c81"/>
      <stop offset=".7" stop-color="#8c8a8a"/>
      <stop offset=".8" stop-color="#7b8991"/>
      <stop offset=".8" stop-color="#708896"/>
      <stop offset=".8" stop-color="#698798"/>
      <stop offset="1" stop-color="#678799"/>
    </linearGradient>
    <linearGradient id="Gradiente_sem_nome_19" x1="1015.7" x2="1382.4" y1="273.4" y2="689.4" gradientUnits="userSpaceOnUse">
      <stop offset=".1" stop-color="#ff935c"/>
      <stop offset=".2" stop-color="#e39167"/>
      <stop offset=".4" stop-color="#ae8d7c"/>
      <stop offset=".5" stop-color="#878a8c"/>
      <stop offset=".6" stop-color="#708895"/>
      <stop offset=".7" stop-color="#678799"/>
    </linearGradient>
    <linearGradient id="Gradiente_sem_nome_44" x1="1006.7" x2="1052.5" y1="203.7" y2="448.3" gradientUnits="userSpaceOnUse">
      <stop offset="0" stop-color="#ff935c"/>
      <stop offset=".1" stop-color="#e39167"/>
      <stop offset=".2" stop-color="#ae8d7c"/>
      <stop offset=".3" stop-color="#878a8c"/>
      <stop offset=".4" stop-color="#708895"/>
      <stop offset=".5" stop-color="#678799"/>
    </linearGradient>
    <linearGradient id="Gradiente_sem_nome_42" x1="1179.6" x2="1223.4" y1="383.3" y2="469.7" gradientUnits="userSpaceOnUse">
      <stop offset="0" stop-color="#fff"/>
      <stop offset=".2" stop-color="#fcfeff"/>
      <stop offset=".3" stop-color="#f1fafd"/>
      <stop offset=".4" stop-color="#e0f3fb"/>
      <stop offset=".6" stop-color="#c7e9f7"/>
      <stop offset=".7" stop-color="#a7dcf3"/>
      <stop offset=".8" stop-color="#80cdee"/>
      <stop offset=".9" stop-color="#52bbe8"/>
      <stop offset="1" stop-color="#29abe2"/>
    </linearGradient>
    <linearGradient xlink:href="#Gradiente_sem_nome_19" id="Gradiente_sem_nome_19-2" x1="851" x2="905.7" y1="426.3" y2="488.3"/>
    <linearGradient id="Gradiente_sem_nome_43" x1="870.5" x2="923.3" y1="455.8" y2="515.7" gradientUnits="userSpaceOnUse">
      <stop offset="0" stop-color="#ff935c"/>
      <stop offset=".1" stop-color="#e39167"/>
      <stop offset=".3" stop-color="#ae8d7c"/>
      <stop offset=".5" stop-color="#878a8c"/>
      <stop offset=".6" stop-color="#708895"/>
      <stop offset=".7" stop-color="#678799"/>
    </linearGradient>
    <linearGradient id="Gradiente_sem_nome_45" x1="1481.7" x2="1372.3" y1="434.9" y2="378.8" gradientUnits="userSpaceOnUse">
      <stop offset=".1" stop-color="#ff935c"/>
      <stop offset=".2" stop-color="#e39167"/>
      <stop offset=".4" stop-color="#ae8d7c"/>
      <stop offset=".6" stop-color="#878a8c"/>
      <stop offset=".8" stop-color="#708895"/>
      <stop offset=".8" stop-color="#678799"/>
    </linearGradient>
    <linearGradient id="Gradiente_sem_nome_46" x1="806.4" x2="750.6" y1="447.6" y2="453.1" gradientUnits="userSpaceOnUse">
      <stop offset="0" stop-color="#678799"/>
      <stop offset="1" stop-color="#ff935c"/>
    </linearGradient>
    <linearGradient id="Gradiente_sem_nome_47" x1="844.9" x2="776.9" y1="487.8" y2="494.6" gradientUnits="userSpaceOnUse">
      <stop offset="0" stop-color="#678799"/>
      <stop offset="1" stop-color="#ff935c"/>
    </linearGradient>
    <linearGradient xlink:href="#Gradiente_sem_nome_46" id="Gradiente_sem_nome_46-2" x1="819.2" x2="818.3" y1="502.3" y2="502.4"/>
    <linearGradient xlink:href="#Gradiente_sem_nome_46" id="Gradiente_sem_nome_46-3" x1="836.1" x2="835.6" y1="501.6" y2="501.6"/>
    <linearGradient xlink:href="#Gradiente_sem_nome_47" id="Gradiente_sem_nome_47-2" x1="885.1" x2="737" y1="521.9" y2="536.5"/>
    <linearGradient id="Gradiente_sem_nome_48" x1="726.8" x2="741.2" y1="519.4" y2="585.7" gradientUnits="userSpaceOnUse">
      <stop offset="0" stop-color="#678799"/>
      <stop offset="1" stop-color="#ff935c"/>
    </linearGradient>
    <style>
      .cls-7{fill:#fff}.cls-5{fill:#fcfcfc}.cls-6{fill:#fff9de}.cls-15{fill:#864800}.cls-16{fill:#a8a8a8}.cls-17{fill:#2a1700}.cls-29{fill:#fff7eb}
    </style>
  </defs>
  <g id="carp">
    <animateTransform
      attributeName="transform"
      type="translate"
      from="0 0"
      to="0 40"
      dur="2s"
      repeatCount="indefinite"
      begin="0s"
      keyTimes="0;0.5;1"
      values="0,0;0,40;0,0"
      keySplines=".5 0 .5 1; .5 0 .5 1"
    />

    <path d="M649 497c6-7 7-15 10-24 5-15 13-30 21-45 12-23 29-49 50-66-5 4-8 12-13 16-4 4-32 47-37 51-9-10-4-64 30-80 20-10 6-1 27 4 30-28 89-31 125-17 40 16 83 41 95 84 13 41-10 78-44 103-38 27-97 55-140 23-23-16-45-36-72-44-14-4-38-11-47 5-3-3-7-6-5-10" style="fill:#ff935c" transform="translate(-323 -157)"/>
  <path d="M327 341c6-8 7-19 11-28 4-11 9-21 14-30l15-28a232 232 0 0 1 17-25 149 149 0 0 1 24-24c1-1-1-3-2-2l-8 9a41 41 0 0 1-4 6l-2 2a115 115 0 0 0-7 9l-21 31-5 6-2 2-1 1h2a4 4 0 0 1-1-1 16 16 0 0 1-1-1 22 22 0 0 1-1-4 48 48 0 0 1-1-12 85 85 0 0 1 7-28c4-10 10-20 19-26a56 56 0 0 1 15-9 12 12 0 0 1 2 0h1a2 2 0 0 1 1 0v1l1 1a17 17 0 0 0 5 3 31 31 0 0 0 5 2l2 1a2 2 0 0 0 3-1 77 77 0 0 1 15-10c12-6 25-10 38-12a154 154 0 0 1 40-1 135 135 0 0 1 36 10c26 10 51 25 69 46a94 94 0 0 1 20 36 76 76 0 0 1 0 41c-8 28-30 49-54 65a218 218 0 0 1-39 21c-13 5-28 9-43 10-14 0-28-3-41-10l-19-14-19-14c-13-9-26-17-41-21-11-3-24-7-35-4a21 21 0 0 0-12 10l2-1c-3-2-6-4-5-7 1-2-2-3-3-1-2 5 2 8 6 11a2 2 0 0 0 2-1c5-8 15-9 24-8a93 93 0 0 1 14 2 143 143 0 0 1 15 5c23 9 42 26 63 41a76 76 0 0 0 31 13 95 95 0 0 0 34 0c23-4 45-15 64-28 19-12 37-27 49-46a87 87 0 0 0 12-30 79 79 0 0 0-2-34c-5-21-19-39-35-53-17-14-37-24-58-33a130 130 0 0 0-28-8 156 156 0 0 0-32-2c-20 1-42 6-59 17a78 78 0 0 0-12 8h2c-5-1-9-2-12-6-2-2-3-3-6-2a33 33 0 0 0-6 2 70 70 0 0 0-8 4 53 53 0 0 0-11 10 81 81 0 0 0-20 52 49 49 0 0 0 1 11 15 15 0 0 0 4 7 2 2 0 0 0 2 1l6-8 11-15 10-15 8-11 5-6c3-4 6-9 10-12l-2-2c-16 13-29 29-39 46l-15 27-15 30a152 152 0 0 0-6 17c-1 5-3 11-7 15-1 2 2 3 3 2Z"/>
  <path d="M482 298c-13-9-16-31-12-45 5-17 26-30 45-30 21 0 35 15 39 33 5 20-9 37-27 45-16 8-47 8-51-14"/>
  <path d="M483 297c-8-6-11-14-13-23s0-18 4-26c9-17 31-27 50-23a37 37 0 0 1 21 15c5 7 9 17 8 26 0 10-6 18-13 25a53 53 0 0 1-22 12c-13 3-32 3-39-11a21 21 0 0 1-2-5c0-2-3-1-3 1 2 8 7 14 15 17 7 3 16 3 24 2a53 53 0 0 0 24-10c8-6 15-14 18-24s1-20-4-29a42 42 0 0 0-20-19c-19-9-43 0-56 16-6 8-8 17-8 27 0 9 3 19 9 27a28 28 0 0 0 5 4c2 1 3-1 2-2Z"/>
  <path d="M837 445c-22 7-38-25-25-41 8-8 23-14 33-9 12 6 18 17 15 29-3 10-18 29-30 20" style="fill:url(#Gradiente_sem_nome_7)" transform="translate(-323 -157)"/>
  <path d="M837 443a18 18 0 0 1-14-1 24 24 0 0 1-10-9c-5-8-6-19-1-26 4-5 10-9 16-11s12-2 18 1a26 26 0 0 1 12 14 23 23 0 0 1-1 17 37 37 0 0 1-10 12c-3 3-9 6-13 4a12 12 0 0 1-4-1c-1-2-3 1-1 2 11 8 23-4 29-12a26 26 0 0 0 4-18 27 27 0 0 0-10-17 28 28 0 0 0-9-6 24 24 0 0 0-10 0 36 36 0 0 0-19 9 23 23 0 0 0-8 14 30 30 0 0 0 3 16c4 10 13 18 24 16a22 22 0 0 0 4-1c2-1 2-4 0-3Z" style="fill:#3fa9f5" transform="translate(-323 -157)"/>
  <path d="M490 246c-11 12 10 30 17 13 6-14-10-18-19-9" class="cls-5"/>
  <path d="M494 266c11 6 16-11 13-19 14-7 23 11 17 22-3 6-9 11-16 10s-9-8-14-12"/>
  <path d="M351 339c8-15 0-22 13-33 11-10 28-23 43-25-4-2-10-3-15-3-5-1-10 0-10-5 1-5 9-12 11-16a181 181 0 0 1 27-23 221 221 0 0 1 142-44c-31-16-67-20-102-13-17 3-30 11-45 20-5 4-8-7-13-10s0 1-7 1a27 27 0 0 0-21 13c-12 18-19 47-18 69 7-4 18-24 22-30s12-11 17-17c3-4 7-10 12-13 6-4-8 7-12 13l-38 50c-6 8-12 20-18 35-14 34-15 39-8 40" class="cls-6"/>
  <path d="M487 251v1h-1a3 3 0 0 1 0 1 4 4 0 0 1-2 1h-3s-1 0 0 0a8 8 0 0 1-2 0l-1-1a5 5 0 0 1-1-1v-1h-1a8 8 0 0 1 0-1 10 10 0 0 1 0-2v-1a9 9 0 0 1 1-1 8 8 0 0 1 1-2 7 7 0 0 1 2-2 5 5 0 0 1 2-1 4 4 0 0 1 1 0h1s-1 0 0 0a8 8 0 0 1 1 0v1h1a4 4 0 0 1 1 1 8 8 0 0 1 1 1v3c0 1 0 0 0 0a6 6 0 0 1 0 1v1h-1v1h-1a6 6 0 0 1-1 0 6 6 0 0 1-1 1h-2s0-1 0 0a4 4 0 0 1 0-1h-1v-1h-1a2 2 0 0 1 0-1v1-1c0-1 0 0 0 0v-2s1 0 0 0a4 4 0 0 1 1 0s0-1 0 0a3 3 0 0 1 0-1 3 3 0 0 1 1 0c-1 0 0 0 0 0h1a3 3 0 0 1 2 1c0 1 0 0 0 0a1 1 0 0 1 0 1s0-1 0 0c0-1 0 0 0 0l-1 1c1 0 0 0 0 0v-1c-1 0 0 0 0 0a2 2 0 0 0 0-1s-1 1 0 0c0 0-1 0 0 0h-1 1l-1-2c-1 2-2 5-4 6a2 2 0 0 0-1 2c0 1 2 3 4 3a5 5 0 0 0 3-2c3-3 4-7 2-10a14 14 0 0 0-4-4 2 2 0 0 0-2 1 2 2 0 0 0 0 2 11 11 0 0 1 4 3 3 3 0 0 1 0 1 7 7 0 0 1-1 3 9 9 0 0 1-1 2 6 6 0 0 1-1 1c1 0 0 0 0 0a2 2 0 0 1-1 0c1 0 0 0 0 0 1 0 0 0 0 0a6 6 0 0 1-1-2l-1 3a8 8 0 0 0 4-4l3-4a2 2 0 0 0-2-2 3 3 0 0 0-3 3 4 4 0 0 0 1 4 4 4 0 0 0 4 0 4 4 0 0 0 1-6 6 6 0 0 0-9 1 6 6 0 0 0 2 8 8 8 0 0 0 10-3 8 8 0 0 0-1-9 9 9 0 0 0-11-2 11 11 0 0 0-5 10 9 9 0 0 0 2 6 7 7 0 0 0 5 2c3 1 7 0 9-3a5 5 0 0 0 1-3c-1-2-4-2-3 0Z" class="cls-7"/>
  <path d="M480 251s-1 0 0 0h-1c1 0 0 0 0 0v-1a4 4 0 0 1-1 0c0-1 0-1 0 0a7 7 0 0 1 0-1c0-1 0 0 0 0a2 2 0 0 0 0-1 3 3 0 0 1 1 0s0-1 0 0a2 2 0 0 0 0-1 2 2 0 0 0 0-1 2 2 0 0 0-2 0 5 5 0 0 0-1 2 6 6 0 0 0 0 2 6 6 0 0 0 2 4 4 4 0 0 0 2 0 2 2 0 0 0 2-1 2 2 0 0 0-2-2Z" class="cls-7"/>
  <path d="M676 621c-3-3-4-7-5-11a135 135 0 0 1-7-18l-7-31c-7-16-9-33-6-49 10-40 90 0 104 14 17 16 34 33 46 52 3 4 4 11 6 16 6 11 22 45 17 43-5-4-17-28-19-30l-10-17-19-31c-6-10-17-16-26-23-18-14-41-29-64-32a27 27 0 0 0-24 7c-6 6-7 9-5 22 5 26 8 36 12 50l6 29c0 2 2 8 1 10" style="fill:#e88542" transform="translate(-323 -157)"/>
  <path d="M354 463c-3-3-4-6-5-10l-5-11a90 90 0 0 1-4-12l-2-12a95 95 0 0 0-3-12l-4-12a86 86 0 0 1-3-23c0-7 0-13 3-19a19 19 0 0 1 6-8c5-4 13-5 20-5 9 1 18 3 26 6a181 181 0 0 1 25 11 128 128 0 0 1 19 11l2 2 7 6a510 510 0 0 1 32 35l7 9a42 42 0 0 1 4 9 67 67 0 0 0 4 9 171 171 0 0 1 8 18l6 13a58 58 0 0 1 3 10v1a1 1 0 0 1 1-1h1-1a17 17 0 0 1-1-2 77 77 0 0 1-7-11l-12-20-23-37-6-10a51 51 0 0 0-8-7l-17-13c-12-10-25-18-39-25a98 98 0 0 0-21-7c-7-2-14-2-20 1a31 31 0 0 0-9 6 24 24 0 0 0-5 5c-2 5-2 10-1 15l4 22a503 503 0 0 0 7 29l5 23 2 10 1 4a7 7 0 0 1 1 4 2 2 0 0 0 2 0c1-2 0-5-1-8l-2-10-5-23-7-30-4-23c-1-4-1-9 2-13a28 28 0 0 1 16-10c7-1 14 1 21 3 15 4 29 13 42 22l18 13 16 14 6 11 7 11 12 18 12 22 8 12a40 40 0 0 0 3 5l3 2c3 0 2-4 2-6a107 107 0 0 0-4-11l-12-26a59 59 0 0 1-3-6l-4-10a67 67 0 0 0-6-9l-8-10c-10-12-21-24-33-35a78 78 0 0 0-15-11 192 192 0 0 0-24-12 136 136 0 0 0-27-8c-8-1-17-2-25 1a23 23 0 0 0-15 14c-2 6-3 14-2 20a93 93 0 0 0 4 25l4 12 3 12 2 12a97 97 0 0 0 4 12l5 11c1 3 2 6 5 9 1 2 3 0 2-2Z"/>
  <path d="m334 376 2-4a2 2 0 0 0 0-2 2 2 0 0 0-2 0l-3 4a2 2 0 1 0 3 2Z"/>
  <path d="M675 526c19-5 44 42 59 52 10 7 25 14 36 21 10 6 21 2 33 6-20-45-28-44-47-63-6-7-22-23-32-24-6 0-12 8-18 9s-12-1-19-1" style="fill:url(#Gradiente_sem_nome_23)" transform="translate(-323 -157)"/>
  <path d="M352 370c6-1 13 4 18 8 7 6 13 14 19 21 5 7 10 14 17 20l12 9 19 10 9 5a30 30 0 0 0 11 3l23 3a2 2 0 0 0 1-2c-5-12-11-23-18-34a112 112 0 0 0-15-16l-9-8-9-10a135 135 0 0 0-12-11l-14-8a11 11 0 0 0-7 0l-8 5-8 4-12-1a32 32 0 0 0-5-1c-2 0-2 3 0 3 7 0 14 4 21 1a42 42 0 0 0 8-5l7-3c5 0 10 3 13 5a110 110 0 0 1 13 11l9 10 9 8 15 16c7 9 12 19 17 29l3 6 1-2c-6-2-13-2-20-2a33 33 0 0 1-10-2l-8-5-19-10-14-9-17-19c-6-8-12-16-19-22-6-6-14-12-22-10-2 1-1 4 1 3Z"/>
  <path d="M740 349c37-30 99-46 149-54 27-4 55-4 82-5s55-2 83-1c50 2 101 14 149 27 26 6 49 11 78 21 22 8 40 10 59-7 10-10 14-24 20-36a192 192 0 0 1 28-38c19-21 48-26 71-41-9 10-7 26-10 38-3 15-12 26-20 39a212 212 0 0 1-33 41l-35 29c14 4 27-10 43-3 6 3 16 4 21 7l26 28c17 14 19 22 32 34 7 7 14 24 11 34-6 4-6 1-11 2-9 1-18-5-25-9-10-7-20-15-31-21-23-13-48-18-73-29-32-13-56 19-79 37a424 424 0 0 1-192 77 655 655 0 0 0 64 26c22 8 42 18 62 28l20 10c9 7 4 7 6 15 3 12 24 20 35 29l13 12c9 9 28 19 31 31-16 12-49 6-66 6-12 0-24 1-36-1-34-12-71-21-100-41-27-18-50-44-68-69-14-19-20-40-20-63 1 13 3 26 8 37 3 9 11 18 13 27-34 15-79 18-116 23-20 2-40 7-60 10l-56 6c-7-9-7-23-15-33l-14-17c14 6 33 5 47 4 19-1 34-6 51-15 34-16 54-45 66-78 8-24 7-48-8-69-25-34-64-54-104-65-30-8-77-2-100 20" style="fill:url(#Gradiente_sem_nome_19)" transform="translate(-323 -157)"/>
  <path d="M418 193c18-15 39-25 61-32 22-8 46-14 69-18a378 378 0 0 1 39-6l43-2c29-1 58-3 87-2 29 0 58 4 87 10 29 5 56 12 84 19l38 9 38 13c10 3 21 4 31 2a50 50 0 0 0 27-18c7-9 10-20 16-30a187 187 0 0 1 24-35 94 94 0 0 1 28-22l31-14a138 138 0 0 0 15-8l-2-3c-7 10-7 22-9 34-1 14-9 26-17 39l-27 36a257 257 0 0 1-26 23l-19 15 2 3c-1 1 3 1 4 1a28 28 0 0 0 6-1c5 0 9-2 14-3 5-2 10-2 15-1l14 5c5 1 9 2 12 5l7 8 16 17 11 10 9 10c3 3 5 8 9 11l9 10a49 49 0 0 1 5 14c1 4 3 11-1 13h-12c-6-1-12-4-17-7-11-6-20-14-30-20-11-7-23-11-34-16s-24-8-36-12c-9-4-18-8-29-6-17 2-32 15-44 27a289 289 0 0 1-55 38 650 650 0 0 1-65 31c-23 9-46 17-70 19a126 126 0 0 1-17 1c-1 0-2 2-1 3 21 9 41 18 62 25 22 8 43 18 64 28 8 4 19 7 25 15l1 5a19 19 0 0 0 2 10c3 6 10 10 15 13 8 5 16 9 22 15l12 11 9 7c7 6 16 12 19 21l1-2c-8 6-19 7-28 8s-20-1-30-1l-36-1c-7-1-14-3-20-6l-18-5c-24-8-49-16-70-31a275 275 0 0 1-78-89c-6-13-8-27-8-41h-3c1 12 3 24 7 35 3 10 12 19 14 30v-2c-33 14-71 17-107 21l-58 10-32 4-16 1-7 1-9 1c-4-1-6-9-7-12l-4-13c-4-9-12-15-18-23l-2 2c16 6 35 5 52 3a134 134 0 0 0 113-91c6-17 8-36 3-53-6-17-18-31-31-42a183 183 0 0 0-44-29c-15-7-31-13-48-16a134 134 0 0 0-50 1c-16 3-32 10-44 21-1 1 1 3 2 2 11-10 25-16 38-19a136 136 0 0 1 44-3c15 1 30 6 43 11a198 198 0 0 1 45 24c14 10 27 22 36 37s11 34 7 52a133 133 0 0 1-105 101c-10 2-20 2-29 2-10 0-21 0-30-4-1-1-3 1-2 2 5 8 13 14 17 23l9 23 3 4h4l17-2 33-3c21-3 42-9 64-11l55-7c20-3 41-7 60-16a2 2 0 0 0 1-1c-2-11-10-19-14-29-4-11-6-23-7-35 0-2-3-2-3 0a116 116 0 0 0 6 37 287 287 0 0 0 73 89c21 16 45 26 70 34l37 13c13 4 28 2 42 3l33 1c10-1 22-2 31-8a2 2 0 0 0 1-2c-2-7-8-13-14-18l-19-15a110 110 0 0 0-21-17c-7-4-15-8-21-14a16 16 0 0 1-4-10v-7l-6-6a66 66 0 0 0-12-7c-20-10-40-20-61-28l-36-13-38-17-1 3c25 1 49-6 72-14a570 570 0 0 0 128-68c14-13 29-29 48-34 12-2 21 2 31 6l38 13c13 5 25 10 37 18 10 7 19 15 30 20a35 35 0 0 0 16 4h9c5-2 5-5 5-9a41 41 0 0 0-3-14 48 48 0 0 0-6-12l-10-10-19-22-9-8-9-10c-4-5-9-12-15-16l-14-4c-4-1-9-4-14-4-10-2-19 4-29 5a30 30 0 0 1-7-1l-2 1c-1 1 1 3 2 2 14-11 28-22 40-34a214 214 0 0 0 28-34c7-12 16-24 20-37s1-31 10-42c1-2 0-4-1-3-20 13-43 18-62 32-10 8-17 17-24 27a194 194 0 0 0-20 33c-5 12-11 22-22 30-10 6-21 7-33 5s-25-8-37-12l-38-9c-56-14-111-29-168-32-29-1-58 0-88 1-27 2-55 2-83 6a509 509 0 0 0-69 16c-22 7-44 16-63 29l-12 9c-2 1 0 3 2 2Z"/>
  <path d="M849 302c9-4 23-17 30-25 9-12 16-26 26-38 23-27 49-63 85-75 7-2 18-6 24 0 7 6 0 14-2 21 9 2 17-2 25 6l1 4c2 2 5 1 7 3 6 4 3 5 7 10 2 4 5 4 8 6l10 9c7 7 16 12 26 13 11 1 15 0 22 7l20 20c7 6 16 12 26 15 4 2 8 1 13 2s4 2 8 5c7 4 16 7 16 16 0 10-6 8-13 7l-58-11a864 864 0 0 0-278 5" style="fill:url(#Gradiente_sem_nome_44)" transform="translate(-323 -157)"/>
  <path d="M525 146c7-3 13-8 19-12a104 104 0 0 0 15-17l15-23 17-20c10-13 20-25 31-36s25-21 40-27a113 113 0 0 1 11-4c4-1 8-2 13-1 4 1 7 4 6 9l-5 12a2 2 0 0 0 1 2l13 1a21 21 0 0 1 6 1c1 1 5 2 5 4l1 3a4 4 0 0 0 2 2l6 2a9 9 0 0 1 3 4l1 3c2 4 4 6 8 8l10 8c7 7 16 12 25 14 7 2 15 1 21 4l10 9 11 12a87 87 0 0 0 24 17 43 43 0 0 0 6 2 35 35 0 0 0 8 1c4 0 7 0 10 3 5 4 13 5 17 12 1 2 2 8 0 10s-5 1-7 1c-22-4-43-9-65-12a880 880 0 0 0-261 3l-14 3c-2 0-2 3 0 3a903 903 0 0 1 266-7c23 3 46 8 68 12 5 1 14 4 16-3a15 15 0 0 0 0-11c-2-3-4-6-7-7l-10-6-3-2a17 17 0 0 0-6-2 58 58 0 0 0-7 0 25 25 0 0 1-7-2 72 72 0 0 1-14-7 89 89 0 0 1-12-10l-11-11c-5-6-10-12-19-13l-12-1a42 42 0 0 1-14-6 54 54 0 0 1-11-9l-11-8a12 12 0 0 1-4-3 12 12 0 0 1-3-5 12 12 0 0 0-6-7c-1-1-5-1-5-3l-1-2a6 6 0 0 0-2-3 20 20 0 0 0-12-4l-12-1 1 2c2-7 8-15 3-22-6-6-15-4-21-2a103 103 0 0 0-22 9 124 124 0 0 0-20 14c-13 11-24 23-35 36l-15 18-17 24c-6 8-10 16-17 23-6 5-13 12-21 15-2 0-1 3 0 3Z"/>
  <path d="M540 146c10-1 18-8 24-15 7-7 12-16 18-24l22-31a293 293 0 0 1 26-32c10-10 20-21 32-27 2-1 0-4-1-3-11 6-21 15-29 24l-13 14-13 16-23 33-17 24a76 76 0 0 1-12 12c-4 3-9 5-14 6-2 0-2 3 0 3Zm30-5c13-2 21-16 26-26l5-9a100 100 0 0 1 6-8l18-24a266 266 0 0 1 23-26c1-1-1-3-2-2-15 14-27 30-38 46l-8 10-4 7-11 17c-3 6-9 11-15 12-2 0-2 3 0 3Zm19-6a10 10 0 0 0 10 3c5-1 8-4 11-7 8-8 14-18 19-28l4-6a94 94 0 0 1 2-3h1v-1c1-1-1-3-2-2a72 72 0 0 0-6 9l-8 13a127 127 0 0 1-9 13l-10 9a9 9 0 0 1-5 1 7 7 0 0 1-3-1 8 8 0 0 1-2-2c-1-1-3 1-2 2Zm55-50a5 5 0 0 0 1-1 3 3 0 0 0 0-1 4 4 0 0 0 1-1 1 1 0 0 0 0-1 1 1 0 0 0-1 0 1 1 0 0 0 0-1 1 1 0 0 0-1 0 1 1 0 0 0-1 1 2 2 0 0 0 0 1 3 3 0 0 1-1 0h1a1 1 0 0 0-1 0 1 1 0 0 0 0 1 1 1 0 0 0 0 1 2 2 0 0 0 1 1 2 2 0 0 0 1 0Zm11-16 2-2a1 1 0 0 0 0-1 2 2 0 0 0-1-1 2 2 0 0 0-1 0 1 1 0 0 0-1 0l-2 3a1 1 0 0 0 0 1 2 2 0 0 0 1 1 1 1 0 0 0 1 0 1 1 0 0 0 1-1Zm13-15a143 143 0 0 1 15-12 2 2 0 0 0 0-2 2 2 0 0 0-2-1 148 148 0 0 0-15 13c-1 1 1 3 2 2Z"/>
  <path d="M609 133a26 26 0 0 0 19 1c6-2 11-6 15-10a104 104 0 0 0 12-16 220 220 0 0 1 15-19 174 174 0 0 1 19-20c1-1-1-4-2-2a191 191 0 0 0-31 35c-7 10-14 22-26 28a23 23 0 0 1-19 0c-2 0-4 2-2 3Zm47-6c4 1 8-1 12-3l9-12 4-6c1-1-2-3-3-1a67 67 0 0 1-9 13c-3 3-7 8-12 6-2-1-3 2-1 3Zm38-37 16-15a2 2 0 0 0 0-3 2 2 0 0 0-2 0l-16 16c-1 1 1 3 2 2Zm-24 40c8 2 15-2 21-6 7-6 13-12 18-19a71 71 0 0 1 9-8c2-1 0-4-2-2-6 4-11 10-16 16s-11 12-18 15a16 16 0 0 1-11 1 2 2 0 0 0-1 3Zm28-3c14 9 28-7 38-16a44 44 0 0 1 9-7c1-1 0-3-2-2-6 3-11 8-16 13s-11 10-18 11a14 14 0 0 1-10-1 2 2 0 0 0-1 2Zm28 1c2 7 10 4 14 2 7-4 14-9 19-14a50 50 0 0 0 6-6c2-2-1-4-2-2a42 42 0 0 1-4 4l-8 7a89 89 0 0 1-10 7 27 27 0 0 1-8 3 5 5 0 0 1-3 0c1 0 0 0 0 0l-1-1c1 1 0 0 0 0a3 3 0 0 1 0-1c-1-2-4-1-3 1Zm27 2c1 5 7 3 10 1a72 72 0 0 0 13-11 44 44 0 0 0 4-4 2 2 0 0 0 0-3 2 2 0 0 0-2 0 61 61 0 0 1-9 9 67 67 0 0 1-6 5 21 21 0 0 1-5 3h-2v-1a3 3 0 0 1-1 0c0-2-3-1-2 1Zm19 3c4 2 9 0 13-3s8-6 10-10c1-1-2-3-3-1a24 24 0 0 1-8 9c-3 2-8 4-12 2-1 0-2 3 0 3Zm17 1c3 3 7 1 10-1l8-8c1-1-1-3-3-2a81 81 0 0 1-6 7 13 13 0 0 1-4 3 3 3 0 0 1-2 0c1 0 0 0 0 0a3 3 0 0 1-1-1 2 2 0 0 0-2 0 2 2 0 0 0 0 2Zm13 3a6 6 0 0 0 3 3 7 7 0 0 0 5-1 28 28 0 0 0 7-5 2 2 0 0 0-2-2 28 28 0 0 1-6 4 7 7 0 0 1-1 1 7 7 0 0 1-1 0c-1 0 0 0 0 0h-2c1 0 0 0 0 0a3 3 0 0 1-1-1c-1-2-3 0-2 1Z"/>
  <path d="M814 139a6 6 0 0 0 3 3 7 7 0 0 0 4 0 22 22 0 0 0 7-4 2 2 0 0 0 0-2 2 2 0 0 0-2-1 40 40 0 0 1-4 3 8 8 0 0 1-1 1h-3s1 0 0 0a3 3 0 0 1-1 0v-1a3 3 0 0 1-1 0c-1-2-3-1-2 1Zm21 7 34 7c1 0 2-3 0-3l-34-7c-1-1-2 2 0 3Z"/>
  <path d="M716 132c-1 4-5 10-2 14s12 2 16 8c7 12-15 20-23 25-13 8-20 20-32 30a73 73 0 0 0-22 30c-2 6-9 35 6 25 4-2 9-11 13-14 6-5 11-10 18-14l44-28 20-11c6-4 11-15 18-16 5-1 16 3 21 4 8 1 15 2 19 8 7 11-4 28-14 29h-9c-4 1-6 5-9 7l-6 6c-2 1-5-2-7 1-5 10 24 6 28 4 13-6 34-7 40-20 8-16-4-33 3-47 4-8 6-6 14-7s15-8 24-6c8 1 33 26 42 14 11-16-66-25-74-27l-64-8c-16-2-31-8-47-9-6-1-12-1-18 2"/>
  <path d="M663 315c0-9 4-14 9-20 4-6 6-10 8-17 3-11 22-28 35-19-3 8-13 13-17 22-3 8-3 16-9 23-14 16-13 31-9 52l2 12c1 4 6 8 5 12-2 8-14-1-21 0a43 43 0 0 0-12 2c-4 2-10 7-14 7-16 0 0-17 2-22s0-9 0-15c1-5 3-9 7-14 5-8 11-14 13-23m-188-5a2 2 0 0 0 0-3 2 2 0 0 0 0 3Zm87-108a5 5 0 0 0-1-2 2 2 0 0 0-1-1c-1 0 0 0 0 0l-1 2h1c-1 0 0 0 0 0l1 1 3 2a101 101 0 0 1 8 6 94 94 0 0 1 14 14 90 90 0 0 1 16 35 110 110 0 0 1 2 42c-2 15-9 30-21 41-10 10-24 16-36 24l-5 3c-2 2 0 4 1 3 13-9 28-15 39-25a73 73 0 0 0 24-42 113 113 0 0 0 0-45 93 93 0 0 0-17-37 95 95 0 0 0-15-15 108 108 0 0 0-8-7l-5-3-4 1 2 3c0 2 3 2 2 0Zm-68 209 1-2a1 1 0 0 0 1 0 1 1 0 0 0 0-1 1 1 0 0 0-1-1 1 1 0 0 0-1 0 2 2 0 0 0-1 0l-1 2a1 1 0 0 0 0 1 1 1 0 0 0 0 1 1 1 0 0 0 1 0 2 2 0 0 0 1 0Z"/>
  <path d="M488 410a40 40 0 0 1 13-1 72 72 0 0 1 14 2 2 2 0 0 0 1-3 77 77 0 0 0-15-2 42 42 0 0 0-14 1 2 2 0 0 0 1 3Zm70-13c11-3 23-8 33-13a117 117 0 0 0 27-18 123 123 0 0 0 12-14 101 101 0 0 0 12-17c6-12 9-25 9-38 1-16 0-31-1-46-1-2-4-2-3 0 1 26 5 53-6 78-5 12-13 22-22 32a112 112 0 0 1-26 19c-11 6-23 10-36 14-2 1-1 4 1 3Zm5-97a87 87 0 0 0 5-10 2 2 0 0 0-1-2 2 2 0 0 0-2 1 81 81 0 0 1-4 10 2 2 0 0 0 2 1Zm6-31c1-7-1-15-4-22a89 89 0 0 0-13-21 60 60 0 0 0-8-8c-1-2-4 1-2 2a69 69 0 0 1 14 16 75 75 0 0 1 9 22 36 36 0 0 1 1 11c0 2 3 2 3 0Zm-109 16a92 92 0 0 0 18 27c8 8 17 14 27 15a33 33 0 0 0 18-4c2-1 1-3-1-2a30 30 0 0 1-15 3 33 33 0 0 1-14-4c-9-5-16-13-22-22a98 98 0 0 1-8-15c-1-2-4 0-3 2Zm9 35a107 107 0 0 0 17 11 87 87 0 0 0 16 5l11 3c2 0 3-3 1-3a157 157 0 0 1-18-5 76 76 0 0 1-16-7l-9-6c-2-1-3 1-2 2Z"/>
  <path d="M1149 493c-11-20 14-26 24-37 5-6 5-14 10-20 5-8 13-13 17-22l7-23c1-4 0-18 2-20 16-21 9 25 10 29 1 9 7 13 6 23 0 5-7 16-1 20 5 3 30-27 33-34 2-7-5-18 3-23 10-6 11 9 11 14-1 18-13 35-25 47-16 15-33 27-54 36-12 5-32 28-43 12" style="fill:url(#Gradiente_sem_nome_42)" transform="translate(-323 -157)"/>
  <path d="M650 203c-5-13-8-14 8-25 8-6 8-14 19-7 6 4 4 14 11 18-12 20-37 30-42 55-15-6-5-31 1-42m85 25 1 1a1 1 0 0 0 0 1 1 1 0 0 0 2 0 1 1 0 0 0 0-1 2 2 0 0 0 1-1 1 1 0 0 0-1-1l-1-1a1 1 0 0 0-1-1 1 1 0 0 0-1 0 1 1 0 0 0 0 1h-1a1 1 0 0 0 0 1 2 2 0 0 0 1 1Z" class="cls-7"/>
  <path d="M667 266c-5-10 17-21 24-28 5-4 9-10 17-12 13-4 7-1 17 3s8 3 19 0c5-2 16-12 16 0 0 14-24 14-33 15 4 17-15 32-27 42 3-5 14-20 11-25-5-11-18 2-24 8-14 13-22 27-29 46 1-15 1-37 10-47m192-71c-9-10-28-13-40-21-6-4-10-10-17-14-7-3-14-1-19-5 5-15 53 6 63 11 12 6 56 29 45-6 7-1 33 9 39 13 6 3 15 12 6 15-4 2-15-5-20-5a60 60 0 0 0-22 2c-12 3-11 7-20 15-9 7-27 15-40 10-3-12 20-8 23-16m-96 84c5-7 18-24 28-23 4 8-13 37-25 37-21-1 17-30 22-33m-232-95c8-2 15 0 22 3a85 85 0 0 1 20 14l9 9a2 2 0 0 0 2-1c3-17-9-32-20-44-2-2-4 0-2 2 10 11 22 25 19 41h3a131 131 0 0 0-18-16c-7-5-14-10-22-11a30 30 0 0 0-14 0 2 2 0 0 0 1 3Z" class="cls-7"/>
  <path d="M563 167c3-1 7-1 10 1a41 41 0 0 1 11 6 87 87 0 0 1 20 23l5 12h3c4-16 7-32 1-48a50 50 0 0 0-7-12c-1-1-4 0-2 2l7 19a39 39 0 0 0 9 14l12 12a45 45 0 0 1 8 16 32 32 0 0 1-1 20l2-1-28-19-2 3a92 92 0 0 1 21 15c6 6 12 13 15 21a40 40 0 0 1 3 14c0 1 2 2 3 0 4-10 9-21 10-33 2-10 1-22-6-30-5-5-11-9-17-11l1 2c2-10 5-20 3-31a25 25 0 0 0-7-13 16 16 0 0 0-8-4l-8-2c-2 0-4-2-6-4a18 18 0 0 0-4-6c-1-1-4 1-2 2a14 14 0 0 1 4 5 10 10 0 0 0 3 4 18 18 0 0 0 8 3c3 0 6 0 8 2 5 2 8 7 9 12a37 37 0 0 1 1 15l-4 16a2 2 0 0 0 1 2 33 33 0 0 1 15 9 27 27 0 0 1 6 12c2 11 0 22-3 32a149 149 0 0 1-7 17l3 1c-1-19-14-34-28-45a96 96 0 0 0-12-8 2 2 0 0 0-2 3l29 19a2 2 0 0 0 2-1c5-12 1-25-5-36l-13-13a55 55 0 0 1-5-6 34 34 0 0 1-4-7c-4-7-5-15-9-22l-2 2a47 47 0 0 1 9 21c1 7 0 15-1 23l-3 13h3l-4-11a88 88 0 0 0-9-12c-7-8-15-16-25-20-4-2-9-2-13 0-2 0 0 3 2 2Z"/>
  <path d="M526 155a61 61 0 0 1 13-6 124 124 0 0 1 18-4 103 103 0 0 1 19-1 51 51 0 0 1 16 3c5 2 10 5 12 10 1 1 3 0 3-1l-5-18c0-2-3-1-2 1l4 17 2-1c-4-10-17-13-27-14-13-1-26 1-39 5a69 69 0 0 0-15 6 2 2 0 0 0 1 3Zm116-21v6a34 34 0 0 0 0 9 27 27 0 0 0 6 12l10 13a43 43 0 0 1 6 16 28 28 0 0 1-4 18 2 2 0 0 0 1 3c11 3 20 11 25 21 5 9 8 21 4 31a28 28 0 0 1-12 14l3 2c-1-13-9-24-15-34l-3 2c8 7 12 17 11 28-1 10-5 19-11 27a82 82 0 0 1-13 12 2 2 0 0 0 0 2c6 7 7 16 7 24a88 88 0 0 1-4 29 62 62 0 0 1-6 12 40 40 0 0 1-8 11 46 46 0 0 1-29 10 54 54 0 0 1-33-10c-1-1-3 1-1 2 18 13 43 15 61 2a46 46 0 0 0 11-11 55 55 0 0 0 6-12 91 91 0 0 0 6-30c0-10-1-21-8-29v2c16-13 30-34 23-55a45 45 0 0 0-10-17 2 2 0 0 0-2 2c6 10 14 21 15 33a2 2 0 0 0 2 1 31 31 0 0 0 12-13 34 34 0 0 0 3-17c-1-12-7-24-16-32a42 42 0 0 0-17-10l1 2c6-11 5-23 0-34a68 68 0 0 0-10-14c-3-3-6-7-7-11a29 29 0 0 1-1-10l-1-8c0-2-3-1-2 1Z"/>
  <path d="M633 349h1c-1 0 0 0 0 0s0-1 0 0a2 2 0 0 1 1 0 9 9 0 0 1 1 3 32 32 0 0 1 2 9 91 91 0 0 1-1 22l-1 5a17 17 0 0 1-1 3c-1 2 2 3 3 1a28 28 0 0 0 2-8 94 94 0 0 0 1-11 89 89 0 0 0 0-13 35 35 0 0 0-2-9c-1-3-3-5-6-5a2 2 0 0 0 0 3Zm-2 54c9-3 18-5 26-9s17-9 21-18a31 31 0 0 0 4-16c-1-2-4-2-3 0a28 28 0 0 1-3 14 30 30 0 0 1-8 10c-7 6-15 9-24 12l-14 4a2 2 0 0 0 1 3Zm-44-2c-1 10-10 16-19 19a67 67 0 0 1-32 1c-5-1-10-3-14-6-2-1-3 2-2 3a39 39 0 0 0 14 5 73 73 0 0 0 17 2c10 0 23-2 31-9a21 21 0 0 0 8-15c0-2-3-2-3 0Z"/>
  <path d="M564 425c9 6 22 5 32 3 11-3 23-8 32-17 4-3 7-8 8-13 1-2-2-3-3-1-1 4-3 8-6 11a55 55 0 0 1-13 10c-10 5-22 9-33 9-6 0-11-1-15-5-2-1-3 2-2 3Z"/>
  <path d="M624 414c10 6 24 3 34-1s22-12 26-23a20 20 0 0 0-1-17 2 2 0 0 0-3 1 17 17 0 0 1 2 14c-1 5-5 9-8 12a55 55 0 0 1-32 14c-5 1-11 0-17-3-1-1-3 2-1 3Z"/>
  <path d="M673 399c3 7 0 15-3 21-1 2 2 3 3 2 3-8 6-16 3-24-1-2-4 0-3 1Z"/>
  <path d="M672 404c6 1 11-1 16-4a54 54 0 0 0 14-13 37 37 0 0 0 4-9c1-2-2-2-3-1-2 5-5 10-9 14s-8 7-14 9a13 13 0 0 1-7 1c-2 0-2 3-1 3Zm9-44c10 2 16-10 19-17 5-11 8-23 7-35a65 65 0 0 0-8-23c-1-2-4 0-3 1a63 63 0 0 1 7 20 55 55 0 0 1 0 20 74 74 0 0 1-4 13 50 50 0 0 1-7 13c-2 3-6 6-10 5a2 2 0 0 0-1 3Z"/>
  <path d="M709 315c10-7 16-20 17-33 2-12-1-26-11-34-5-5-13-8-20-8-2 0-2 3 0 3a28 28 0 0 1 26 19c4 12 3 25-2 35a36 36 0 0 1-12 15c-2 1 0 4 2 3Z"/>
  <path d="M712 243c2-4 2-9 2-14a70 70 0 0 0-4-15 42 42 0 0 0-7-13 36 36 0 0 0-12-9l-16-7c-2 0-3 2-1 3 9 4 18 6 25 13s10 17 11 26c1 5 2 10-1 15-1 1 2 3 3 1Z"/>
  <path d="M688 191a10 10 0 0 0 6-9c1-4-1-8-3-11-4-9-11-16-17-23a87 87 0 0 0-9-8c-1-1-4 1-2 2a108 108 0 0 1 16 16 81 81 0 0 1 8 12c2 3 4 7 4 10a8 8 0 0 1-4 8c-2 1-1 4 1 3Z"/>
  <path d="M694 135c2 4 2 8 0 12l-5 14a2 2 0 0 0 2 2c10 0 20 6 25 14a22 22 0 0 1 5 14c0 5-2 10-5 15l-9 16a2 2 0 0 0 1 2c7 2 14 5 18 11a27 27 0 0 1 4 19 32 32 0 0 1-3 11 2 2 0 0 0 0 1c10 9 12 25 10 37-1 6-3 13-7 18a23 23 0 0 1-11 8c-7 2-13 3-20 3a2 2 0 0 0 0 3c12-1 24-1 32-11 4-5 7-11 8-18a56 56 0 0 0 1-21c-2-8-5-15-11-21v2a34 34 0 0 0 4-21 28 28 0 0 0-11-18 34 34 0 0 0-13-6l1 2c5-10 13-19 14-31s-7-21-16-27a33 33 0 0 0-17-5l1 2 6-15a18 18 0 0 0-2-14c-1-1-3 0-2 2Z"/>
  <path d="M741 298c5-8 8-16 8-25s0-18-5-26a25 25 0 0 0-12-9l1 2 2-23a36 36 0 0 0-7-20 51 51 0 0 0-11-10c-1-1-3 1-1 2 6 5 11 11 14 18 2 6 2 13 1 19l-1 13a2 2 0 0 0 1 2c17 6 18 29 13 43a41 41 0 0 1-5 12c-2 2 1 3 2 2Zm-26-135c4-4 3-10 1-15a28 28 0 0 0-12-13 17 17 0 0 0-9-3c-2 0-2 3 0 3 5 0 10 3 13 7 4 3 6 8 7 13a7 7 0 0 1-2 6c-2 1 0 3 2 2Z"/>
  <path d="M716 166a36 36 0 0 1 16 7 33 33 0 0 1 9 12c5 10 4 21 1 31a43 43 0 0 1-9 15 2 2 0 0 0 1 3c6 0 11 2 14 6a17 17 0 0 1 3 14 19 19 0 0 1-3 8c-2 2 0 4 2 2a21 21 0 0 0 4-17 19 19 0 0 0-9-13 22 22 0 0 0-11-3l1 3a48 48 0 0 0 13-32c0-11-4-22-13-30a38 38 0 0 0-18-9c-2 0-3 3-1 3Zm43 189c0-6-2-12-5-17l-11-17a75 75 0 0 1-5-10c-1-1-3 0-2 2l12 21c4 6 8 13 8 21 0 2 3 2 3 0Z"/>
  <path d="M759 354c7 1 9-9 9-14a72 72 0 0 0-5-26c-2-4-3-7-6-10-1-1-4 1-2 2l4 7a69 69 0 0 1 4 12 71 71 0 0 1 2 12 28 28 0 0 1-1 10 7 7 0 0 1-2 3 5 5 0 0 1-1 1 4 4 0 0 1-2 0c-2 0-2 3 0 3Zm-22-45c3 2 6 1 8 0a33 33 0 0 0 9-8c6-7 11-17 8-26-1-6-6-10-11-13-2-1-3 2-2 3 4 2 8 5 10 9a19 19 0 0 1 0 11 38 38 0 0 1-14 20 19 19 0 0 1-2 1 6 6 0 0 1-2 1 5 5 0 0 1-1 0c1 0 0 0 0 0-2-1-4 1-3 2Z"/>
  <path d="M761 280c8 5 15 11 16 20 2 8-1 16-5 23a61 61 0 0 1-10 12c-1 1 1 3 2 2 7-7 13-15 16-24a28 28 0 0 0-4-24 43 43 0 0 0-13-12 2 2 0 0 0-2 3Z"/>
  <path d="M776 322c4 0 8 4 10 6a60 60 0 0 1 7 14 42 42 0 0 1 2 7c1 2 4 1 3-1a56 56 0 0 0-5-14c-3-5-6-10-10-13a10 10 0 0 0-7-2c-2 0-2 3 0 3Z"/>
  <path d="M792 337a15 15 0 0 1 2 2 3 3 0 0 0 3 0l2-3 1-3a48 48 0 0 0 3-13 21 21 0 0 0-3-12 16 16 0 0 0-7-7l-7-3a8 8 0 0 1-4-7c0-8 4-15 5-22a36 36 0 0 0-2-15 37 37 0 0 0-8-13c-1-1-3 1-2 3a34 34 0 0 1 7 10 36 36 0 0 1 2 12 34 34 0 0 1-2 9l-3 11c0 3-1 7 1 9a12 12 0 0 0 5 6c5 2 11 4 13 9 2 4 2 9 1 13a44 44 0 0 1-4 13h1-1a10 10 0 0 0-2-2c-2 0-3 3-1 3Zm-42-69h2a1 1 0 0 0 1-1 1 1 0 0 0 0-1 1 1 0 0 0 0-1 2 2 0 0 0-1 0h-2a1 1 0 0 0-1 0 1 1 0 0 0 0 1v1a2 2 0 0 0 1 1Zm3-7c1-6 4-11 7-16l9-15a43 43 0 0 0 2-18 37 37 0 0 0-4-15 40 40 0 0 0-15-14 2 2 0 0 0-1 2 37 37 0 0 1 12 12 34 34 0 0 1 5 15 41 41 0 0 1-1 16c-2 6-6 11-9 15-3 6-7 11-8 17 0 2 3 3 3 1Z"/>
  <path d="M809 231c11 16 8 37-2 53a58 58 0 0 1-11 12c-2 1 0 3 2 2 15-13 24-34 20-54a42 42 0 0 0-7-15c-1-1-4 0-2 2Zm3 55c8 3 13 10 15 19 1 8-1 17-5 24a45 45 0 0 1-7 11c-2 2 0 4 2 3a51 51 0 0 0 12-24c2-9 1-19-4-26a26 26 0 0 0-12-10 2 2 0 0 0-2 1 2 2 0 0 0 1 2Z"/>
  <path d="M800 332a29 29 0 0 1 12 12 2 2 0 0 0 2 0 2 2 0 0 0 0-2c-2-5-7-10-12-13-2-1-3 2-2 3Zm-2-108 1 2a4 4 0 0 0 1 1 2 2 0 0 0 2-1c1-8 0-16-3-23-3-8-8-15-14-21a30 30 0 0 0-11-6c-2-1-3 2-1 2 7 3 13 8 17 14a58 58 0 0 1 9 22 36 36 0 0 1 0 11l2-1v-1a6 6 0 0 0-2-1c-1-1-3 1-1 2Z"/>
  <path d="M773 244c7-3 12-9 16-15s7-14 6-21c0-2-3-2-3 0 1 7-2 13-6 19a37 37 0 0 1-15 14c-2 1 0 4 2 3Zm26-24c5-4 8-10 10-16a81 81 0 0 0 5-19 62 62 0 0 0 0-9c0-2-3-2-3 0a75 75 0 0 1-8 34 33 33 0 0 1-6 8c-1 1 1 3 2 2Z"/>
  <path d="M811 197c3 0 6 3 8 5a69 69 0 0 1 8 11 47 47 0 0 1 6 11 24 24 0 0 1 0 15c-2 6-6 11-10 15a2 2 0 0 0 0 3c6 3 11 9 13 16 2 6 1 13-2 18a46 46 0 0 1-6 10c-1 2 1 4 2 3 5-6 8-13 10-20a27 27 0 0 0-5-21 36 36 0 0 0-10-9v2c4-4 8-9 10-14a27 27 0 0 0 1-17 43 43 0 0 0-5-12 76 76 0 0 0-9-12c-3-3-6-7-11-7-2-1-2 2 0 3Z"/>
  <path d="M838 289c10 1 15-9 16-18 2-10 0-23-6-32-3-5-7-9-13-10a2 2 0 0 0-1 2c10 3 15 13 17 22a48 48 0 0 1 0 16 28 28 0 0 1-4 12c-2 3-5 5-9 5-2-1-2 2 0 3Z"/>
  <path d="M844 233c7 1 7-9 7-14a53 53 0 0 0-12-26l-11-8a2 2 0 0 0-1 3c8 2 13 10 16 17a53 53 0 0 1 4 12l1 9a7 7 0 0 1-1 2 3 3 0 0 1-1 1c0 1 0 0 0 0v1h-1a7 7 0 0 1-1 0 2 2 0 0 0-2 1 2 2 0 0 0 2 2Z"/>
  <path d="m853 209-3-1-2 2a2 2 0 0 0 1 1c6 4 10 11 13 18 3 6 4 14 1 20a18 18 0 0 1-8 9 2 2 0 0 0-1 2 199 199 0 0 1 10 25c2 8 4 17 3 25a37 37 0 0 1-4 14c-1 2 1 3 2 1 9-16 4-36-2-52l-6-15-1 2a21 21 0 0 0 9-8 22 22 0 0 0 3-11c0-8-4-16-8-23a41 41 0 0 0-10-9l1 1-1 1a4 4 0 0 0 2 1c2 0 2-3 1-3Zm-15 78c0 6 4 11 8 16s8 10 10 16a28 28 0 0 1 2 13c0 2 3 2 3 0 1-8-2-15-5-21l-12-16a20 20 0 0 1-3-8c-1-2-4-2-3 0Zm-12 13c8 13 9 28 10 43 0 2 3 2 3 0-1-15-2-31-10-44-1-2-4 0-3 1Z"/>
  <path d="M869 301a20 20 0 0 0 11-7 27 27 0 0 0 5-13 44 44 0 0 0-7-28 27 27 0 0 0-10-10c-2-1-4 1-2 2 8 4 12 12 14 20 3 8 3 18-1 25a17 17 0 0 1-11 8 2 2 0 0 0 1 3Z"/>
  <path d="M880 296a13 13 0 0 1 10 5l5 11c0 2 3 1 2-1-1-4-2-9-5-12a16 16 0 0 0-12-6c-2-1-2 2 0 3Zm21 17c8-1 9-13 8-19 0-10-4-20-11-27a19 19 0 0 0-15-5c-2 0-2 3 0 3a16 16 0 0 1 12 3 28 28 0 0 1 8 11 45 45 0 0 1 3 13 32 32 0 0 1 0 12 14 14 0 0 1-1 2 12 12 0 0 1-1 1v1a4 4 0 0 1-1 1 4 4 0 0 1-2 1c-2 0-2 3 0 3Z"/>
  <path d="M890 263c4-7 4-16 3-24-2-8-7-16-15-19-5-2-11-2-16 0l2 2a63 63 0 0 0 3-23c-1-8-3-16-7-23a29 29 0 0 0-10-9c-2-1-3 2-1 3 13 7 16 25 15 39a58 58 0 0 1-3 12 2 2 0 0 0 2 2c4-1 9-2 13-1a18 18 0 0 1 9 6c4 6 6 15 6 22a24 24 0 0 1-4 11c-1 2 2 3 3 2Z"/>
  <path d="M835 194v2a2 2 0 0 0 2 2 2 2 0 0 0 2-1c7-14 12-30 6-46-1-1-4-1-3 1a40 40 0 0 1 2 23 73 73 0 0 1-8 21l2-1v1a2 2 0 0 0 0-1 3 3 0 0 0-1-2c-1-2-3 0-2 1Zm-15-24c3-5 0-11-2-16a56 56 0 0 0-11-14c-2-2-4 1-3 2a54 54 0 0 1 11 13 29 29 0 0 1 3 7v6c-1 2 1 3 2 2Zm36-14c8 5 15 11 19 19a47 47 0 0 1 7 24 75 75 0 0 1-2 17c0 1 2 2 3 0 2-9 3-19 1-29a49 49 0 0 0-13-23 79 79 0 0 0-14-11c-1-1-3 2-1 3Zm32 32 6 6a49 49 0 0 1 7 10 30 30 0 0 1 3 13 35 35 0 0 1-1 12 20 20 0 0 1-8 11c-1 1 0 3 2 2 7-5 10-14 10-23a36 36 0 0 0-2-13 44 44 0 0 0-8-12l-7-8c-2-2-4 0-2 2Z"/>
  <path d="M899 244c13 1 13 18 11 28a33 33 0 0 1-4 9 2 2 0 0 0 3 1 40 40 0 0 0 5-19c0-6-1-13-5-18a15 15 0 0 0-10-4c-2 0-2 3 0 3Z"/>
  <path d="M915 274a36 36 0 0 0-5 1 2 2 0 0 0 0 2l17 19a2 2 0 0 0 2-1c-4-8-11-14-17-20l-1 3a31 31 0 0 1 4-1 2 2 0 0 0 1-1 2 2 0 0 0-1-2Zm0-22c6 0 11 4 15 8a47 47 0 0 1 10 16 27 27 0 0 1 3 8c0 2 3 2 3 0-1-6-3-12-7-17-3-6-8-12-14-15a19 19 0 0 0-10-3c-2 0-2 3 0 3Z"/>
  <path d="M938 261c0-16-3-31-13-44a53 53 0 0 0-8-8l-6-4a11 11 0 0 1-4-5 26 26 0 0 1 0-9l2-14a29 29 0 0 0-2-14c0-2-3-1-2 1a26 26 0 0 1 1 12l-2 12c-1 6-1 12 3 17a30 30 0 0 0 5 4 65 65 0 0 1 7 6 50 50 0 0 1 13 21 83 83 0 0 1 3 25 2 2 0 0 0 3 0Z"/>
  <path d="M922 169a29 29 0 0 1 2 11 84 84 0 0 1 0 14 182 182 0 0 1-3 20 8 8 0 0 0-1 2 2 2 0 0 0 3 1 3 3 0 0 0 0-1c1-2-2-3-2-1v-1h2v2-1l1-3 2-9c1-8 2-16 1-24a32 32 0 0 0-3-11c-1-2-3-1-2 1Z"/>
  <path d="M923 171a61 61 0 0 0 6 9l9 13c3 3 5 7 7 12 1 5 0 11-1 16l-10 17a2 2 0 0 0 0 2c12 9 24 18 30 32 1 1 4 0 3-2-7-14-19-24-31-32v2l10-16a31 31 0 0 0 2-18l-5-12-10-13c-2-4-6-7-8-12 0-1-3 0-2 2Z"/>
  <path d="M949 207a11 11 0 0 0-1-1c0-1 0 0 0 0l-2 1a27 27 0 0 1 2 3l4 6c3 4 6 9 7 14a45 45 0 0 1 1 12 31 31 0 0 1-3 14c0 1 2 3 3 1a34 34 0 0 0 3-14 48 48 0 0 0-1-14l-8-16-5-7c0-1-1-2-3-2s-1 3 0 4c0 2 3 1 3-1Z"/>
  <path d="M963 230c-1-8 1-16 2-24 0-8 0-17-3-25a2 2 0 0 0-2-1 2 2 0 0 0-1 2c3 8 3 16 3 25-1 7-3 15-2 23 1 2 4 2 3 0Z"/>
  <path d="M963 180c-1 3 1 6 2 8l6 8a20 20 0 0 1 3 10 29 29 0 0 1-3 12 45 45 0 0 1-7 12c-1 1 1 3 2 2 6-6 10-14 11-23a23 23 0 0 0-2-11 53 53 0 0 0-6-9c-1-3-4-6-3-9 0-2-3-2-3 0Z"/>
  <path d="M970 231a10 10 0 0 1 6 2 12 12 0 0 1 4 5l3 12a2 2 0 0 0 1 2 2 2 0 0 0 2-2l-4-14a13 13 0 0 0-12-8c-2 0-2 3 0 3Zm4-30v1h1a6 6 0 0 1 0 1 8 8 0 0 1 0 1v1a16 16 0 0 1-1 5l-3 8 1 3 3-2 5-5 5-5 3-4a16 16 0 0 0 4-8 57 57 0 0 0 0-10c0-2-3-2-3 0 1 5 1 11-2 15a23 23 0 0 1-3 3l-4 4-6 7-2 2c0 1 0 0 0 0a2 2 0 0 1 2 1v1-2l1-1 1-2a40 40 0 0 0 1-5c1-3 2-8-1-11a2 2 0 0 0-2 0 2 2 0 0 0 0 2Z"/>
  <path d="m991 191 6 22a27 27 0 0 1-1 11 28 28 0 0 1-6 10c-2 2 1 4 2 3a32 32 0 0 0 7-12 29 29 0 0 0 1-11c-1-8-4-16-6-23-1-2-4-2-3 0Z"/>
  <path d="M998 221c5 5 8 12 8 18a2 2 0 0 0 2 2 2 2 0 0 0 1-1c-1-8-4-16-9-21-1-1-3 1-2 2Zm7-7c7-10 9-23 8-36 0-2-3-2-3 0 1 12-1 25-7 34-1 2 1 4 2 2Z"/>
  <path d="M1008 201a2 2 0 0 0 0-3 2 2 0 0 0 0 3Zm8-14c20-4 30-24 36-42l12-27a99 99 0 0 1 22-26c11-9 22-15 34-21 2-1 0-3-2-3-20 11-40 24-53 43-6 9-10 19-14 28-3 9-6 18-12 27a48 48 0 0 1-10 11 32 32 0 0 1-14 7c-2 0-1 3 1 3Z"/>
  <path d="M1030 185c11-6 21-16 28-27s13-24 19-36a197 197 0 0 1 10-18c1-2-2-3-3-2l-17 34c-6 12-13 24-22 33a61 61 0 0 1-17 14c-2 1 0 3 2 2Z"/>
  <path d="M1039 188c13-5 23-16 31-28l22-40a136 136 0 0 1 12-19c1-1-1-3-2-2-9 11-15 24-21 36-7 13-14 26-25 37-5 6-11 10-18 13-1 1-1 4 1 3Zm69-75a2 2 0 0 0 0-3 2 2 0 0 0 0 3Zm-99 118a12 12 0 0 1 5-2 37 37 0 0 1 8-1 80 80 0 0 1 16 2 61 61 0 0 1 8 1c2 1 2-2 1-2a75 75 0 0 0-16-3 56 56 0 0 0-17 0 16 16 0 0 0-7 3c-1 1 1 3 2 2Zm131 49a2 2 0 0 0 0-3 2 2 0 0 0 0 3Zm-75-42a2 2 0 0 0 0-3 2 2 0 0 0 0 3Z"/>
  <path d="M1020 235a6 6 0 0 1 3-1 19 19 0 0 1 4 0 60 60 0 0 1 12 3l26 10 12 3c2 0 2-3 0-3l-10-2-13-5c-9-4-17-8-27-9-3 0-7 0-10 2-1 1 1 4 3 2Zm19-25c5-1 11 0 16 2a70 70 0 0 1 15 7c2 1 3-2 2-3a73 73 0 0 0-16-7c-6-2-12-3-17-1-2 0-1 3 0 2Zm-28-7a33 33 0 0 1 16-2c2 0 2-3 0-3a36 36 0 0 0-18 3 2 2 0 0 0-1 2 2 2 0 0 0 3 0Zm82 37c16 6 32 14 45 25a103 103 0 0 1 11 11c1 1 3-1 2-2-12-14-27-23-44-31l-14-6c-1-1-2 2 0 3Z"/>
  <path d="M851 526a122 122 0 0 0 32-19 103 103 0 0 0 21-25 93 93 0 0 0 12-31 95 95 0 0 0 0-32 107 107 0 0 0-11-34l-2-4-3 2c7 9 11 19 13 30a121 121 0 0 1 2 34c0 11-3 22-8 32s-14 18-23 25c-11 8-23 14-36 20-2 1 0 3 2 2 22-9 45-22 58-43 6-9 9-21 10-32a125 125 0 0 0-1-35c-3-13-7-25-15-35-1-1-3 0-2 2a107 107 0 0 1 13 32 92 92 0 0 1 1 32 90 90 0 0 1-10 30 98 98 0 0 1-20 25 116 116 0 0 1-30 20l-4 2a2 2 0 0 0-1 2 2 2 0 0 0 2 0Z" style="fill:url(#Gradiente_sem_nome_19-2)" transform="translate(-323 -157)"/>
  <path d="M826 483c23 7 49-11 60-30 13-21 5-44-2-66 13 26 34 58 18 87-19 33-50 22-81 9" style="fill:url(#Gradiente_sem_nome_43)" transform="translate(-323 -157)"/>
  <path d="M426 261a13 13 0 0 0 2-2l1-2c1-1 0 0 0 0h1v-1s-1 1 0 0a5 5 0 0 1 1 0h2l-1-2h-1l-1 1a8 8 0 0 1-1 0c-1 0 0 0 0 0h1v3a1 1 0 0 1-1 0h1a2 2 0 1 0-1-3l-2 2a1 1 0 0 0 1 1 3 3 0 0 0 2 0 36 36 0 0 0 4-2 2 2 0 0 0-1-2 11 11 0 0 0-3-1 5 5 0 0 0-3 2 12 12 0 0 0-1 1l-1 1v1h-1a2 2 0 0 0 2 3Zm-77 57c14-30 52-54 84-36-29-1-62 28-82 46a18 18 0 0 1-1-10" class="cls-6"/>
  <path d="M656 315c11-10 20-23 23-38 0-2-3-3-3-1-3 14-12 27-22 37a2 2 0 0 0 2 2Zm30 46a28 28 0 0 0 8-7 48 48 0 0 0 6-8l-3-1a17 17 0 0 1-2 11c-2 3-5 5-9 4a2 2 0 0 0-1 1 2 2 0 0 0 1 2c7 2 13-6 14-12a18 18 0 0 0 0-6 2 2 0 0 0-2-1 45 45 0 0 1-6 8 26 26 0 0 1-8 6 2 2 0 0 0 2 3Zm-107 29c6-3 13-3 20-5 8-3 14-9 19-14l9-11c1-2-1-4-2-3l-16 19a31 31 0 0 1-10 6 49 49 0 0 1-10 2 66 66 0 0 0-11 3c-2 0-1 3 1 3Zm-28-17v-1a3 3 0 0 1 1 0 14 14 0 0 1 1-2 48 48 0 0 1 4-3l11-7 11-9 13-11c8-7 15-16 18-26s3-20 2-29c-1-11-4-22-7-33a2 2 0 0 0-3 0c5 19 11 39 6 58-3 11-9 20-17 27a160 160 0 0 1-12 11l-12 9-12 8c-2 1-6 4-7 7-1 2 2 2 3 1Zm64-162c3 0 5-5 5-8a82 82 0 0 0 1-15l-1-7a2 2 0 0 0-3 0l1 16a33 33 0 0 1-1 8 7 7 0 0 1-2 2 2 2 0 0 1-1 1c-2 1-1 3 1 3Z" class="cls-15"/>
  <path d="M614 209c2-3 3-7 3-11l2-13c1-2-2-3-3-1l-2 13-2 11c-1 2 1 3 2 1Zm32-18 3-19c0-7 0-13-4-19-1-2-3 0-2 1 3 6 3 12 3 18l-3 19c-1 2 2 2 3 0Zm20 18c6-5 6-14 5-21-2-8-7-16-11-23l-6-10c-1-1-4 0-3 2a193 193 0 0 1 11 18c4 7 7 14 6 22a13 13 0 0 1-5 9c-1 2 1 4 3 3Zm9-64a3 3 0 0 1 1 0 12 12 0 0 1 1 1 23 23 0 0 1 3 2 52 52 0 0 1 5 7c4 6 8 12 9 19v8h3c-3-12-7-25-15-35a66 66 0 0 0-10-8c-1-2-3 1-1 2a57 57 0 0 1 13 15 63 63 0 0 1 8 16l2 11c0 2 3 1 3 0 2-6 0-13-3-19a64 64 0 0 0-12-17l-6-5c-2-1-3 2-1 3Zm33 170c7-1 12-8 15-14a62 62 0 0 0 6-24 27 27 0 0 0-1-11c-1-2-4-1-3 1a23 23 0 0 1 1 8 54 54 0 0 1-1 11c-2 7-4 15-9 21l-8 5c-2 0-2 3 0 3Zm-3 22c7-1 14-2 20-6a28 28 0 0 0 10-8l3-5c1-2-1-3-2-1a40 40 0 0 1-7 8 30 30 0 0 1-12 6 80 80 0 0 1-12 3 2 2 0 0 0-1 1 2 2 0 0 0 1 2Zm40-26a29 29 0 0 0 15-12 34 34 0 0 0 5-13l1-6c1-2-3-2-3 0-4 11-7 22-18 28-2 1 0 4 2 3 11-7 15-19 18-30l-3-1a66 66 0 0 1-1 10 26 26 0 0 1-8 12 27 27 0 0 1-9 6c-2 1-1 3 1 3Zm9-50c0-1 0 0 0 0v-1l1-1a15 15 0 0 1 1-2l2-5 8-13c5-10 10-21 8-32-2-8-6-14-11-19-1-1-3 1-2 2a31 31 0 0 1 9 16 34 34 0 0 1 0 16c-3 10-9 19-14 28l-5 11c0 2 3 2 3 0Zm46 40c2 0 4-2 6-4a46 46 0 0 0 5-6 2 2 0 0 0-1-2 2 2 0 0 0-2 0 45 45 0 0 1-4 6 13 13 0 0 1-1 1 9 9 0 0 1-1 1h-1a5 5 0 0 1-1 0 2 2 0 0 0-2 2 2 2 0 0 0 2 1Zm16-18c2-1 4-3 5-6a37 37 0 0 0 3-10 66 66 0 0 0-1-23l-4-10a2 2 0 0 0-2 0 2 2 0 0 0-1 2 21 21 0 0 1 4 7 55 55 0 0 1 1 10c1 7 0 15-2 21l-4 7c-2 0-1 3 1 2Zm3 56a8 8 0 0 1-2 3l2 2c8-8 10-20 11-30 0-2-3-2-3 0a85 85 0 0 1-3 15c-1 4-3 9-7 13a2 2 0 0 0 2 2 10 10 0 0 0 2-3c1-2-1-3-2-2Z" class="cls-15"/>
  <path d="M761 339c2 0 3-3 3-5a31 31 0 0 0 0-9l-2-9c-1-4-3-7-3-11-1-4 0-8 1-11 1-2-2-3-2-1a24 24 0 0 0-3 10l2 9c2 6 4 12 4 19a13 13 0 0 1 0 4l-1 1c-2 1-1 4 1 3Zm84-57c4-3 2-9 1-12a43 43 0 0 0-9-14 23 23 0 0 0-6-5v2c2-6 6-10 7-17a2 2 0 0 0-1-1 2 2 0 0 0-2 1c0 6-5 11-7 16a2 2 0 0 0 1 2c4 2 7 5 9 9 3 3 6 8 6 12 1 2 0 3-1 5s1 3 2 2Z" class="cls-15"/>
  <path d="M863 326c1-4-2-9-4-13l-8-13-4-6-2-2a6 6 0 0 1-1-1 2 2 0 0 1 0-1 5 5 0 0 1 1-1 35 35 0 0 1 4-2 11 11 0 0 0 4-5 51 51 0 0 0 4-19c0-2-3-2-3 0a50 50 0 0 1-4 16c0 2-1 4-3 5s-4 2-5 5c-1 1 0 3 1 4l3 6 9 12a46 46 0 0 1 4 8l1 6c0 2 2 3 3 1Zm11-3c2-8 5-16 1-24a2 2 0 0 0-2 0 2 2 0 0 0 0 2c3 7 0 14-2 21-1 2 2 3 3 1Zm-5-34a2 2 0 0 0 3-1 5 5 0 0 0 0-2l-2-8-3-8c-1-3-2-6-1-9a40 40 0 0 1 1-5 59 59 0 0 0 2-7c1-2-2-3-2-1l-4 10a15 15 0 0 0 0 8 64 64 0 0 0 2 9 177 177 0 0 1 4 12s0 1 0 0v1-1l2-1c-1-1-3 1-2 3Zm-14-38 2 1 1-3a41 41 0 0 0-2-5l-2-7a19 19 0 0 1-2-7c0-5 1-10-1-15 0-2-3-1-2 1v12a25 25 0 0 0 1 8l4 11 1 3 2-1c-1-1-3 0-2 2Zm46-9a28 28 0 0 0 9-23c0-8-3-15-7-22a59 59 0 0 0-6-8c-1-1-3 1-2 2a56 56 0 0 1 9 16c3 7 4 14 2 21a25 25 0 0 1-7 12c-1 2 1 4 2 2Zm-34-18c0 3 2 5 3 7 2 3 3 7 2 10h3a22 22 0 0 1-4-13l-3 1a121 121 0 0 0 9 17l5 6a12 12 0 0 1 1 8l3-1c-3-6-7-13-14-16-1-1-3 2-1 2 6 3 9 10 12 16 1 1 3 0 3-1a15 15 0 0 0-1-9l-5-6a115 115 0 0 1-9-17c-1-2-3-1-3 0a25 25 0 0 0 4 14h3a18 18 0 0 0-2-11l-4-8c0-2-3-1-2 1Z" class="cls-15"/>
  <path d="M852 215c-2-8-5-17-10-24v2a50 50 0 0 0 8-28c0-2-3-2-3 0a47 47 0 0 1-7 27 2 2 0 0 0 0 2c5 6 8 14 9 22a2 2 0 0 0 1 1 2 2 0 0 0 1-2Zm-34-46q0 1 0 0l1-1h1v3s-1 0 0 0a2 2 0 0 0 1-1c2-3 3-6 2-10l-5-8c-2-1-4 1-2 2l4 7c1 3 0 5-1 7h1a3 3 0 0 0-2 0 2 2 0 0 0-1 2 2 2 0 0 0 2 1 2 2 0 0 0 2-2c-1-2-4-2-3 0Zm65 122a34 34 0 0 1 6 7 21 21 0 0 1 4 9 2 2 0 0 0 1 1l2-1a24 24 0 0 0-4-10 36 36 0 0 0-7-8 2 2 0 0 0-2 0 2 2 0 0 0 0 2ZM671 184l-8-20a46 46 0 0 0-14-17c-2-1-4 1-2 2a43 43 0 0 1 14 17l7 19c1 2 3 1 3-1Zm-26 13a52 52 0 0 0 5-16 49 49 0 0 0-1-16c0-2-3-1-3 1a46 46 0 0 1 1 15 47 47 0 0 1-4 14c-1 2 2 4 2 2Zm-30-22v-1a2 2 0 0 0-1 1 2 2 0 0 0 0 2c1 2 3 1 5 0a7 7 0 0 0 2-6 24 24 0 0 0-2-9 69 69 0 0 0-6-9l-6-8c-1-1-3 0-2 2 2 7 7 13 10 21l1 6a19 19 0 0 0 3 4 58 58 0 0 0 7 8c3 3 6 5 7 8 1 2 4 1 3-1-1-3-4-5-6-7a96 96 0 0 1-8-8 20 20 0 0 1-2-4 33 33 0 0 1-2-6 46 46 0 0 0-5-10l-6-12-2 1a91 91 0 0 1 9 13 37 37 0 0 1 4 8v6a3 3 0 0 1-1 1 2 2 0 0 0-1 0s1 0 0 0l1 2c-1 0 0 0 0 0a4 4 0 0 0 0-1 2 2 0 0 0 1-2c0-2-3-1-3 1Z" class="cls-15"/>
  <path d="m652 149-5 2 2 1 2-8a17 17 0 0 0-1-9 2 2 0 0 0-1-1 2 2 0 0 0-1 2 15 15 0 0 1 0 8l-2 8c0 2 2 2 3 1l4-1c2-1 0-4-1-3Zm22-12a23 23 0 0 0-3-1 7 7 0 0 0-3 0 2 2 0 0 0-1 2 30 30 0 0 0 5 9 28 28 0 0 0 7 7 2 2 0 0 0 2-3 26 26 0 0 1-7-6 26 26 0 0 1-4-8l-1 2a4 4 0 0 1 2 0l3 1a2 2 0 0 0 2-1 2 2 0 0 0-1-2Zm20 19c-3-1 0-2-1-1a2 2 0 0 0-1 1l3 2a3 3 0 0 0 2-1 13 13 0 0 0 1-2 16 16 0 0 0 1-4v-17a2 2 0 0 0-3 0l1 15a16 16 0 0 1-1 3 12 12 0 0 1-1 1v1l-1 1 1 1a2 2 0 0 0 1 0 2 2 0 0 0-1-2c-2-1-3 1-1 2Zm10-21c4-1 7 5 8 8 3 5 4 10 4 15a2 2 0 0 0 1 2 9 9 0 0 1 4 2l3 3c2 1 4-1 3-2l-4-4a12 12 0 0 0-5-2l1 1c0-6-2-12-4-17-2-4-6-10-11-9-2 0-2 3 0 3Z" class="cls-15"/>
  <path d="M677 218c-1-1-3-2-4 0l2 3 3 2 1 1c1 0 0 0 0 0l2 4a41 41 0 0 1 4 7c0 2 3 1 2 0a41 41 0 0 0-3-7l-2-4a18 18 0 0 0-1-2 31 31 0 0 0-3-3l-1-1h-1v-1a1 1 0 0 1 0 2l-1 1s-1-1 0 0h1a2 2 0 0 0 1-2Zm33 2a44 44 0 0 0-6-13 33 33 0 0 0-10-10 2 2 0 0 0-2 3 30 30 0 0 1 10 9 41 41 0 0 1 5 11 2 2 0 0 0 3 0Zm22-16a5 5 0 0 0 0 2 2 2 0 0 0 1 1 2 2 0 0 0 2-1 1 1 0 0 0 0-1l-5-15a41 41 0 0 0-8-14c-2-2-4 0-2 2 7 7 9 18 13 28v-2l2 1c0 1 0 1 0 0a7 7 0 0 0 0-1 2 2 0 0 0-3 0Zm-3-35c9 8 15 21 17 33 0 2 3 1 3-1-3-12-8-25-18-35a2 2 0 0 0-2 2Zm31 19c-4-9-10-20-21-24-1-1-3 2-1 2 10 5 15 15 20 24 1 2 3 0 2-2Z" class="cls-16"/>
  <path d="M753 176c3-7 1-15-2-21-3-7-8-14-16-15a17 17 0 0 0-13 2 2 2 0 0 0 2 3c14-9 25 8 27 20v9c-1 2 2 4 2 2Z" class="cls-16"/>
  <path d="m742 147 2-5a36 36 0 0 0 1-8c0-2-3-2-3 0a33 33 0 0 1 0 7 16 16 0 0 1-1 2l-1 1s1 0 0 0c-1 1 0 3 2 3Zm14 17a62 62 0 0 0 5-14 66 66 0 0 0 2-16 2 2 0 0 0-3 0 62 62 0 0 1-2 15 58 58 0 0 1-5 13c-1 2 2 3 3 2Z" class="cls-16"/>
  <path d="M761 148c0 6 4 11 8 15 3 6 7 11 8 18 0 2 3 2 3 0-1-7-4-13-8-18l-5-8a16 16 0 0 1-3-7c0-2-3-2-3 0Zm47 35c-3-6-7-12-12-16-5-5-11-8-17-10-2-1-3 2-1 3 6 2 12 5 16 9l12 15c1 2 3 0 2-1Z" class="cls-16"/>
  <path d="M766 159c1 2 2 3 4 3s4-2 5-4a49 49 0 0 0 8-15 25 25 0 0 0 2-8 2 2 0 0 0-3 0 20 20 0 0 1-2 6 53 53 0 0 1-2 7 49 49 0 0 1-4 6 14 14 0 0 1-4 4 4 4 0 0 1 0 1h-1s1 0 0 0a1 1 0 0 1 0-1 6 6 0 0 1-1 0c-1-2-3-1-2 1Zm41 72c14-6 20-24 13-37a20 20 0 0 0-9-8c-1-1-3 1-1 2 12 6 13 23 5 33a20 20 0 0 1-8 7c-2 0-1 3 0 3Z" class="cls-16"/>
  <path d="m812 187 3-12c1-2-2-3-3-1l-3 13c-1 1 2 2 3 0Zm38-24c2-2 1-5 0-8a35 35 0 0 0-3-9 2 2 0 0 0-3 1 32 32 0 0 1 3 9 24 24 0 0 1 1 4 10 10 0 0 1 0 1c0 1 0 0 0 0s-1 1 0 0a2 2 0 0 0 0 2 2 2 0 0 0 2 0Z" class="cls-16"/>
  <path d="m559 122 8-9 6-11 17-25c11-15 24-28 37-41 7-7 15-14 23-18 2-1 1-4-1-3-8 4-14 10-21 16a449 449 0 0 0-37 41l-17 24-8 13c-3 4-5 8-9 10-2 1 0 4 2 3Z" class="cls-6"/>
  <path d="M576 108a10 10 0 0 1 0-1 11 11 0 0 1 2-1 2 2 0 0 0 0-2 2 2 0 0 0 0-1 1 1 0 0 0-1 0 1 1 0 0 0-1 0 11 11 0 0 0-3 4 2 2 0 0 0 1 2 2 2 0 0 0 1 0 2 2 0 0 0 1-1Zm10-14c3-7 9-13 14-19l16-21 9-11c1-2-1-4-2-2l-17 21-8 10-7 10a62 62 0 0 0-8 11c-1 1 2 3 3 1Zm-35 35v-1a1 1 0 0 0-1-1 1 1 0 0 0-1 0 2 2 0 0 0-1 0v2a1 1 0 0 0 0 1 1 1 0 0 0 1 0h2a2 2 0 0 0 0-1ZM658 11h1a1 1 0 0 0 0-1 1 1 0 0 0 1 0 1 1 0 0 0 0-1 1 1 0 0 0 0-1 2 2 0 0 0-1 0h-1a1 1 0 0 0-1 0 1 1 0 0 0 0 1 1 1 0 0 0 0 1 1 1 0 0 0 1 1Zm-18 22c-6 5-10 11-15 17l-14 19a116 116 0 0 0-7 11c-1 2 1 3 2 2a154 154 0 0 1 14-20l13-17a71 71 0 0 1 9-9c2-2 0-4-2-3Zm4 19c-5 7-11 12-16 17a137 137 0 0 0-16 20l-8 12a2 2 0 0 0 2 2 170 170 0 0 1 15-22 105 105 0 0 1 8-9l9-8a73 73 0 0 0 8-10c2-2-1-3-2-2Zm-17 59a2 2 0 0 0 0-3 2 2 0 0 0 0 3Zm7-9 7-11a2 2 0 1 0-2-2l-7 11a2 2 0 0 0 2 2Zm11-16a41 41 0 0 0 3-3 2 2 0 0 0 1-1 2 2 0 0 0-1-1 1 1 0 0 0-1-1 1 1 0 0 0-1 1 40 40 0 0 1-3 3 2 2 0 0 0 0 1 2 2 0 0 0 0 1 1 1 0 0 0 1 1 2 2 0 0 0 1-1Zm6-6a7 7 0 0 1 1-1 1 1 0 0 0 1-1 1 1 0 0 0-1-1h-1a1 1 0 0 0-1 0 8 8 0 0 0-1 1 1 1 0 0 0-1 0 1 1 0 0 0 0 1 1 1 0 0 0 0 1 1 1 0 0 0 1 0 2 2 0 0 0 1 1 1 1 0 0 0 1-1Zm6-7 8-8 8-7c4-4 9-6 13-11 1-2-2-3-3-2-3 5-8 8-12 11l-8 7-8 8c-1 1 1 3 2 2Z" class="cls-6"/>
  <path d="M685 30a11 11 0 0 0 3-4 37 37 0 0 0 2-7 46 46 0 0 0 1-12c0-2-3-2-3 0a43 43 0 0 1-1 11 41 41 0 0 1-2 6 9 9 0 0 1-2 4c-1 1 1 4 2 2Zm-9 56c9-8 19-16 26-26a76 76 0 0 0 5-8 49 49 0 0 0 4-11c1-4 1-8-2-10l-1 3c1 0 2 1 2 3a12 12 0 0 1-2 4c-1 1 1 3 2 1a12 12 0 0 0 3-6 6 6 0 0 0-4-5 2 2 0 0 0-1 3 3 3 0 0 1 1 2 13 13 0 0 1-1 4 48 48 0 0 1-4 11 81 81 0 0 1-5 7 81 81 0 0 1-10 13l-15 13c-1 1 1 3 2 2Zm39-16c8-5 9-17 9-25a2 2 0 0 0-3 0 52 52 0 0 1-1 12c-1 4-3 8-6 11-2 1 0 3 1 2Zm343 70 5-16 11-14 27-23 16-13c2-1 0-3-2-2l-30 23a174 174 0 0 0-13 12l-11 14-6 18c-1 2 2 2 3 1Zm-23 40v-1h1c-1 0 0 0 0 0v-1a27 27 0 0 1 2-2l4-4a2 2 0 0 0-2-2l-8 8a2 2 0 1 0 3 2Z" class="cls-17"/>
  <path d="M1072 106c8-4 14-10 21-15l22-16a2 2 0 0 0 0-2 2 2 0 0 0-2-1l-22 16c-7 6-13 12-20 16-2 1 0 3 1 2Z" class="cls-17"/>
  <path d="M1014 180c7-6 16-11 21-18 6-9 10-19 14-29a122 122 0 0 1 15-23 124 124 0 0 1 21-21 136 136 0 0 1 31-19 2 2 0 0 0 1-1 2 2 0 0 0-2-1 146 146 0 0 0-51 36 118 118 0 0 0-15 23l-13 28a46 46 0 0 1-11 13 134 134 0 0 1-13 9c-2 1 0 4 2 3Z" class="cls-6"/>
  <path d="M1089 87a2 2 0 0 0 0-3 2 2 0 0 0 0 3Zm-53 67a2 2 0 0 0 0-3 2 2 0 0 0 0 3Zm24-10c2-6 3-11 6-16a107 107 0 0 1 10-14c6-8 14-15 22-22l14-12c2-1 0-3-2-2l-24 21a110 110 0 0 0-11 12 133 133 0 0 0-10 13 49 49 0 0 0-4 9l-4 9c-1 2 2 3 3 2Z" class="cls-6"/>
  <path d="M1105 87c-7 7-12 16-19 24-1 1 1 3 2 2 7-8 12-17 19-24 1-2-1-4-2-2Z" class="cls-6"/>
  <path d="m1067 150 16-30 8-14 9-13a80 80 0 0 1 12-13c1-2-1-4-2-2-8 7-14 16-20 25l-9 13-8 15-9 17c-1 2 2 3 3 2Z" class="cls-6"/>
  <path d="M1378 413c8 0 18-11 19-18 1-10-8-19-8-28a2 2 0 0 1 2-2c11 1 13-1 25 5 10 5 19 14 29 21 12 9 21 22 27 28 7 7 34 43 19 43h-12a53 53 0 0 1-14-5c-8-4-19-15-27-19l-24-13c-8-4-15-10-24-10" style="fill:url(#Gradiente_sem_nome_45)" transform="translate(-323 -157)"/>
  <path d="M1093 254c11 5 22 11 31 18 2 2 4 0 3-2-10-8-22-13-33-19-1-1-3 2-1 3Z"/>
  <path d="M1075 230c10 9 22 16 33 23a137 137 0 0 1 30 27 151 151 0 0 1 11 15c1 1 3 0 2-2a145 145 0 0 0-22-27c-11-10-22-17-34-24a153 153 0 0 1-18-14c-2-1-4 1-3 2Zm27 4a115 115 0 0 1 20 14l17 17c1 2 3-1 2-2-12-12-23-23-37-32a2 2 0 0 0-2 3Zm-3-14a12 12 0 0 0 4 2 2 2 0 0 0 2 0 1 1 0 0 0 0-1 2 2 0 0 0-1-2 10 10 0 0 1-1 0 11 11 0 0 1-2-1 2 2 0 0 0-1 0 2 2 0 0 0-1 2Z"/>
  <path d="M1022 239c16 2 32 7 47 14l24 11c8 4 17 7 24 12l24 16c1 0 3-2 1-3l-21-14-23-13-26-11-22-9a141 141 0 0 0-28-6c-2-1-2 2 0 3Zm20-9 14 4a2 2 0 0 0 2-1 2 2 0 0 0-1-2l-14-3c-2-1-3 2-1 2Z" class="cls-6"/>
  <path d="M715 353c3 12 12 21 19 31s14 20 24 28l15 14 15 13a174 174 0 0 0 68 42c2 0 3-2 1-3a256 256 0 0 1-33-15 117 117 0 0 1-15-10l-15-13-30-26c-10-8-18-18-25-28l-12-16c-4-5-7-12-9-18a2 2 0 0 0-3 1Z"/>
  <path d="m728 364 1 1a17 17 0 0 1 1 1h1v1a14 14 0 0 1 1 1 2 2 0 0 0 2 1 2 2 0 0 0 1-2 18 18 0 0 0-6-6 2 2 0 0 0-1 0 1 1 0 0 0-1 1 1 1 0 0 0 0 1 2 2 0 0 0 1 1Zm30 28c13 13 29 24 45 34s33 18 49 27l29 14c1 1 3-2 1-2l-50-26c-16-9-32-18-48-29a229 229 0 0 1-24-20c-1-1-4 1-2 2Zm-18-31c9 5 17 13 26 19 8 7 18 12 28 18l14 9a150 150 0 0 0 13 7c9 5 19 9 28 12l32 13c1 1 3-1 1-2-18-10-38-15-56-23-10-5-18-11-27-17l-29-17c-9-7-18-16-28-22-2-1-3 2-2 3Zm36 87c12 7 22 16 33 24a100 100 0 0 0 17 9l21 8a131 131 0 0 0 23 5c2 1 2-2 0-3-14-1-28-6-41-12a105 105 0 0 1-17-9l-16-12a129 129 0 0 0-18-12c-2-1-4 1-2 2Zm124 47c7 4 15 4 22 5l23 2v-3l-22-2c-7 0-15-1-21-4-2-1-3 1-2 2Z"/>
  <path d="M708 352c7 21 17 41 30 60a215 215 0 0 0 48 48 279 279 0 0 0 62 35 253 253 0 0 0 33 10 258 258 0 0 0 36 7l39 1c10 0 20 1 29-1a21 21 0 0 0 6-2c1 0 0-3-2-2-4 2-8 2-12 2h-15l-14-1h-21c-13 0-25-2-38-5a261 261 0 0 1-33-9 266 266 0 0 1-61-32 223 223 0 0 1-85-112c0-2-3-1-3 1Z" class="cls-6"/>
  <path d="M746 408a166 166 0 0 0 14 14l14 14a266 266 0 0 0 30 23 202 202 0 0 0 18 11c2 1 3-2 2-3a213 213 0 0 1-32-20l-14-12-14-13-16-16c-2-1-4 1-2 2Z" class="cls-6"/>
  <path d="m717 355-2-4-3 1c10 19 24 36 39 52l23 24a222 222 0 0 0 26 22l33 21c1 1 3-2 1-3l-28-18a205 205 0 0 1-27-22c-16-15-31-30-45-48a196 196 0 0 1-20-30 2 2 0 0 0-2 1l2 6c1 1 4 0 3-2Zm6-3c18 12 31 29 48 43a110 110 0 0 0 15 10 2 2 0 0 0 1-3c-19-11-32-28-48-42a122 122 0 0 0-14-11c-2-1-3 2-2 3Z" class="cls-6"/>
  <path d="M782 438c8 12 15 36 44 46-5 0-18-3-23-5-6-2-13-8-19-11s-7-16-7-20c-2-31 8-51 5-23" style="fill:url(#Gradiente_sem_nome_46)" transform="translate(-323 -157)"/>
  <path d="m788 475 9 9 15 7c8 3 20 8 29 8-5 10-29 12-38 8-10-5-18-21-16-32" style="fill:url(#Gradiente_sem_nome_47)" transform="translate(-323 -157)"/>
  <path d="M818 504h1a2 2 0 0 0 0-3h-1a2 2 0 0 0 0 3h1a2 2 0 0 0 0-3h-1a2 2 0 0 0 0 3Z" style="fill:url(#Gradiente_sem_nome_46-2)" transform="translate(-323 -157)"/>
  <path d="M836 502v-1" style="fill:url(#Gradiente_sem_nome_46-3)" transform="translate(-323 -157)"/>
  <path d="M734 511c19-3 42 6 59 13 19 9 42 18 63 18a65 65 0 0 0 30-7c-18 13-42 17-64 19-9 1-22 3-31 0-10-3-17-14-25-20-10-8-21-17-32-23" style="fill:url(#Gradiente_sem_nome_47-2)" transform="translate(-323 -157)"/>
  <path d="M663 528c-6 0-7-3-3-10 3-5 7-9 11-11 8-4 17-4 26-1a81 81 0 0 1 13 5c2 1 10 4 10 7 0 6-22 3-25 2-6 0-12-3-18-1-5 2-12 8-17 8" style="stroke:#000;stroke-miterlimit:10" transform="translate(-323 -157)"/>
  <path d="M461 273c4 9 8 19 14 27s15 16 25 20c6 2 12 0 18-1 2-1 1-3-1-3-5 1-10 2-15 1s-9-4-13-7c-8-7-14-15-18-24l-7-15c-1-2-4 0-3 2Zm77 29c11-9 22-23 22-39a31 31 0 0 0-4-13c0-1-3 0-2 2 6 13 0 28-9 39a61 61 0 0 1-9 8c-1 1 0 4 2 3Zm20-14 1-2a1 1 0 0 0 0-1 1 1 0 0 0-1-1 2 2 0 0 0-1 0 2 2 0 0 0-1 1l-1 2a1 1 0 0 0 0 1 1 1 0 0 0 1 1 2 2 0 0 0 2-1Z" class="cls-6"/>
  <path d="M563 277c2-2 3-5 3-9a50 50 0 0 0-2-10l-9-24-8-14c-1-2-3-1-3 1 8 14 17 28 18 45 1 3 1 7-1 9-1 2 1 4 2 2Zm1-73 5 7a40 40 0 0 1 7 7 103 103 0 0 1 7 10l6 11a126 126 0 0 1 8 23 76 76 0 0 1 3 24c0 8-2 17-5 25 0 2 3 3 3 1 3-7 4-15 5-23a76 76 0 0 0-2-24 130 130 0 0 0-8-23 172 172 0 0 0-12-22 36 36 0 0 0-7-9l-8-8c0-1-3-1-2 1Z" class="cls-6"/>
  <path d="M357 273a81 81 0 0 1 2-47 66 66 0 0 1 30-35c4-2 8-4 11-1l10 7a2 2 0 0 0 2-3l-10-7a12 12 0 0 0-9-1c-5 1-9 4-12 7a67 67 0 0 0-10 8 74 74 0 0 0-19 44 86 86 0 0 0 2 28c0 2 3 1 3 0Z"/>
  <path d="M408 195c7 3 12-5 16-9l10-8a115 115 0 0 1 14-7c19-9 39-16 59-22 10-3 20-4 29-10 2-1 0-4-1-2-8 5-17 6-26 8l-29 10c-19 6-38 13-54 25l-9 8c-2 3-5 5-9 4-1-1-2 2 0 3Zm356-58c8 2 16 1 24 2l24 5c2 0 3-3 1-3l-25-4c-7-2-16-1-23-3-2 0-3 3-1 3Z"/>
  <path d="m776 142 13 1a85 85 0 0 0 12 1h11a30 30 0 0 1 9 2c2 0 3-3 1-3a31 31 0 0 0-10-2h-11a88 88 0 0 1-12-1l-13-1c-2 1-2 4 0 3Z"/>
  <path d="M811 143a6 6 0 0 1 1-1h3a63 63 0 0 1 6 1l17 2 38 9 13 4c1 0 2-3 0-3l-11-3-18-5a358 358 0 0 0-45-8 16 16 0 0 0-5 1c-1 0-1 3 1 3Zm-18 232c5 1 13-5 18-7l22-12c21-10 41-22 62-33l24-18c-15 13 6 1 9-3-39 25-82 35-125 55-10 4-31 3-40 6 6 5 25 11 31 13"/>
  <path d="M774 363c7 2 12 7 19 10 1 0 3 0 2-2l-6-8-2 2a66 66 0 0 0 9 5l-1-2-1 5a2 2 0 0 0 2 1 7 7 0 0 0 3-3c1-2-1-3-2-2a4 4 0 0 1-2 2l2 2 1-4-1-2a62 62 0 0 1-8-4 2 2 0 0 0-2 2l5 7 3-2-20-10a2 2 0 0 0-1 3Z"/>
  <path d="M656 521c0 7 3 5 8 2 4-3 9-6 14-6 9-1 18 2 28 1 2 0 4 2 6 1l13-3c5 1-9 8-10 9-10 5-20 1-31 0-7 0-10 3-16 5-5 3-13 7-16-1" style="fill:#db7d1f" transform="translate(-323 -157)"/>
  <path d="M331 363c0 2 0 5 2 7 2 1 4 0 5-1l7-5a24 24 0 0 1 10-3c7-1 15 1 23 1h5l4 2c1 1 3-1 5-1a597 597 0 0 1 8-3h1c1 0 0 0 0 0v-1a12 12 0 0 1-1 2 32 32 0 0 1-5 3c-4 2-7 4-12 4-7 1-14-1-21-2a25 25 0 0 0-10 2l-10 4a23 23 0 0 1-7 3 5 5 0 0 1-5-3c-1-2-4-1-3 1l5 5a12 12 0 0 0 7-1l16-7c7-2 14 1 22 1a30 30 0 0 0 11-1 36 36 0 0 0 6-2l9-6v-4l-4-1-11 4-3-1a14 14 0 0 0-5-1 119 119 0 0 1-12 0c-8-1-15-2-22 2a55 55 0 0 0-8 5 10 10 0 0 1-3 1 9 9 0 0 1-1-4 2 2 0 0 0-3 0Z"/>
  <path d="M364 238c5-15 12-37 27-45 5 5 1 11 10 14 8 2 14-5 21-9 15-8 37-19 55-18-21 11-41 23-57 41-3 4-8 14-13 17-10 5-1-17 0-22-10 2-21 5-29 12-4 3-6 8-9 11-3 2-7 2-4-4" class="cls-5"/>
  <path d="M537 397c8-1 5-1 12-6 6-6 34-17 42-23l22-19c8-13 8-18 13-28s9-21 11-32c2 7 0 19-2 26-2 10-5 20-10 28-13 21-36 36-55 45-10 4-24 9-31 8m-53 15a21 21 0 0 1 11-2c3 0 10 0 13 2s7 1 11-1c4-1 8-4 11-7a105 105 0 0 1-8 9c-3 4-6 4 0 7 7 3 15 5 24 5l7 1h7c-2 10-27 9-34 8a24 24 0 0 1-18-10c-2-3-2-3-5-3l-8 1c-2-1-16-5-11-9" style="fill:#7a5218"/>
  <path d="M632 292c0-9 1-19-1-27-2-9-6-16-11-23l-7-12a2 2 0 0 0-3 2l13 20a59 59 0 0 1 6 24v16a2 2 0 0 0 3 0Zm-47 102c5 4 12 6 18 6a28 28 0 0 0 10-1l11-3c4-1 7-2 10-5 1-1-1-4-2-2l-8 4-10 3a27 27 0 0 1-10 1 41 41 0 0 1-9-1 30 30 0 0 1-9-4c-1-1-3 1-1 2Zm-53 11c-3 2-7 5-8 9a2 2 0 0 0 0 2c5 3 13 4 19 5a61 61 0 0 0 10 0 60 60 0 0 0 13-3l13-4c2-1 1-4 0-3-8 3-16 6-24 7a51 51 0 0 1-10 0 80 80 0 0 1-10-1 26 26 0 0 1-9-4v2l8-8a2 2 0 0 0-3-2Zm38 19a61 61 0 0 0 13 1 42 42 0 0 0 12-2l13-5c4-1 7-4 11-4 2-1 1-4-1-3l-11 4-12 5a41 41 0 0 1-12 2 56 56 0 0 1-12-1c-2 0-3 2-1 3Zm59-12c6 4 14 2 19 0 7-2 14-5 20-9a55 55 0 0 0 10-8c1-2-1-4-2-3a51 51 0 0 1-18 13l-8 3a55 55 0 0 1-10 3c-3 1-6 0-9-1-2-1-3 1-2 2Zm64-22c6-4 10-10 12-17 0-2-2-3-3-1-2 6-5 12-11 16a2 2 0 0 0 0 2 2 2 0 0 0 2 0Zm-7-34c7-3 11-8 13-14 3-7 3-14 3-22a86 86 0 0 0-1-13c0-2-3-2-3 0a93 93 0 0 1 1 23c-1 6-3 12-6 17a16 16 0 0 1-7 6c-2 0-1 3 0 3Zm24-45c9-9 14-22 14-35a40 40 0 0 0-2-11c-1-2-4-1-3 1 5 15 0 32-11 43-2 1 0 3 2 2Zm358-140 22-26a188 188 0 0 0 18-29 45 45 0 0 0 4-15c1-2-2-2-3 0-1 10-6 19-11 27-6 10-13 18-20 27a123 123 0 0 1-12 14c-1 1 1 3 2 2Z" class="cls-6"/>
  <path d="m531 142 13-10a88 88 0 0 0 14-17l12-19 15-20 33-37c10-11 21-21 33-27a83 83 0 0 1 17-7c5-2 11-3 16-1a12 12 0 0 1 4 2c1 1 3-1 2-2-5-4-11-4-16-4a63 63 0 0 0-18 6c-13 6-24 14-34 24l-16 18-18 19-16 21-13 19c-4 6-8 14-13 19a50 50 0 0 1-6 6l-7 5-4 3c-1 1 1 3 2 2Z"/>
  <path d="M689 528c6 0 11 2 16 1l9-1c5-3 10-10 13-8l12 8c7 4 12 10 17 16l17 19c2 2 5 4 4 7 0 4-6 8-9 9-7 4-18 2-25-1-4-1-9 0-12-3a97 97 0 0 1-8-9c-11-13-19-30-34-38" style="fill:url(#Gradiente_sem_nome_48)" transform="translate(-323 -157)"/>
  </g>
  <g id="keyboard">
  <path d="M331 691c38 18 75 41 113 60l88 47c34 18 68 33 100 52q20 12 41 22c11 5 23 14 36 17-1-11 4-22 2-32s-18-16-28-21l-89-50c-60-33-122-63-183-95-28-15-56-32-86-42 0 11 0 31 5 42" style="fill:#a4ccf4" transform="translate(-323 -157)"/>
  <path d="M7 535c25 12 49 26 74 39l74 40c24 13 49 27 74 39a1252 1252 0 0 1 112 59l18 9a176 176 0 0 0 17 9 63 63 0 0 0 9 3 2 2 0 0 0 2-1c-1-8 1-15 2-22 1-6 1-12-2-17-4-4-8-7-13-9l-15-7-86-49-87-45-89-46c-28-14-55-31-84-43l-11-4a2 2 0 0 0-2 1 169 169 0 0 0 1 22c0 7 1 15 5 21 0 2 3 0 2-1-3-7-4-14-5-21a172 172 0 0 1 0-21l-2 2c30 11 57 27 84 41l87 45 86 45 85 48 19 10 15 7c4 2 8 6 9 10 2 8 0 15-2 22a57 57 0 0 0 0 11l2-2c-13-3-23-11-35-16l-37-20-75-39-74-39-37-20-37-19-73-40-10-4c-1-1-3 2-1 2Z"/>
  <path d="M3 490v1a2 2 0 0 1 0-1v1a3 3 0 0 1 0-1 4 4 0 0 1 1 0H3a5 5 0 0 1 1 0h1a2 2 0 0 0 1 0 2 2 0 0 0 1-1 2 2 0 0 0-1-1 2 2 0 0 0-1-1 7 7 0 0 0-2 0 4 4 0 0 0-2 1 4 4 0 0 0-1 1 2 2 0 0 0 0 1 2 2 0 0 0 2 1 2 2 0 0 0 1-1Z"/>
  <path d="M327 647c6 3 34-14 42-17l55-22c14-6 28-14 44-11 18 3 36 9 52 17 40 18 81 36 122 52l64 32c21 10 43 17 63 27l57 27c15 7 34 13 47 23-4 9-16 11-25 15l-28 11c-20 7-39 15-58 24-16 7-33 17-49 22-15 5-34-12-46-19-34-21-72-34-105-56-36-24-79-41-119-59a646 646 0 0 1-67-34c-8-5-54-25-50-32" style="fill:#fce9c8" transform="translate(-323 -157)"/>
  <path d="M2 491c4 1 9-1 12-2a174 174 0 0 0 18-8l13-7 30-11 29-12c9-4 18-9 28-10 11-1 21 2 31 5a230 230 0 0 1 30 10l59 27 60 25 57 28 28 13 29 11 59 29 27 12c8 3 17 6 26 11a72 72 0 0 1 11 7l-1-2c-4 8-14 10-21 13l-34 13a688 688 0 0 0-66 28l-32 16c-5 1-9 3-14 2a38 38 0 0 1-12-4l-22-14a301 301 0 0 0-29-16c-20-10-41-19-60-31l-29-17-30-17c-41-21-85-37-126-58l-23-13-14-8-18-9c-5-2-10-5-13-9l-2-3c1-2-1-3-2-1-2 3 2 6 4 8l15 10 31 16c21 11 42 23 65 33l64 28a562 562 0 0 1 62 34c19 13 41 23 62 33l31 17 24 15c7 4 15 9 24 10a264 264 0 0 0 29-10l33-17 36-15 35-13 15-6a70 70 0 0 0 12-5 20 20 0 0 0 8-8 2 2 0 0 0 0-2c-14-11-32-16-48-23l-59-29c-19-9-39-15-58-24l-56-28-60-26-61-26c-19-9-38-17-58-22-10-2-19-2-28 1l-27 11-31 12-23 9c-11 5-22 13-33 16H4c-2-1-3 2-2 3Z"/>
  <path d="M709 845c-3 10-9 27-5 38 4 10 13 5 21 0a216 216 0 0 1 25-11c39-15 77-30 113-53 10-6 11-10 12-21 0-7 4-20-3-25-10 9-21 13-33 18-17 9-38 14-55 22-16 8-29 18-46 23-9 3-22 7-28 13" style="fill:#9b9fbf" transform="translate(-323 -157)"/>
  <path d="M384 687c-2 8-5 16-6 25a35 35 0 0 0 0 12c1 4 3 7 7 9 3 1 6 0 9-1l12-6 29-13a889 889 0 0 0 87-39l14-8 10-7a19 19 0 0 0 5-8 39 39 0 0 0 2-10c0-7 3-15 0-22a10 10 0 0 0-3-4 2 2 0 0 0-2 0c-9 8-21 12-32 17l-34 14-18 7a182 182 0 0 0-16 8c-11 6-21 12-32 16l-17 6c-5 2-10 4-14 8-1 1 1 3 2 2 4-4 8-6 13-7l14-5c12-4 22-10 32-16l16-8 18-7c11-5 23-8 35-14 12-5 25-10 35-19h-2c2 2 3 6 3 9a69 69 0 0 1-1 10c0 6 0 13-4 18a29 29 0 0 1-7 7 319 319 0 0 1-40 22c-19 9-37 17-56 24l-28 11-14 7-10 5c-3 0-6 1-8-2s-2-7-2-11c0-8 2-16 4-24l2-5c1-2-3-3-3-1Zm-96-122a2 2 0 0 0 0-3 2 2 0 0 0 0 3Z"/>
  <path d="M387 669c4-12-17-17-27-21-16-7-31-17-46-26l-52-29-53-32-25-14-10-3c-3 0-5 5-8 6 4-8 12-8 20-12l29-12c7-3 15-8 21-9 8-1 22 6 29 9 47 17 91 41 134 65 20 11 41 21 61 33-4 5-15 8-20 10a358 358 0 0 0-56 25l2 10c3 3 9-2 12-4l23-12a428 428 0 0 1 51-19c-5-3-8-12-14-8" class="cls-29"/>
  <path d="M388 670c4-12-13-18-21-21-17-6-32-16-47-25l-54-30-52-32-26-15a77 77 0 0 0-10-4 8 8 0 0 0-5 0 9 9 0 0 0-4 2l-4 4 2 2c2-4 5-6 9-8l13-4 16-7 15-6 13-7h11c9 2 17 6 25 9a653 653 0 0 1 62 28l60 32c20 11 41 21 61 33l7 4-1-2c-2 3-7 5-10 6l-13 5a327 327 0 0 0-34 14 105 105 0 0 0-17 10 2 2 0 0 0-1 2c1 3-1 11 5 11l7-2 9-5a331 331 0 0 1 43-20l25-8a2 2 0 0 0 1-3l-7-7a7 7 0 0 0-9-2c-2 1 0 4 1 3 3-1 5 0 7 2l6 6 1-2a444 444 0 0 0-63 24l-10 6-7 4c-1 1-4 2-5 0l-1-8-1 2a365 365 0 0 1 50-24l14-5c4-2 9-4 12-8a2 2 0 0 0-1-2c-20-12-41-22-62-33-20-11-40-23-61-33l-62-29-14-5-12-4c-4-2-8-3-12-2-4 0-9 2-13 4l-6 3-8 3-16 7a144 144 0 0 1-15 6l-11 5a16 16 0 0 0-3 5c-1 1 0 3 1 3a11 11 0 0 0 4-3c1-1 2-3 4-3h4l5 2a245 245 0 0 1 24 14c17 10 33 21 51 30 17 10 35 19 52 30 17 9 33 20 50 28l15 6c4 2 10 5 11 10a8 8 0 0 1-1 3c0 2 3 3 3 1Z"/>
  <path d="M165 550c11 7 24 11 35 17l39 22c30 16 58 34 87 51 15 8 29 18 44 25 4 3 15 10 17 3s-5-13-10-15c-15-8-31-15-47-21-18-7-31-21-47-31-17-13-37-22-56-31l-27-15c-7-3-16-9-23-10-4-1-7 1-11 2"/>
  <path d="M384 672c2-5-1-10 4-14 5-5 14-8 20-12l42-18c10-4 13 0 20 7-4 4-18 6-24 8a130 130 0 0 0-22 9l-20 11c-5 3-13 8-19 8m92-41c0-4-3-10-2-14 6-1 10-6 15-7s10 5 14 9c-6 6-19 9-27 12m-4-15-9-5c-7-3-7 0-12 4 8 7 17 12 25 17"/>
  <path d="m457 608 15-8c7-1 13 4 19 7" class="cls-29"/>
  <path d="m458 609 1-1h1l3-2 8-4a12 12 0 0 1 8 0l11 6c1 1 3-1 1-2-5-4-11-9-18-8a22 22 0 0 0-6 3l-6 3a21 21 0 0 0-5 2c-1 2 1 4 2 3Z"/>
  <path d="M450 612c1-2 0-10-1-11-3-4-9-6-12-9l-9 6 22 14c-1-5-2-9 2-13 5-5 12-5 15 2-4 4-10 5-13 10"/>
  <path d="M436 593c3 2 9 8 14 9 3 0 11-4 14-6-2-3-10-8-13-9-6-1-9 2-14 4" class="cls-29"/>
  <path d="m435 594 7 6c2 2 5 3 8 3l7-2 8-3a2 2 0 0 0 0-2l-5-5a37 37 0 0 0-7-4 12 12 0 0 0-8-1l-9 4c-2 0-1 3 1 2 3 0 5-2 8-3a9 9 0 0 1 7 0 35 35 0 0 1 6 4l5 4v-2l-7 3-6 2c-3 0-5-2-7-4l-6-5c-2-1-3 2-2 3Z"/>
  <path d="m427 600-5-11c4-2 8-7 12-8 4 0 7 4 9 7l-14 12"/>
  <path d="M421 588c-7 1-13-5-18-8l-20-10-49-26-24-13c7-9 13-6 23-2a969 969 0 0 1 88 43c4 2 12 5 12 9-1 4-9 8-12 8" class="cls-29"/>
  <path d="M421 587c-3 0-7-1-9-3l-9-5-23-11-44-25-25-13v2c3-3 6-6 10-5l11 3a940 940 0 0 1 64 31l16 8 13 7a22 22 0 0 1 5 3l1 3a13 13 0 0 1-5 4 13 13 0 0 1-5 2c-2 0-2 3 0 3 5-1 18-8 11-14-3-3-7-4-10-6l-17-9q-34-19-70-34c-4-2-9-4-14-4s-9 3-12 7a2 2 0 0 0 0 2l23 11 22 13 23 12 23 11 10 6c3 2 7 4 11 4 2 0 2-3 0-3Z"/>
  <path d="M310 534c3-3 37 18 43 21l50 26c7 3 23 7 22 16-8-1-15-7-22-10l-23-12-50-26a221 221 0 0 1-26-14 28 28 0 0 1 4-3"/>
  <path d="M303 536c1-2-2-8-3-11 4-1 8-4 11-6a55 55 0 0 0 5 5c-1-1-7 5-7 6-3 3-3 5-7 5-3 0-8-4-11-5a75 75 0 0 0-11-3c0-4 3-7 4-10 11 5 19 6 20 19"/>
  <path d="M285 518c6-7 22-9 26 1-2 2-9 6-12 6s-10-5-13-7" class="cls-29"/>
  <path d="M286 519c6-6 20-8 24 0v-1a19 19 0 0 1-5 4c-2 1-4 2-6 1a23 23 0 0 1-6-3l-6-4c-2-1-3 2-2 3l7 4c2 1 4 3 7 3l7-1a21 21 0 0 0 6-5 2 2 0 0 0 1-2c-6-10-22-9-29-1-1 1 1 3 2 2Z"/>
  <path d="M277 525a35 35 0 0 0-3-13v2a72 72 0 0 1 10-7h-2l7 6 1-3c-7 1-12 7-14 13h3l-1-8c0-3 2-4 5-5l-2-2c-2 3-4 6-4 9 0 2 2 2 3 2l6-10a2 2 0 0 0 0-2 2 2 0 0 0-2 1l-7 8 3 1 3-8a2 2 0 0 0-2-2c-3 2-6 4-6 8-1 3 1 6 1 9a2 2 0 0 0 3 0c2-5 5-10 11-11a2 2 0 0 0 1-2l-7-7a2 2 0 0 0-2 0 77 77 0 0 0-10 8 2 2 0 0 0 0 2 31 31 0 0 1 2 11c0 2 3 2 3 0Z"/>
  <path d="M246 512c5-5 5-7 12-4a105 105 0 0 0 15 7l3 10c-11-2-21-9-31-13"/>
  <path d="M252 507c4-2 10-9 15-9 4-1 12 5 15 8-7 4-7 8-15 5l-12-6" class="cls-29"/>
  <path d="m253 509 7-6c2-2 4-4 7-4s5 2 8 3a29 29 0 0 1 6 5v-2a66 66 0 0 0-5 4 5 5 0 0 1-4 2l-8-3a58 58 0 0 0-8-4c-2-1-3 2-1 3a66 66 0 0 1 9 4c2 1 5 3 8 3a7 7 0 0 0 5-2l6-5a2 2 0 0 0 0-2 32 32 0 0 0-7-5c-3-2-6-4-9-4s-6 2-8 4l-8 6a2 2 0 0 0 0 2 2 2 0 0 0 2 1Zm-41 20c3 0 5 3 8 5a38 38 0 0 0 10 5 25 25 0 0 1 4 2l5 3h8c3-2 5-5 9-6a2 2 0 0 0 0-2l-6-7v2a17 17 0 0 1 8-6c1 0 2-1 1-2a39 39 0 0 0-17-8 18 18 0 0 0-10 1 57 57 0 0 0-10 5 75 75 0 0 1-11 6c-2 1-1 4 0 3 7-2 13-7 19-10a19 19 0 0 1 9-2 30 30 0 0 1 9 2 33 33 0 0 1 9 5v-3a20 20 0 0 0-9 7 2 2 0 0 0 0 2l6 6v-2l-7 5a8 8 0 0 1-4 2 7 7 0 0 1-3-1l-4-3a25 25 0 0 0-5-2c-3-1-6-2-9-5-3-2-6-5-10-5-1 0-2 2 0 3Z"/>
  <path d="M238 535a36 36 0 0 0 4-1 2 2 0 0 0 1-1 14 14 0 0 0-1-4 2 2 0 0 0-2-1 2 2 0 0 0-1 1 10 10 0 0 1-1 1 9 9 0 0 0-1 2l3 1-2-4-1-2h-1l-1-1v2a29 29 0 0 0 6-5c1-1-1-4-2-2a26 26 0 0 1-6 5 2 2 0 0 0 0 2 15 15 0 0 0 3 3 19 19 0 0 1 1 1 2 2 0 0 0 3 1 11 11 0 0 1 1-2 9 9 0 0 0 1-1h-3v1l1 1v1l2-2a37 37 0 0 1-4 1 2 2 0 0 0 0 3Zm16 2c12 7 25 10 36 15 13 6 24 14 36 20l21 9 19 9c13 6 24 15 36 22l20 12c6 3 13 5 18 9 2 1 4-1 3-2-5-4-11-6-16-8l-9-5-9-5c-13-7-24-16-36-23-13-7-27-12-40-18a181 181 0 0 1-19-10l-18-10c-13-7-28-10-40-18a2 2 0 0 0-2 3Zm-13 8 18 9 17 10 18 10 19 10c24 12 47 27 72 40l21 10c5 2 12 4 16 9 1 1 4-1 2-2-4-4-9-6-14-9l-18-8-37-20-36-20c-6-4-12-6-19-9l-18-11-20-11-19-11c-2-1-3 2-2 3Zm-46-7c14 8 29 12 42 20l10 7a117 117 0 0 0 11 5l21 12 10 6 11 6 10 6 11 6a471 471 0 0 0 44 24c13 6 27 11 39 19l4 3c2 1 3-1 2-3-12-8-25-14-38-20a441 441 0 0 1-44-22l-21-13a221 221 0 0 1-21-12l-11-6-10-6-11-5a104 104 0 0 1-10-6l-10-6-11-6-21-9-5-3a2 2 0 0 0-2 3Z"/>
  <path d="m252 530 11 5a8 8 0 0 1 2 1 5 5 0 0 1 1 3l2-1a47 47 0 0 1-7-3 21 21 0 0 1-7-4l-1 3c2-1 4 1 6 1l6 3 6-3c1-1 2-2 3-1v-2c-1 3-4 5-6 7-1 1 1 3 2 2l7-7a2 2 0 0 0-1-2 5 5 0 0 0-6-1c-1 2-3 4-5 4l-6-3c-2-1-4-2-6-1a2 2 0 0 0-1 2 24 24 0 0 0 7 5 51 51 0 0 0 8 3 2 2 0 0 0 2-2 8 8 0 0 0-1-4 7 7 0 0 0-3-2l-12-6c-2 0-3 2-1 3Z"/>
  <path d="M269 534h2l1 2-1 1c0-1 0 0 0 0l1-1 1-1-2-2v1c0-1 0-1 0 0h-1l-1 2-2 3a2 2 0 0 0 3 0s0 1 0 0c-1 1 0 0 0 0l1-1a17 17 0 0 0 3-3 2 2 0 0 0-2-2l-2 1-1 1a2 2 0 0 0 0 2 2 2 0 0 0 2 0 2 2 0 0 0-1-3 2 2 0 0 0-1 0Z"/>
  <path d="m271 537 4 2 4 2 5 1c2 0 2 3 2 4l1-1h-1l-3-1-6-1a24 24 0 0 1-5-2s1-1 1-1h1c4 3 7 3 11 5v-3l-13-3c-2 0-2 3-1 3a31 31 0 0 0 11 1 18 18 0 0 0 9-4h-2a13 13 0 0 1 2 4l1-2a12 12 0 0 0-5 6h3a11 11 0 0 1 2-7h-3v3c0 2 3 2 3 0v-4a2 2 0 0 0-3-1 14 14 0 0 0-2 9 2 2 0 0 0 3 0 8 8 0 0 1 4-4 2 2 0 0 0 0-1 17 17 0 0 0-3-6 2 2 0 0 0-2 0 14 14 0 0 1-8 4 28 28 0 0 1-9-1v3c5 0 9 3 14 3a2 2 0 0 0 0-3l-6-2a14 14 0 0 1-3-1l-2-2a4 4 0 0 0-4 1c-2 1-3 2-2 4s3 2 5 3a67 67 0 0 0 7 2l4 1a9 9 0 0 0 2 0 2 2 0 0 0 2-2c0-2 0-4-2-6l-5-2-4-1a24 24 0 0 1-3-1 8 8 0 0 1-1 0c-1-2-3 0-2 1Z"/>
  <path d="m285 545 8 5a31 31 0 0 0 9 2c2 1 2-2 1-3-6 0-10-3-14-6l-2 3 11 5a14 14 0 0 1 3 2 4 4 0 0 1 1 2l2-1-7-5-2 3 5 1a7 7 0 0 0 4 0l7-5-2-1v3h3a5 5 0 0 0-1-1 2 2 0 0 0-1-1 9 9 0 0 0-6 6 2 2 0 0 0 1 2c2 1 4-1 5-2l5-4-2-2-7 5a2 2 0 0 0 0 2c2 3 7 4 10 5 2 1 4 2 7 1l5-3-2-3a16 16 0 0 1-3 3l-4 2a2 2 0 0 0-1 2 19 19 0 0 1 0 2l3-1a14 14 0 0 1-3-2 16 16 0 0 0-3-3l-7-3-1 2a68 68 0 0 0 12 5 2 2 0 0 0 0-3 63 63 0 0 1-11-4 2 2 0 0 0-1 2l7 4a12 12 0 0 1 2 2 12 12 0 0 0 3 3 2 2 0 0 0 3-2 25 25 0 0 0-1-3l-1 2 8-5c2-2 0-4-2-3l-4 3-5-1-4-2-4-2-1 2 7-5a2 2 0 0 0-1-3l-5 4c-1 1-2 3-4 2l1 2a6 6 0 0 1 4-4l-1-1a5 5 0 0 1 0 1c1 2 2 1 3 0v-5l-2-1-7 5a4 4 0 0 1-3 0l-4-1a2 2 0 0 0-1 2l8 6a2 2 0 0 0 2-2 7 7 0 0 0-1-4 8 8 0 0 0-3-2l-12-6c-2-1-4 2-2 3 5 2 9 5 15 6v-3a28 28 0 0 1-8-2 18 18 0 0 1-6-4c-2-2-4 1-3 2Z"/>
  <path d="M311 557h-1a2 2 0 0 0-1 2c0 2 2 3 4 4a54 54 0 0 1 5 3 2 2 0 0 0 2 0 2 2 0 0 0-1-2 48 48 0 0 0-4-3l-2-1-1-1-1-1 1 1a1 1 0 0 1 0-1l-1 2c-1 0 0 0 0 0a2 2 0 0 0 1-2 2 2 0 0 0-1-1Zm12 8 8-8a2 2 0 1 0-2-3l-8 9a2 2 0 0 0 0 2 2 2 0 0 0 2 0Z"/>
  <path d="m322 564 11 4 1-2c-4-1-6-3-9-5a2 2 0 0 0-2 1l-2 3a2 2 0 0 0 1 2 2 2 0 0 0 2-1 2 2 0 0 1 1-1c-1 1 0 0 0 0h1v1l4 2 2 1h1c1 0 0 0 0 0v1a12 12 0 0 1 1 2l2-1-12-7a2 2 0 0 0-1 2l12 7 2-1a10 10 0 0 0-1-4 6 6 0 0 0-3-2l-3-2a11 11 0 0 0-4-2 4 4 0 0 0-5 3l3 1 2-3-3 1 5 3a13 13 0 0 0 6 2c1 0 2-3 0-3a21 21 0 0 0-5-2l-3-1a8 8 0 0 1-1-1 8 8 0 0 1-1 0 2 2 0 0 0-2 0 2 2 0 0 0 0 2Z"/>
  <path d="M334 569c2 1 3 0 5-2a29 29 0 0 0 3-3 14 14 0 0 1 1-1 2 2 0 0 0 0-3 2 2 0 0 0-2 0l-3 4a12 12 0 0 1-2 2h-1c-1 0 0 0 0 0a2 2 0 0 0-1 3Z"/>
  <path d="M339 571c0-1 0 0 0 0v-1a11 11 0 0 1 1-1v-1l1-1 3-3a2 2 0 1 0-2-2l-6 8a2 2 0 0 0 1 2 2 2 0 0 0 2-1Z"/>
  <path d="M337 570c1 2 4 3 7 4l1 1a10 10 0 0 1 2 1l1 1v-1 1a6 6 0 0 1 0 1l3-1c-4-4-10-5-14-8a2 2 0 0 0-2 0 2 2 0 0 0 0 2 49 49 0 0 0 7 4 20 20 0 0 1 7 4 2 2 0 0 0 2 0 2 2 0 0 0 0-1c0-4-3-5-6-6l-1-1h-1l-1-1h-1s0-1 0 0l-1-1s0-1 0 0a2 2 0 0 0-2-1 2 2 0 0 0-1 2Z"/>
  <path d="M337 570a5 5 0 0 0-2 1 2 2 0 0 0 0 2c1 2 3 3 5 3a37 37 0 0 0 6 2 2 2 0 0 0 2-1 2 2 0 0 0-1-2 40 40 0 0 1-6-1l-1-1h-1a6 6 0 0 1-1-1c1 0 1 1 0 0v-1l-1 2h1a2 2 0 0 0 1-2 2 2 0 0 0-2-1Z"/>
  <path d="M348 576a2 2 0 0 0 1 1 1 1 0 0 0 2 0 15 15 0 0 0 2-2 23 23 0 0 1 2-2s-1 0 0 0l1-1h-1 1v1s0-1 0 0a6 6 0 0 1 1 0 2 2 0 0 0 2-2 6 6 0 0 0-3-2 4 4 0 0 0-3 1 14 14 0 0 0-2 2l-1 1-1 1h2c-1 0-1 0 0 0a3 3 0 0 0-1 0 2 2 0 0 0-2 0 2 2 0 0 0 0 2Z"/>
  <path d="m353 577 6-4-2-3c-2 3-5 5-3 9l5 3a58 58 0 0 0 7 3v-3l-15-6a2 2 0 0 0-2 2l7 5 9 4a2 2 0 0 0 2-2l-1-2-3 2 2 2c1 1 3 0 3-1 0-3 1-8 4-6v-3a23 23 0 0 0-5 4 41 41 0 0 0-3 5c-1 2 1 3 2 2a25 25 0 0 1 8-8 2 2 0 0 0 0-3c-6-2-10 4-9 9l2-1-1-2c-1-1-4 0-3 2l1 2 2-2-8-4c-2-1-5-2-6-5l-2 3 16 6c1 1 2-2 0-3a51 51 0 0 1-5-2 29 29 0 0 1-4-3l-1-1 3-3a2 2 0 0 0-2-3l-4 4v3Z"/>
  <path d="m367 585 5 3a31 31 0 0 0 4 2h2a8 8 0 0 1 1 1 3 3 0 0 0 1 0v3l2-2c-5-3-9-7-15-9a2 2 0 0 0-1 1 2 2 0 0 0 0 2c5 3 8 7 13 9 2 0 3-3 1-3a18 18 0 0 1-6-4 73 73 0 0 0-6-5l-1 3c5 2 9 6 13 9a2 2 0 0 0 3-1v-3a4 4 0 0 0-1-2 8 8 0 0 0-4-2 53 53 0 0 1-9-4c-2-1-4 1-2 2Z"/>
  <path d="m383 587-1 1 1 2a10 10 0 0 1 1-1h1v-1a28 28 0 0 1 3-1l-2-1a21 21 0 0 0 3 3l1-3a15 15 0 0 0-4 2 11 11 0 0 0-4 3 2 2 0 0 0 0 2 2 2 0 0 0 2-1h1a4 4 0 0 1 0-1s0 1 0 0a14 14 0 0 1 2-1h2a10 10 0 0 1 2-1 1 1 0 0 0 1-1 2 2 0 0 0-1-2h-1v-1l-1-1a2 2 0 0 0-2 0 18 18 0 0 0-6 4 2 2 0 0 0 1 3 3 3 0 0 0 1-1h1a2 2 0 1 0-1-3Z"/>
  <path d="M382 592c4 4 10 5 13 9v-2a19 19 0 0 0 0 6h2a28 28 0 0 0-6-7 84 84 0 0 0-8-6l-2 3c5 2 8 6 13 7a2 2 0 0 0 2-1 2 2 0 0 0-1-2c-5-1-8-5-12-7a2 2 0 0 0-2 3 78 78 0 0 1 8 5 25 25 0 0 1 6 6 2 2 0 0 0 3-1 17 17 0 0 1 0-5 2 2 0 0 0-1-2 26 26 0 0 0-6-4l-7-4a2 2 0 0 0-2 0 2 2 0 0 0 0 2Z"/>
  <path d="M399 599a31 31 0 0 0 7-4l-3-1 1 2h1v1l1-2a11 11 0 0 0-5 2l-4 2a2 2 0 1 0 2 3l4-3a14 14 0 0 1 1-1c1 0 1 0 0 0h1a7 7 0 0 1 2 0 2 2 0 0 0 1-2 18 18 0 0 0-2-3 2 2 0 0 0-2-1 76 76 0 0 1-5 4h-1a2 2 0 0 0-1 2 2 2 0 0 0 1 1Z"/>
  <path d="M398 600c0 2 2 3 3 4l5 2 4 3 1 4 2-1-8-5a25 25 0 0 1-4-2 8 8 0 0 1-1-2 1 1 0 0 1 0-1l-2 2c5 1 8 5 13 7a2 2 0 0 0 2-1c1-3 5-4 7-6 2-1 0-3-1-2-3 2-8 4-9 8l3-1-14-8a2 2 0 0 0-2 1c0 4 4 6 6 7l9 5a2 2 0 0 0 2-1 11 11 0 0 0-1-5 9 9 0 0 0-4-3 39 39 0 0 0-5-3 19 19 0 0 1-2-1 5 5 0 0 1-1 0 2 2 0 0 1 0-1s0 1 0 0h-3Z"/>
  <path d="m415 610 7 5a7 7 0 0 1 1 1s0 1 0 0v1h1s0 1 0 0a7 7 0 0 1 0 1v2a12 12 0 0 1 0 1l2-1-7-4a18 18 0 0 1-3-3v-1s-1 0 0 0a6 6 0 0 1-1-1c0 1 0 0 0 0l-1 1c2 0 3 1 5 3a22 22 0 0 0 4 3 2 2 0 0 0 2 0 2 2 0 0 0 0-2 3 3 0 0 0 0-1 2 2 0 0 0-3 0 2 2 0 0 0 0 2 1 1 0 0 1 1 1l2-2a9 9 0 0 1-2-2l-3-2a9 9 0 0 0-6-3 2 2 0 0 0-2 1c0 3 1 5 3 6a42 42 0 0 0 6 5l3 2a2 2 0 0 0 2-1 7 7 0 0 0-1-8l-5-4h-1a1 1 0 0 1 0-1c0 1 0 0 0 0h-1a12 12 0 0 1-1-1 2 2 0 0 0-2 0 2 2 0 0 0 0 2Z"/>
  <path d="M425 614a1 1 0 0 1 0-1 2 2 0 0 0 0 1 2 2 0 0 0 1 2 2 2 0 0 0 1 0 9 9 0 0 0 3-2l5-3a2 2 0 0 0 0-2 2 2 0 0 0-2 0 20 20 0 0 0-3 2 18 18 0 0 1-2 1h-1c0 1 0 1 0 0a2 2 0 0 1 0 1 5 5 0 0 1-1 0h1l1 1-1 1a3 3 0 0 0 1 0 2 2 0 0 0 0-1 1 1 0 0 0-1-2 2 2 0 0 0-2 2Z"/>
  <path d="M427 614h1a2 2 0 0 0-1 0 2 2 0 0 0-1 1c-1 1 0 2 1 3a30 30 0 0 0 3 1l5 3 3 2a3 3 0 0 1 1 1 5 5 0 0 1 0 2 20 20 0 0 0 0 2h3a12 12 0 0 0-5-8 81 81 0 0 0-8-5l-1 3 5 3a21 21 0 0 1 3 1l1 1v1c0-1 0-1 0 0l2-2-5-2a20 20 0 0 0-5-3 2 2 0 0 0-2 2c0 2 2 3 3 5a51 51 0 0 0 6 3c1 1 3-1 2-2a26 26 0 0 0-5-5 2 2 0 0 0-3 0 2 2 0 0 0 0 2 24 24 0 0 1 5 5l2-2a47 47 0 0 1-4-3 15 15 0 0 1-3-2 4 4 0 0 1 0-2l-2 2 5 3a9 9 0 0 0 6 2 2 2 0 0 0 1-2c0-2-3-4-5-5l-6-3a2 2 0 0 0-2 1 2 2 0 0 0 1 2l7 4a9 9 0 0 1 4 6 2 2 0 0 0 1 2 2 2 0 0 0 2-2v-5c0-2-2-3-4-3l-5-3a34 34 0 0 1-5-3h1v1l-2 1h-1a2 2 0 0 0 2 0c2-1 1-4-1-3Z"/>
  <path d="m442 625 10-4c1 0 1-3-1-3a27 27 0 0 0-4 1 9 9 0 0 0-4 1c-3 3-2 7-2 10 0 1 1 2 2 1l13-7-2-2c-2 2-6 2-9 2l1 2c1-4 7-4 9-1l2-2a19 19 0 0 0-7-2 1 1 0 0 0-1 1 2 2 0 0 0 1 2 45 45 0 0 0 9 3 2 2 0 0 0 2-1 2 2 0 0 0-1-2 45 45 0 0 1-9-3l-1 3a15 15 0 0 1 6 2 2 2 0 0 0 2-2c-3-6-13-5-15 1a2 2 0 0 0 2 2c3 0 8 0 11-3 1-1 0-3-2-2l-12 7 2 1v-4l1-3a7 7 0 0 1 3-1 22 22 0 0 1 3-1v-3a44 44 0 0 0-5 2 18 18 0 0 1-4 2 2 2 0 0 0-2 2 2 2 0 0 0 2 1Z"/>
  <path d="M449 625a6 6 0 0 0-1 1 2 2 0 0 0-1 1 1 1 0 0 0 1 1 16 16 0 0 0 5 1 2 2 0 0 0 1-1 2 2 0 0 0-1-2 16 16 0 0 1-3 0h1a15 15 0 0 1-2-1l1 3a5 5 0 0 1 1-1h-1a2 2 0 0 0 1-1 2 2 0 0 0 0-1 2 2 0 0 0-2 0Zm-200-83c2 3 6 4 9 5a8 8 0 0 1 4 1 3 3 0 0 1 0 2 6 6 0 0 1 1 2l2-1a17 17 0 0 0-4-3l-5-3c-2-1-4-4-8-4a2 2 0 0 0-1 2 12 12 0 0 0 3 5c2 1 4 3 6 2a2 2 0 0 0 1-2 2 2 0 0 0-2-1s-1 0 0 0c0 0-1 0 0 0a2 2 0 0 1-1 0 7 7 0 0 1-2-2 11 11 0 0 1-1-1 10 10 0 0 1-1-1c0-1 0 0 0 0v-1l-2 2c3 0 5 3 7 4l4 2a15 15 0 0 1 4 3c1 1 3 0 3-1a7 7 0 0 0-4-7l-7-3a6 6 0 0 1-1 0 9 9 0 0 1-1-1 6 6 0 0 1-2-1 2 2 0 0 0-2 0 2 2 0 0 0 0 2Z"/>
  <path d="M263 549a45 45 0 0 0 7-4l-2-1a20 20 0 0 0 2 3l1-2c-3 0-5 2-6 3a2 2 0 0 0-1 3l7 3 7 3-1-1 1 6 3-1c-3-5-9-7-14-10l-1 2c4 1 6 6 11 6s7-4 10-6l-1-3a68 68 0 0 0-8 4 2 2 0 0 0 0 3c4 3 9 3 13 5l3 2 1 5 2-1a23 23 0 0 1-6-2 60 60 0 0 1-8-4 14 14 0 0 1-2-2v-1a2 2 0 0 1 0 1h-1 1a11 11 0 0 1 2 1 22 22 0 0 1 3 1 19 19 0 0 1 4 2 9 9 0 0 1 1 1s1 1 0 0v1l2-2c-4-1-8-4-11-7v2l4-4c1-1 4-2 6-1a38 38 0 0 1 3 2 26 26 0 0 0 3 1l5 2v-2c-2 3-6 3-8 6v4a36 36 0 0 1 1 5c0 2 3 2 3 0s1-3 3-4l6-5a2 2 0 0 0 0-2c-3-1-6 0-8 1s-6 4-4 7l4 3 6 3 4 2a3 3 0 0 1 1 1v2l2-2a12 12 0 0 1-3-1 65 65 0 0 1-9-5 15 15 0 0 1-2-2c0-2-3-1-3 1l3 3a47 47 0 0 0 4 3l5 2a15 15 0 0 0 4 2l2-2c-1-2-1-4-3-5a29 29 0 0 0-4-2l-5-3-3-2 1-2a12 12 0 0 1 4-1 5 5 0 0 1 2 0v-3l-6 5c-3 1-4 3-4 6h3a27 27 0 0 0-1-5 19 19 0 0 1 0-2c-1 0 0 0 0 0l7-6a2 2 0 0 0 1-1l-7-4a23 23 0 0 1-3-1 18 18 0 0 0-4-2l-7 2-5 4a2 2 0 0 0 0 2c3 4 8 6 13 8 1 1 1 0 1-1 1-3-3-5-5-6l-9-3a3 3 0 0 0-2 2 3 3 0 0 0 1 3l8 5 6 3a15 15 0 0 0 3 1l2-2a25 25 0 0 0-1-5 7 7 0 0 0-3-4l-14-5v2a68 68 0 0 1 8-4c1-1 0-3-1-3a23 23 0 0 0-5 3l-5 3-5-3a15 15 0 0 0-5-3c-2 0-3 2-2 3 4 3 10 5 14 10 0 1 2 1 2-1l-1-7a1 1 0 0 0-1-1l-6-3-7-2v2c2-1 3-3 5-3a2 2 0 0 0 1-2 14 14 0 0 1-1-2 2 2 0 0 0-2-1 45 45 0 0 1-7 4c-2 0 0 3 1 2Z"/>
  <path d="m313 577 4-3 4-4h-2a15 15 0 0 1 3 2v-2l-9 6a2 2 0 0 0 0 3l11 4a11 11 0 0 1 3 2 2 2 0 0 1 1 1 6 6 0 0 1 0 2l3-1a23 23 0 0 0-8-6l-10-4a2 2 0 1 0 0 3l8 4a21 21 0 0 1 7 5c1 1 3 0 3-1a7 7 0 0 0-1-5 9 9 0 0 0-4-2l-12-5 1 2 8-6a2 2 0 0 0 1-2 19 19 0 0 0-3-2 2 2 0 0 0-2 0l-4 3-2 2a8 8 0 0 1-1 0 3 3 0 0 1 0 1c-2 0-1 3 1 3Z"/>
  <path d="M313 581c1 2 4 3 6 4l4 2h3v1a2 2 0 0 0 2-1 2 2 0 0 0 0-2l-8-3c-2 0-4-1-5-3a2 2 0 0 0-2 0 2 2 0 0 0 0 2Z"/>
  <path d="M327 583c1 1 2 2 3 1a37 37 0 0 1 3-3 56 56 0 0 1 7-3l-2-1c0 1 0 0 0 0l-1 1a13 13 0 0 1-2 2 25 25 0 0 1-5 2 2 2 0 0 0-1 3l13 5c1 1 3 1 3 3v6l3-2-10-7-4-2a9 9 0 0 1-3-3l-1 3c2-1 5 0 7 2a22 22 0 0 1 6 6 2 2 0 0 0 3-1 13 13 0 0 1 4-6l5-4h1-1l-1 2a21 21 0 0 1-3 2 27 27 0 0 1-5 3v2c3 3 7 5 10 6l5 2v2a10 10 0 0 0 1 3l2-1-8-5c-3-1-5-4-6-6l-1 2c-1 0 0 0 0 0a13 13 0 0 1 2 0 29 29 0 0 1 4 2 29 29 0 0 1 4 3 11 11 0 0 1 1 1v1l2-2-15-6c-2-1-3 1-2 2l10 7c2 1 3-2 2-2l-10-7-1 3 16 6a2 2 0 0 0 1-2 7 7 0 0 0-2-3 31 31 0 0 0-5-3 35 35 0 0 0-4-2 8 8 0 0 0-4-1 2 2 0 0 0-1 2c1 3 4 5 7 7l8 5c1 1 3 0 3-1l-1-6-5-3c-4-1-8-3-11-6v3a32 32 0 0 0 6-4 15 15 0 0 0 3-3 5 5 0 0 0 2-3 3 3 0 0 0-3-3c-3 0-5 3-7 4-3 3-5 5-6 9l2-1a25 25 0 0 0-7-7c-2-2-6-3-9-2a2 2 0 0 0-1 2c2 3 5 4 8 6l10 6a2 2 0 0 0 2-1v-6l-4-4a28 28 0 0 0-6-3 70 70 0 0 1-7-3l-1 3c3-1 14-6 10-10a2 2 0 0 0-2 0l-10 7 1-1h1-1c-1-1-3 1-2 2Z"/>
  <path d="m351 590 1-1h1-1l1-1 3-2a2 2 0 0 0 0-3 2 2 0 0 0-2 0v1h-1v1h-1l-3 3a2 2 0 0 0 0 2 2 2 0 0 0 2 0Zm13 11 7-8h-2l3 2v-2a41 41 0 0 1-10 9l2 2a8 8 0 0 1 1 0 10 10 0 0 1 2 1 43 43 0 0 1 5 2l2 2a8 8 0 0 1 3 1v3l-1 3 3-1a25 25 0 0 0-5-3 53 53 0 0 1-7-4 8 8 0 0 1-1-2h-1c0-1 0 0 0 0 1 0 0 0 0 0h1a8 8 0 0 1 1 0 33 33 0 0 1 3 3l7 4a2 2 0 0 0 2 0l10-11h-2l1 2a10 10 0 0 1-3 3l-7 4c-2 2 1 4 2 3 3-3 16-8 10-14a2 2 0 0 0-2 0l-11 11h1l-6-5c-2-1-5-4-7-3s-3 3-1 5l6 5 4 3 2 1a4 4 0 0 1 1 0 2 2 0 0 0 2 0c0-3 2-6 0-8-1-2-4-3-6-4-2-2-9-7-12-3 0 1 1 3 2 2a46 46 0 0 0 11-10 2 2 0 0 0 0-2l-3-1a2 2 0 0 0-2 0l-8 8a2 2 0 0 0 3 2Z"/>
  <path d="M363 604a73 73 0 0 1 10 7l2-2h-1s1 0 0 0l-2-1a31 31 0 0 1-3-1h-1c1 0 0 0 0 0a13 13 0 0 1-2-1l-1-1c-1-1 0 0 0 0s0 1 0 0a2 2 0 1 0-3 1 5 5 0 0 0 2 2 16 16 0 0 0 4 2 23 23 0 0 0 6 2 2 2 0 0 0 2-3 77 77 0 0 0-11-7 2 2 0 0 0-2 2Zm17 10 6 2 6 3a6 6 0 0 0 6-1l5-5a2 2 0 0 0 0-2 21 21 0 0 0-7-4c-2-1-5-3-7-2l-7 5a19 19 0 0 0-5 6 2 2 0 0 0 0 2c6 3 12 3 17 7a2 2 0 0 0 2-1 5 5 0 0 0 2-4 2 2 0 0 0-2-1 29 29 0 0 1-7-2 70 70 0 0 1-8-2c-1-1-2 1-1 2a23 23 0 0 0 6 4c2 1 5 3 7 2 3 0 5-2 7-3l7-7-3-2-8 9a2 2 0 0 0 1 2l9 4 8 4a29 29 0 0 1 6 3c1 2 2 4 1 6h3c-2-6-9-8-14-11l-8-2a24 24 0 0 1-3-2 5 5 0 0 1-3-2l-1 2c6 0 12 3 17 5l9 4 9 5c2 1 3-2 2-2l-10-5-9-5c-6-2-12-5-18-5a2 2 0 0 0-1 2l5 5 8 3a73 73 0 0 1 8 3l6 5a2 2 0 0 0 3 0 8 8 0 0 0-1-7l-6-3-8-5-11-4v2l9-9c1-1-1-4-3-2l-5 6c-1 1-3 3-6 3-2 1-4 0-6-1a21 21 0 0 1-5-4l-1 3c4 2 10 4 15 4l-1-2a3 3 0 0 1-1 2h1c-5-4-11-4-16-7l1 2c0-2 2-4 4-5l5-4c2-1 5 1 7 1a18 18 0 0 1 5 4v-2l-5 5c-2 1-3 0-5-1-4-1-7-4-11-4-2 1-2 4 0 3Z"/>
  <path d="M394 640v-5l-2 1 6 5 8 4 1-3a69 69 0 0 1-8-2 25 25 0 0 1-3-2 9 9 0 0 1-2-2h-1v-1 2c4-2 7-5 11-6a2 2 0 0 0 1-2 2 2 0 0 0-1-1c-5 1-9 5-13 7a2 2 0 0 0 0 2c1 2 4 4 7 5a76 76 0 0 0 8 3 2 2 0 0 0 2-2l-8-5-7-4a2 2 0 0 0-2 1 12 12 0 0 1 0 4 2 2 0 0 0 1 2 2 2 0 0 0 2-1Zm-19-11-1-3-1 2h4l4 3a19 19 0 0 1 4 1v3l3-1-7-3c-2-1-5-2-6-4l-2 2a23 23 0 0 1 8 3c2 1 3 3 5 2a15 15 0 0 0 5-3 29 29 0 0 0 4-3c1-1-1-4-2-2a23 23 0 0 1-4 3 36 36 0 0 1-3 2h-1a1 1 0 0 1 1 0h-1l-3-2a16 16 0 0 0-3-2 43 43 0 0 0-5-1 2 2 0 0 0-2 2l7 5 7 3a2 2 0 0 0 2-1 6 6 0 0 0-1-5 14 14 0 0 0-4-2c-3-1-7-4-10-3a2 2 0 0 0-1 2 34 34 0 0 0 0 3c1 2 4 1 3-1Z"/>
  <path d="M371 624v-1a3 3 0 0 0-1 1 2 2 0 0 0 1 1 2 2 0 0 0 1 1 2 2 0 0 0 1-1 31 31 0 0 1 4-1 54 54 0 0 0 7-4 2 2 0 0 0-2-2l-10 5h1v1c0-1 0-1 0 0h1a2 2 0 0 0-3 0Zm16 11 2 2a38 38 0 0 1 2-3h1c0-1 0 0 0 0v-1a10 10 0 0 1 1 0l1-1a12 12 0 0 1 2 0h1a2 2 0 0 0 0-3 12 12 0 0 0-6 2 23 23 0 0 0-5 4 2 2 0 0 0 0 2 1 1 0 0 0 2 0 5 5 0 0 0 1-1 2 2 0 0 0 0-2 2 2 0 0 0-2 1Z"/>
  <path d="M354 619h-1a8 8 0 0 1 0-1v-2 1l-2 1 10 4a24 24 0 0 1 5 2 9 9 0 0 1 1 2l1 1 2-1a21 21 0 0 0-3-2l-5-2a41 41 0 0 1-5-2 8 8 0 0 1-1-1h-1c0-1 1 0 0 0a1 1 0 0 1 0-1v1a2 2 0 0 0-1-2 2 2 0 0 0-2 2 5 5 0 0 0 3 3 27 27 0 0 0 4 2l6 3a22 22 0 0 1 3 2 2 2 0 0 0 3-2c0-4-5-6-8-8a118 118 0 0 0-11-4 1 1 0 0 0-1 0 4 4 0 0 0-1 1v2l1 4c2 1 4-1 3-3Z"/>
  <path d="m350 617 6-3 6-2 8 3a39 39 0 0 1 8 4c1 1 3-2 1-3a43 43 0 0 0-8-4 29 29 0 0 0-9-3l-7 2-6 3c-2 1-1 4 1 3Z"/>
  <path d="M349 613a2 2 0 0 0-1 2 17 17 0 0 0-1 5 2 2 0 0 0 3 0 30 30 0 0 1 0-4v1a7 7 0 0 1 1-2l-2 1a3 3 0 0 0 1 0h1a2 2 0 0 0 0-2 2 2 0 0 0-2-1Z"/>
  <path d="m332 608 2 2c0 1-1 1 0 0l1-1v-1a2 2 0 0 1 0 1l5 2 3 1a3 3 0 0 1 1 1 2 2 0 0 1 0 1 14 14 0 0 1 0 3l3-2-11-7v3h4l5 2 5-3c1-1 3-2 4-1v-2c-2 2-6 3-8 6-1 2 1 3 3 2 1-3 5-4 7-6a2 2 0 0 0 0-2 5 5 0 0 0-6-1l-4 4c-1 1-4-1-6-2h-6a2 2 0 0 0 0 3l11 7c1 1 2 0 2-1 0-2 1-5-1-6l-5-3c-2-1-4-3-7-2a5 5 0 0 0-2 2l-1 2a2 2 0 0 0 2 1c1 0 1-3-1-3Zm0-3c2 1 4 0 6-1a37 37 0 0 0 4-3l1-1 1-1a2 2 0 0 0 1-2 2 2 0 0 0-3 0l-3 3h-1l-1 1-1 1h-1a6 6 0 0 1-1 0s0 1 0 0h1c1 0 0 0 0 0v1a2 2 0 0 0-3 2Z"/>
  <path d="m320 597 13 7 1-3h-1a20 20 0 0 1-3-1 44 44 0 0 1-6-3 11 11 0 0 1-2-1v-1a3 3 0 0 1 0-1l6-6c1-1 0-3-2-2a51 51 0 0 0-6 5c-2 1-4 3-4 6s2 4 4 6a27 27 0 0 0 7 3c3 1 6 2 8 0a1 1 0 0 0 0-2c-1-3-4-4-7-5l-5-1-2-1a7 7 0 0 1-1 0 2 2 0 0 0-2 2l8 3a24 24 0 0 1 4 1 8 8 0 0 1 2 1s0 1 0 1l1-1a2 2 0 0 1-2 0 9 9 0 0 1-3 0 24 24 0 0 1-6-3 17 17 0 0 1-2-2 3 3 0 0 1-1-1 2 2 0 0 1 0-1l3-4a45 45 0 0 1 6-5l-2-2a63 63 0 0 0-6 5 6 6 0 0 0-1 3 4 4 0 0 0 1 3 14 14 0 0 0 4 3 49 49 0 0 0 5 3 17 17 0 0 0 5 1 2 2 0 0 0 0-3l-13-6c-2-1-3 1-1 2Z"/>
  <path d="M316 594c-1 1-2 3-1 5a6 6 0 0 0 3 3l5 2 6 3a2 2 0 0 0 2-2 19 19 0 0 0-2-2 2 2 0 0 0-2 0 2 2 0 0 0 0 2 19 19 0 0 1 2 2l2-3-11-4a17 17 0 0 1-1-1h-1v-1c-1-1 0 0 0 0v-1a4 4 0 0 1 0-1 2 2 0 0 0 0-2 2 2 0 0 0-2 0Zm40 19a10 10 0 0 1 1-2v1a9 9 0 0 1 1-2 4 4 0 0 1 1 0 2 2 0 0 0 1-1 2 2 0 0 0-2-2 8 8 0 0 0-3 3 14 14 0 0 0-1 1 5 5 0 0 0-1 2 2 2 0 0 0 0 1 2 2 0 0 0 3-1Z"/>
  <path d="m300 590 3-4h-2c4 4 10 6 15 8l-1-1-1 6h3c-2-3-5-5-8-6s-6-3-7-5l-1 1c2-1 5 2 7 3 3 1 5 4 8 4a2 2 0 0 0 2-1 1 1 0 0 0 0-2l-12-4a9 9 0 0 1-2-2l-1-1 1-1 7-4a2 2 0 0 0 0-2 2 2 0 0 0-2-1l-8 6a3 3 0 0 0-1 3 7 7 0 0 0 2 3c4 3 10 4 14 6l1-3a11 11 0 0 1-4-1l-4-3c-3-2-6-4-9-2l-1 1c1 4 4 6 7 7l8 5a2 2 0 0 0 3 0l1-7a1 1 0 0 0-1-1c-4-3-10-4-14-8a2 2 0 0 0-2 0l-4 5a2 2 0 0 0 3 1Z"/>
  <path d="M282 578a4 4 0 0 0-1 0v3l2-2 2-1a7 7 0 0 1 3 1l3 2 7 3 1 1c-1 0 0-1 0 0h-1a22 22 0 0 1-1 4l2-1-7-4-4-2a15 15 0 0 1-3-3v1a8 8 0 0 0 1 0l4 3a45 45 0 0 0 6 4c2 1 4 1 5-1s-1-4-3-4a48 48 0 0 1-7-2 8 8 0 0 1-3-2 27 27 0 0 0-3-3v2a20 20 0 0 1 7-5c3-1 5 1 8 2a2 2 0 0 0 1-3l-5-2a7 7 0 0 0-5 0 22 22 0 0 0-8 6 2 2 0 0 0 0 2 18 18 0 0 1 2 3 9 9 0 0 0 3 3 25 25 0 0 0 8 2 15 15 0 0 1 2 0h1a6 6 0 0 0-1-1h-1l-4-3-5-2-4-2a2 2 0 0 0-1 4 13 13 0 0 0 3 3l4 3 8 4a2 2 0 0 0 2-1 21 21 0 0 0 1-5 3 3 0 0 0-1-3c-2-2-5-2-8-3-2-2-4-4-6-4-3-1-5 2-6 3v3c2 1 3-2 2-2Z"/>
  <path d="m282 578-1-5a7 7 0 0 0-2-3 14 14 0 0 0-2-2c-2-1-4-3-7-3s-4 3-5 4a2 2 0 0 0 0 2c1 2 3 2 5 3a18 18 0 0 1 7 3 2 2 0 0 0 2-1 2 2 0 0 0 0-2 38 38 0 0 0-9-8c-2-1-3 2-2 3l9 5c3 1 7-3 9-4l-1-3c-4 3-6 8-7 12a1 1 0 0 0 1 2 2 2 0 0 0 1 0l8-11a2 2 0 0 0 1-2 2 2 0 0 0-2-1c-4 3-6 8-9 12l3 1c1-4 2-8 6-11 1-1-1-3-2-2l-4 2-4 2-7-5-2 3a35 35 0 0 1 9 7l1-2a21 21 0 0 0-6-3l-5-2v2c1-1 2-3 4-3l5 3c2 1 2 3 2 4a8 8 0 0 0 2 5c1 1 3-1 2-2Z"/>
  <path d="M267 570v-1a2 2 0 0 0 2 2 2 2 0 0 0 1-2c0 1 0 0 0 0a5 5 0 0 1 1-2l2-2 6-5a2 2 0 0 0-2-2l-6 5c-2 1-4 4-4 6h3a3 3 0 0 0 0-1 2 2 0 1 0-3 2Z"/>
  <path d="M265 570c-2-3-2-7-5-9a43 43 0 0 0-6-2l-5 1a2 2 0 0 0-1 3l6 3 6 3a2 2 0 0 0 2-3 32 32 0 0 0-5-4l-1 3a8 8 0 0 0 6 0 13 13 0 0 0 2-2l2-1 1 1a9 9 0 0 1 0 1v1-1a14 14 0 0 0-1 1 22 22 0 0 1-3 2h2a6 6 0 0 1 1-2 29 29 0 0 1 3-2l-2-2-3 2c-2 1 0 4 1 3l5-4c0-2-1-3-2-2-3 2-9 6-5 10a2 2 0 0 0 2 0l3-2a6 6 0 0 0 2-2c1-2 0-4-2-5-1-2-3-2-5-1a15 15 0 0 1-3 2 5 5 0 0 1-4 0c-1-1-2 2-1 3a29 29 0 0 1 5 3l1-2-6-3-5-3-1 3 3-1a3 3 0 0 1 1 0 34 34 0 0 1 5 2c2 1 2 2 2 3a35 35 0 0 0 2 5c1 2 4 0 3-2Z"/>
  <path d="M260 561a49 49 0 0 1-8-5 1 1 0 0 0-2 0l-3 4a2 2 0 0 0 2 2l3-3h-2a50 50 0 0 0 8 4 2 2 0 0 0 2 0 2 2 0 0 0 0-2Z"/>
  <path d="M253 557a4 4 0 0 0 1 0l1-1 4-2a14 14 0 0 0 1-1 2 2 0 0 0 0-3 2 2 0 0 0-2 0c0 1 0 1 0 0v1h-1l-1 1-3 2h-1a1 1 0 0 0-1 2 2 2 0 0 0 2 1Z"/>
  <path d="m245 560-1 1h3c0-3-1-7-4-9a20 20 0 0 0-6-3l-4 2a2 2 0 0 0-1 2l6 2a24 24 0 0 1 3 1l1 1v-1l3 1v-1a7 7 0 0 1 1 0 15 15 0 0 1 3-2 31 31 0 0 1 5-3l-2-2c-2 3-7 4-8 8a2 2 0 0 0 2 2c2 0 3-1 5-3l3-3-2-3a12 12 0 0 1-2 3c-2 1 0 4 1 3a14 14 0 0 0 3-3 2 2 0 0 0-2-3l-3 4a17 17 0 0 1-2 1 5 5 0 0 1-1 1l1 2 3-4a21 21 0 0 0 5-3c1-1-1-3-2-3a33 33 0 0 0-7 4c-2 1-4 3-4 5a2 2 0 0 0 3 1c1-3-2-4-4-5l-4-1-2-1s-1 0 0 0h-1v2l2-1h1a20 20 0 0 1 4 3c3 1 3 4 3 6a2 2 0 0 0 3 1 2 2 0 0 0 0-2 2 2 0 0 0-2 0Z"/>
  <path d="M238 553a8 8 0 0 0 7 6 2 2 0 0 0 0-3c-1 0 0 0 0 0a6 6 0 0 1-1-1 3 3 0 0 0-1 0c1 0 0 0 0 0a9 9 0 0 1-1 0c0-1 0 0 0 0v-1h-1v-1c-1 0-1-1 0 0l-1-1a2 2 0 0 0-3 1Zm29 11a4 4 0 0 0 0 1 2 2 0 0 0 2 0 14 14 0 0 0 3-3v-1c0 1 0 0 0 0h1v-1 1h-1v-1h-1v-1a1 1 0 0 0 0 1 2 2 0 0 0 1 1 2 2 0 0 0 1-1 2 2 0 0 0 1-1 2 2 0 0 0-1-1 2 2 0 0 0-2 0 4 4 0 0 0-1 1l-1 1h1-1v1l-1 1h-1 2a5 5 0 0 1-1 0 2 2 0 0 0-1 0 2 2 0 0 0-1 2 2 2 0 0 0 1 0Zm-34-17a4 4 0 0 0 0 1 2 2 0 0 0 1 2l11-5a2 2 0 0 0-1-3c-6 2-12 3-13 9h2l-1-3v-1h1l5-3a2 2 0 1 0-2-2 2 2 0 0 1-1 0l-2 1a8 8 0 0 0-3 2c-2 2 0 5 1 7a2 2 0 0 0 2 0 6 6 0 0 1 1-1 5 5 0 0 1 1-2 8 8 0 0 1 2-2 38 38 0 0 1 7-2l-1-3-10 6 2 2a5 5 0 0 1 0-1 2 2 0 0 0-2-2Z"/>
  <path d="M230 546a26 26 0 0 0-3-2l-1-1h-1v-1a7 7 0 0 1-1 0 2 2 0 0 0-1 0 14 14 0 0 0-3 2 2 2 0 0 0 0 2 31 31 0 0 0 5 2 40 40 0 0 1 3 2 2 2 0 0 0 2 1 2 2 0 0 0 1-3 2 2 0 0 0-1 0c-1 0 0 0 0 0a2 2 0 0 0-2 0 2 2 0 0 0 0 2l1 1s0-1 0 0l-1-1 1-2h1l-8-5v3l1-1c1-1-1 0 0 0l1-1h-2a14 14 0 0 0 3 2l1 1h1v1h1a2 2 0 0 0 2 0 2 2 0 0 0 0-2Z"/>
  <path d="M223 543c2 0 4-1 5-3a34 34 0 0 0 5-3 2 2 0 0 0 0-2 2 2 0 0 0-2 0l-2 1-1 1-1 1a21 21 0 0 1-3 1l-1 1a2 2 0 0 0 0 3Z"/>
  <path d="M220 544a4 4 0 0 1 0 1l3-1-5-6-6-3-7-4-7 2a2 2 0 0 0 0 2c0 2 2 2 3 3a27 27 0 0 1 5 2l12 5a2 2 0 0 0 2-1c0-4-3-5-6-5a36 36 0 0 1-13-6c-1-1-3 2-1 3a38 38 0 0 0 11 5c2 1 6 1 6 3l2-1-10-5-5-3-2-1h-2v2l5-2 6 4 6 2a10 10 0 0 1 2 3 15 15 0 0 0 2 3 2 2 0 0 0 2-1 4 4 0 0 0 0-1c0-2-3-2-3 0Z"/>
  <path d="m202 534 4 3 5 2c2 1 5 3 7 2a14 14 0 0 0 5-1 30 30 0 0 0 4-3 2 2 0 0 0 0-3 61 61 0 0 0-7-5c-1 0-4-1-5-3s-3 1-2 3l6 3 7 5v-3a30 30 0 0 1-4 3 15 15 0 0 1-4 1c-2 1-4 0-5-1l-5-2a31 31 0 0 1-3-2c1 0 0 0 0 0a1 1 0 0 1 0 1c0-2-3-2-3 0Zm-9 19 4-1 3-2 12-5a2 2 0 0 0 1-1 2 2 0 0 0-2-2l-12 5-3 2-1 1h-1a2 2 0 0 0-2 1 2 2 0 0 0 1 2Zm18 8 15-9a2 2 0 0 0-1-2l-16 9a2 2 0 0 0 2 2Zm10 12a62 62 0 0 0 18-12c2-1-1-3-2-2a58 58 0 0 1-16 11 2 2 0 0 0-1 2 2 2 0 0 0 1 1Zm19 5 1 3 7-6 8-6c1-1-1-3-2-2a31 31 0 0 1-4 3l-4 3c-3 2-6 3-8 6a2 2 0 0 0 2 2c2 0 2-3 0-3Zm21 12a5 5 0 0 0 4-1l3-3a39 39 0 0 1 4-3 88 88 0 0 0 3-2h-1l-1-1v-1a2 2 0 0 0 1 2 2 2 0 0 0 2-1 2 2 0 0 0-2-2 6 6 0 0 0-2 1l-4 4-4 2a15 15 0 0 1-2 2s-1 0 0 0h-1c1 0 1 0 0 0h1a2 2 0 0 0-2 1 2 2 0 0 0 1 2Zm17 13 8-6 9-6c1-1 0-4-2-3l-9 6-7 6a2 2 0 0 0 1 3Zm16 10 8-7 10-8c1-2-1-4-2-2l-9 7a42 42 0 0 0-4 4 22 22 0 0 1-5 4 2 2 0 0 0 2 2Zm21 13c2 0 3-2 4-3l5-3 9-8c1-1-1-3-2-2l-9 7-5 3a12 12 0 0 0-1 2l-2 1c-2 1-1 4 1 3Zm16 9c3 0 6-3 9-5l11-8c2-1 0-3-2-3l-11 8-4 3-3 2a2 2 0 0 0-2 1 2 2 0 0 0 2 2Zm20 12 4-2 4-4 5-4 7-6c1-1 0-3-2-2a47 47 0 0 0-7 5l-4 4-4 4a19 19 0 0 1-2 2 6 6 0 0 1-1 0c1 0 0 0 0 0h1c-2-1-3 2-1 3Zm22 6c7-4 14-8 20-14 1-1-1-3-3-2-5 6-12 10-19 14a2 2 0 0 0 2 2Z"/>
  <path d="M187 540a8 8 0 0 1 2 1 29 29 0 0 1 3 2l6 3 11 6 11 6 22 11 23 14 21 13c7 3 15 6 22 11l41 25 45 24 5 2c2 1 3-1 1-2l-5-3-5-3-11-6-23-12-22-12-20-14a238 238 0 0 0-22-11l-11-6-11-7-22-13-12-6-11-6-12-6-11-6c-4-2-9-6-13-7a5 5 0 0 0-3-1c-2 1-1 4 1 3Zm-79-24 3-3c2-1 5 1 7 2l17 7a179 179 0 0 0 17 8l7 3c2 1 4-1 6-3l9-8 9-6a24 24 0 0 1 7 6c-5 5-11 7-16 11a133 133 0 0 0-12 9l-9-5-11-5-23-11a108 108 0 0 0-11-5"/>
  <path d="M113 515a1 1 0 0 0 1 0 1 1 0 0 0 1 0h1a1 1 0 0 0 0-1 1 1 0 0 0-1-1 1 1 0 0 0 0-1 1 1 0 0 0-2 0 1 1 0 0 0 0 1 1 1 0 0 0-1 1 2 2 0 0 0 1 1Z"/>
  <path d="m113 513 5 2 6 3 15 6 13 7c4 2 8 4 12 2l15-12a33 33 0 0 1 2-2l3-2c1-1-2-2-3-3l-37-14-7-3c-4 0-7 3-10 4-5 3-10 6-14 11" class="cls-29"/>
  <path d="M114 514c-1 0-1 0 0 0v1h1l3 2 9 3 17 9a64 64 0 0 0 8 4l7 2c3 0 6-1 8-3a84 84 0 0 0 7-5l7-6a8 8 0 0 1 3-1 4 4 0 0 0 2-2c1-2-1-4-3-4l-7-3-34-14c-2-1-5-2-8-1l-7 4-8 4a35 35 0 0 0-7 7c-1 1 1 3 2 2 3-4 8-7 13-10l6-3c2-1 4-2 6-1l6 3 8 3 17 6 8 4 3 1h1a10 10 0 0 0 1 1v-1 1a7 7 0 0 0-1 0 9 9 0 0 0-3 2l-6 5-7 5c-3 1-4 3-7 3l-7-3a60 60 0 0 1-8-3l-17-9-9-4c-1 0-3-2-5-1s-1 3 1 2Z"/>
  <path d="m126 519 5-2 6-3a86 86 0 0 0 7-5l8-5c1-2-1-4-2-3l-7 5-7 5-6 3-2 2h-1c-2 0-2 2-1 3Zm18 10 4-3a70 70 0 0 1 6-5l7-6 3-3 3-3c2-1 0-4-1-3l-6 5-7 6-6 6-2 1-1 1v1s-1 0 0 0c-2 0-2 2 0 3Z"/>
  <path d="m125 504 25 12 13 5c5 1 8 4 12 6 2 0 3-3 1-3l-12-5-13-6-24-12c-2-1-3 2-2 3Z"/>
  <path d="M28 474c7 6 19 10 28 13l28 10c4 1 8 5 12 5 6 0 11-4 16-7 10-6 21-11 30-19l32-22c-2-2-7-3-10-4a115 115 0 0 0-15-6c-10-4-20-7-31-9-9-3-22 6-30 11-11 6-23 10-35 15-3 2-27 8-25 12" class="cls-29"/>
  <path d="M27 475c7 6 17 9 26 12l16 6c5 2 11 3 16 6 5 2 9 5 15 4 5-1 9-5 14-7 9-6 19-11 28-18l16-12 17-11a2 2 0 0 0 0-2c-2-2-5-3-7-3l-9-4a207 207 0 0 0-20-7l-11-3-10-3c-5-1-11 1-15 3l-15 8a188 188 0 0 1-18 9l-10 4-5 2-2 1h-1l-8 3a101 101 0 0 0-12 5c-2 1-7 3-6 6 1 2 4 1 3-1l1-1a19 19 0 0 1 4-2 97 97 0 0 1 10-4l9-3 5-2 10-4 18-8 14-8c5-2 10-5 15-5l8 1 10 3 22 7 10 5c3 1 6 1 8 3v-2l-28 19-7 5-7 5-14 8-7 4-6 4a15 15 0 0 1-7 2l-8-2c-10-5-21-9-32-12l-15-6-13-7c-1-2-3 1-2 2Z"/>
  <path d="M26 472c2 1 1 11 2 15s7 5 10 7c10 6 21 10 32 14l16 7c8 3 13 0 19-4l40-26c8-5 14-11 22-15s8-8 7-17a120 120 0 0 1-26 20l-33 19c-10 6-16 8-27 6-11-3-20-9-31-13s-21-8-31-14"/>
  <path d="M45 483c2 1 5-1 7-2l4-2 5-2 18-9 19-9 19-10c6-3 12-8 18-8a2 2 0 0 0 0-3c-6 0-11 4-16 7l-18 9a197 197 0 0 1-19 9l-9 4-9 5-11 5-4 2c-1 1-2 2-3 1-2 0-3 3-1 3Zm28 8a2 2 0 0 0 1 2 2 2 0 0 0 1 0c11-4 20-12 29-18l32-18 8-4a25 25 0 0 1 9-3c2 0 2-3 0-3-5 0-10 3-15 6l-17 9-16 9-14 10a113 113 0 0 1-17 10h2-1l1 1v-1a2 2 0 0 0-3 0Z"/>
  <path d="m48 465 11 4 15 5 29 11 18 5c1 1 2-2 0-3l-15-5-14-5-15-5-14-5-7-2a19 19 0 0 1-7-3c-1-1-3 2-1 3Z"/>
  <path d="m51 463 3 2a50 50 0 0 0 5 2l12 5 16 6 18 5 19 6c2 1 3-2 2-2-11-5-23-7-34-11-5-1-11-3-16-6l-14-4-5-2a25 25 0 0 1-2-2 9 9 0 0 1-1 0c0-2-3-1-3 1Z"/>
  <path d="m53 462 3 2a44 44 0 0 0 6 2l13 5 33 11 18 6c2 0 3-3 1-3l-16-5-16-6-16-5-14-5-6-2-3-2c-1-2-4 0-3 2Zm24-10 10 3 13 6 27 9c4 2 9 3 12 6 2 1 3-1 2-2-3-3-7-4-11-6l-13-4-13-5-13-6-7-2a23 23 0 0 1-5-2c-2-1-4 2-2 3Z"/>
  <path d="M78 451c2 3 6 3 9 4l14 5 15 5 15 5 14 4c2 1 3-1 2-2l-12-4-15-5-29-10-7-2c-1 0-3 0-4-2s-4 1-2 2Z"/>
  <path d="M82 451c7 4 15 5 23 7l12 5 14 4 7 3 6 2v-2l-4 4c-1 1 1 4 2 2l4-4a2 2 0 0 0-1-3 20 20 0 0 0-5-2l-6-2-13-4-13-5-12-3-12-5c-2-1-3 2-2 3Zm15-12c0 3 5 4 7 4l13 3c10 3 20 5 29 9l8 3a58 58 0 0 1 8 3v-3a5 5 0 0 1-5 1 42 42 0 0 1-6-3 112 112 0 0 0-11-6l-25-8c-4-2-9-4-14-4-2 0-2 3 0 3 5 0 9 2 13 3l13 4 13 5 11 6a25 25 0 0 0 6 3 8 8 0 0 0 7-1 2 2 0 0 0 0-3l-14-5a96 96 0 0 0-13-5l-14-3-15-4-5-1a15 15 0 0 1-2-1h-1c-1 0 0-1 0 0 0-2-3-2-3 0Z"/>
  <path d="m172 485 11 4h5a23 23 0 0 0 5-3l4-4 5 2a38 38 0 0 1 6 2c1 1 3 4 5 3l6-4 6-5a80 80 0 0 0-18-7l-21-7c-3-1-6-1-8-3l-9 8 11 4c0 2-9 8-8 10" class="cls-29"/>
  <path d="m172 487 7 2a30 30 0 0 0 7 2l6-2a42 42 0 0 0 4-4 2 2 0 0 1 2-1 13 13 0 0 1 3 1 49 49 0 0 1 6 3l4 2a4 4 0 0 0 4 0l5-4 6-5a2 2 0 0 0-1-2 91 91 0 0 0-12-5l-12-4-12-5-6-1a12 12 0 0 1-4-2 2 2 0 0 0-2 0l-9 8a2 2 0 0 0 0 3l11 3v-1a2 2 0 0 1-1 0 19 19 0 0 1-1 2l-3 3c-1 1-5 4-3 6 2 1 4-1 2-2h1a8 8 0 0 1 0-1l3-3 3-2a5 5 0 0 0 2-2 2 2 0 0 0-1-2l-12-4v3l10-8h-2c3 2 7 2 10 3l12 4 13 4a85 85 0 0 1 12 5l-1-2-8 8a6 6 0 0 1-2 1l-2-1-4-2-5-3-5-1-5 3a15 15 0 0 1-5 4 4 4 0 0 1-3 0l-3-1-8-3c-2-1-3 2-1 3Z"/>
  <path d="M169 472c0 3-1 7 1 9s3 0 5-2l4-4-10-3m3 12 1 8c0 3 1 3 3 5l8 3 3 2c2 0 2-1 3-3l8-7h-1c2 3 6 4 9 5l4 2c3 1 3 2 5 1 3-3 8-7 9-10v-10l-5 5-4 4c-3 0-8-4-11-5a33 33 0 0 0-5-2c-3-1-3 1-5 2-2 3-7 6-10 5-4 0-8-2-12-4"/>
  <path d="m181 476 3 1 4 2 9 3c2 1 4-2 2-3a22 22 0 0 0-6-2l-5-1c-3-1-6-4-9-2a2 2 0 0 0 0 2 2 2 0 0 0 2 0Z"/>
  <path d="M199 481c0 1 0 0 0 0h1l1-1 2-2a33 33 0 0 0 5-4 2 2 0 0 0 0-2 2 2 0 0 0-3 0l-8 8a1 1 0 0 0 0 2 2 2 0 0 0 2-1Zm-17-6 8-8a2 2 0 0 0 0-2 2 2 0 0 0-2 0v1h-1a13 13 0 0 1-1 1l-2 2a26 26 0 0 0-4 4 2 2 0 0 0 0 2 2 2 0 0 0 2 0Zm-61-10 12 3 11 5c2 1 3-1 2-2l-13-6-12-4c-2 0-2 3 0 3Z"/>
  <path d="M122 464c0 2 3 3 4 3l6 2a31 31 0 0 1 6 3 1 1 0 0 0 1 0v-1a4 4 0 0 1-2-1l-2 3 6 3c2 0 3-1 2-3l-4-3-1 3 5 2c2 1 3-3 1-3l-5-2a2 2 0 0 0-2 2l3 3 2-2-5-3a2 2 0 0 0-2 3 6 6 0 0 0 5 1c2-1 1-4 0-5l-6-2-5-2a21 21 0 0 1-3-1 8 8 0 0 1-1-1c-1-2-3-1-3 1Zm32-9a4 4 0 0 0-1-1l1 1-2 2h-1l12 5a2 2 0 0 0 2-1 2 2 0 0 0-1-1 22 22 0 0 1-6-3l-3-1-1-1a3 3 0 0 0-2-1 2 2 0 0 0-1 2 1 1 0 0 0 0 1 2 2 0 0 0 3 0 2 2 0 0 0 0-2Z"/>
  <path d="M147 473c0 1 0 1 0 0a7 7 0 0 1 1 0 18 18 0 0 1 2-2l5-2 7-4 7-5-1-3-7 6a66 66 0 0 1-9 5l-7 4c-2 0-4 2-5 3a2 2 0 0 0 1 2 2 2 0 0 0 2 0l1-2 3-1 8-4a60 60 0 0 0 8-5l6-5c2-1 1-3-1-3l-7 5a76 76 0 0 1-8 5l-6 3-3 3c0 1 3 2 3 0Zm-6-20a5 5 0 0 0 4 0 21 21 0 0 0 4-2l5-2a30 30 0 0 1 3-2l-2-2-6 4-6 3a2 2 0 0 0-1 1 2 2 0 0 0 1 2c6 0 10-5 14-8a2 2 0 0 0 0-2 2 2 0 0 0-2 0l-7 3a21 21 0 0 1-3 2h-1c-1 1 0 0 0 0h-1c-2-1-3 2-2 3Zm54 83 3 3 6 2 3 1a3 3 0 0 1 1 0l2 1 11 6 11 6c1 1 2-1 1-3a20 20 0 0 0-9-5l-5-1a26 26 0 0 1-5-3v3c3-1 6 1 9 2a2 2 0 0 0 2-2l-13-7a123 123 0 0 1-12-6v3a35 35 0 0 1 3-1v-3c-2 1-4 1-5 3a2 2 0 0 0 1 2 6 6 0 0 0 4 0 2 2 0 0 0 1-3c-2-2-8-3-9 0s5 5 7 5c1 1 2-2 0-3h-2l-2-1v1-1h1a3 3 0 0 1 3 1v-2a3 3 0 0 1-2 0l1 2 2-1a2 2 0 0 0 0-3 35 35 0 0 0-4 1 2 2 0 0 0-1 3 112 112 0 0 0 13 5l12 7 1-3c-4-1-7-3-11-2-2 0-2 2-1 3a30 30 0 0 0 10 4 17 17 0 0 1 9 5l1-3a32 32 0 0 1-5-3 62 62 0 0 0-6-3l-6-3-6-3a60 60 0 0 0-6-3l-4-1a14 14 0 0 1-1-1c-1 0-1 0 0 0a1 1 0 0 1 0 1c0-2-3-2-3 0Z"/>
  <path d="M219 542a3 3 0 0 0 1 1 4 4 0 0 0 2-1l-2-1 1 3a2 2 0 0 0 2 1 2 2 0 0 0 1-2v-1c-1 0 0 0 0 0a5 5 0 0 0 0-1s-1 1 0 0v-1 1-1h1s-1 0 0 0v-1h1a15 15 0 0 1 2-1 2 2 0 0 0 1-1 2 2 0 0 0-1-2 12 12 0 0 0-6 3 5 5 0 0 0-1 2 6 6 0 0 0 0 4l3-1v-1h-1v-2a2 2 0 0 0-2 0c0-1 0 0 0 0 0-1 0 0 0 0a2 2 0 1 0-2 2Zm13 4 1 2-1 1a44 44 0 0 0 6-4l-2-2-5 4a3 3 0 0 0 0 5l3 1 4 3 8 4 1-3c-4 0-8-2-12-4l-1 3c7 1 12 7 19 9a2 2 0 0 0 1-3l-3-1-3-2c-1-2 3-3 4-4l-2-2-4 5a2 2 0 0 0 0 2l9 6a2 2 0 0 0 2-2c-2-2-5-3-6-6l-2 2a17 17 0 0 1 5 4c1 1 3-1 2-3a57 57 0 0 0-5-4c-1-1-3 1-2 2l8 10 1-3a5 5 0 0 1-3-1 10 10 0 0 1-2-1l-2 3c3 0 5 2 7 3l7 3c2 0 3-2 2-3l-8-3a32 32 0 0 0-7-3 2 2 0 0 0-1 3c2 1 5 3 8 2a2 2 0 0 0 0-3l-8-8-2 2a50 50 0 0 1 5 3l2-2a20 20 0 0 0-6-4l-2 2 7 7 2-2-9-7v2l4-4a2 2 0 0 0-1-3c-3 1-7 4-6 7s5 4 7 6l1-3c-6-2-11-8-18-9-2 0-3 2-1 3 4 2 8 4 13 4 1 0 2-2 0-3l-12-7-2-1a6 6 0 0 1 1-1l5-4c1-1-1-2-2-2l-4 3a16 16 0 0 1-2 1l-1 1a2 2 0 0 0 1 2c2 1 3-2 1-3Z"/>
  <path d="M249 555c-1 0 0 0 0 0l1 2a1 1 0 0 0 1 0s-1 0 0 0a3 3 0 0 0 0-1h1-1l1-1h1a21 21 0 0 1 2-1h1v-1l-1-2c-1 1 0 0 0 0l-1 1a12 12 0 0 1-2 1h-1s1 0 0 0v1h-2l-1 1h1l1 2h-1a2 2 0 0 0 1-2 2 2 0 0 0-2 0h-1a2 2 0 0 0 1 2 2 2 0 0 0 1 0h2l2-1a9 9 0 0 0 4-4 2 2 0 0 0-1-2 21 21 0 0 0-5 2c-1 1-3 2-3 4a2 2 0 0 0 1 2 2 2 0 0 0 1 0 2 2 0 0 0 1-2 2 2 0 0 0-2-1Z"/>
  </g>

  <g id="both" style="display: none">
  <path d="m252 550 1 1 3-2c-2-4-6-6-10-7l-1 3 8 2 8 3 1-3c-4 0-8-2-11-4l-2 2c4 6 10 7 15 9l2-3c-4-1-7-4-11-6a2 2 0 0 0-1 2c6 7 15 10 23 14 2 0 3-2 2-3a145 145 0 0 0-15-8 2 2 0 0 0-2 2c2 4 6 5 9 7 4 2 7 6 12 7a2 2 0 0 0 2-3l-13-10-1 2a1 1 0 0 1 1 0 8 8 0 0 1 1 1 27 27 0 0 1 3 1l5 3c1 1 3-1 2-2a16 16 0 0 0-7-3 2 2 0 0 0-1 2l8 7 1-2a15 15 0 0 1-4-1c-2-1-3 1-1 2a55 55 0 0 0 8 4c1 1 3-2 1-2a55 55 0 0 1-8-4l-1 2a18 18 0 0 0 5 2 2 2 0 0 0 2-3l-9-7-1 2a13 13 0 0 1 5 3l1-2-5-4c-2-1-4-2-6-1a2 2 0 0 0-1 2l12 11 2-3c-4-1-7-4-11-6-3-2-7-3-9-6l-1 2a146 146 0 0 1 14 8l2-3c-8-4-17-6-23-13l-2 3 10 6c2 1 4-2 2-3-5-2-11-3-14-7l-2 2c4 2 7 4 12 4a2 2 0 0 0 0-3c-5-2-11-6-17-5a2 2 0 0 0-1 1 1 1 0 0 0 1 2c3 0 7 2 8 5l2-2h-1c-2-1-3 1-2 2Zm79-203c-5-5-5-12-3-19s6-13 9-20c7-16 18-31 28-46a267 267 0 0 1 20-24 2 2 0 0 0-3-2 163 163 0 0 0-30 36l-12 20-10 21c-4 8-6 17-6 25 0 2 2 2 3 1 4-11 3-23 9-32 1-2-1-3-2-1-7 9-6 21-10 32h3c0-7 2-14 5-21a218 218 0 0 1 10-21l11-20a169 169 0 0 1 13-19 155 155 0 0 1 19-19l-3-2-18 22-15 23a207 207 0 0 0-14 25l-10 21c-2 8-3 16 3 22 2 2 4 0 3-2Z"/>
  </g>
</svg>

