<svg xmlns="http://www.w3.org/2000/svg" xmlns:xlink="http://www.w3.org/1999/xlink" style="enable-background:new 0 0 1208 1208" viewBox="78.47 77.58 1091.55 922.72">
  <defs>
    <path id="a" d="M522 1000a549 549 0 0 1-72-10c-27-3-41-6-49-9a510 510 0 0 1-91-48c-20-11-33-20-41-27l-15-11c-5-3-12-7-16-11-11-8-15-13-46-50-22-27-61-90-71-113-14-35-20-54-34-112-9-37-10-56-7-108l2-41c1-21 3-33 7-49l5-21a148 148 0 0 1 24-64c9-18 11-20 17-27l6-8c4-8 10-11 14-7 2 3 1 5-2 8l-2 5-10 39a467 467 0 0 0-2 211l3 18a1448 1448 0 0 1 19 63l7 20c2 7 4 15 6 17 4 5 7 11 8 16l5 11 9 19a226 226 0 0 0 42 63 1145 1145 0 0 1 36 39l23 22c17 16 33 26 76 47l27 14c6 6 25 13 50 19 20 4 17 4 72 11a498 498 0 0 0 100 3c24-4 49-8 59-11l56-22 42-14c21-7 27-10 44-20s29-21 40-33c10-12 18-26 17-28l-2-6c-2-3-2-4-6-4s-6 0-8-2l-10-7c-10-4-20-16-25-27l-8-14c-5-7-6-8-8-18-3-13-3-19 2-27 6-13 12-17 40-30 24-11 37-18 47-25l6-4-1-13c0-18 0-18-5-11-3 4-6 6-13 9-5 3-10 4-11 4-2 0-3 1-4 4-1 5-6 10-14 12-5 2-6 3-15 2-8-1-9-1-17-6l-12-9-11-7-14-12c-13-13-19-25-24-53-3-14-3-18-3-35a423 423 0 0 1 12-115l6-32c-1-7-5-15-15-25a920 920 0 0 0-76-108l-10-17c-10-12-12-17-20-37-8-19-11-28-11-35 0-12 5-32 8-38 7-12 24-25 42-34 4-2 7-3 18-3 12-1 15 0 22 2 14 3 21 8 33 24 5 5 10 9 19 11l22 7c10 1 20 4 28 8l15 7c14 5 19 8 29 19l15 15a371 371 0 0 1 53 61l12 9 19 11 22 14c21 12 35 22 50 36 8 7 16 15 19 16a398 398 0 0 1 83 90c4 10 9 30 10 45 1 21-1 29-13 41-14 14-21 16-42 16-14 0-14 1-22 4-4 1-9 4-9 5-3 4-6 14-6 20l-1 18c-2 27-5 44-14 77l-4 21 3 13c5 11 7 19 10 35l6 24c4 17 5 24 5 36 0 18-4 41-9 53-4 9-19 22-32 27l-11 4c-7 3-10 3-16-1-9-4-14-11-24-30l-6-13-2 4c-15 23-24 35-38 50-11 12-20 18-34 27-14 7-29 17-39 24a497 497 0 0 1-113 62 399 399 0 0 1-99 22c-5 2-15 3-23 3l-24 3c-9 1-73 3-90 2Z"/>
  </defs>
  <use xlink:href="#a"/>
  <path fill="#FF6C44" d="m564 975-50-3c1 1 22 4 44 4h20l-14-1Zm-115-5a388 388 0 0 1-84-34l-11-9 6 2 4 2 4 3 8 4 13 5 17 6a950 950 0 0 1 46 11 4069 4069 0 0 1 37 5c4 0 3 0-7-2l-26-6c-23-5-50-12-57-15a716 716 0 0 1-91-47c-1 0-3 0-4-2-4-2-4-1 0 3 2 2 2 2 0 3s-2 1-15-10c-9-7-20-19-20-21 0-3 3-2 8 4 6 6 17 15 18 14l-1-3-3-7c-2-3-2-4 1-3l2 1c0-1-5-4-8-4l-7-3-10-6c-10-5-22-19-37-41-2-5-8-11-10-13l-16-24-9-17a586 586 0 0 1-34-59l-13-29-11-26c-16-37-20-48-27-84-5-23-4-31-5-86-1-54-2-55 3-91a761 761 0 0 1 11-51 339 339 0 0 0-27 106 245 245 0 0 0 10 98c-3-1-5-7-8-17l-4-9v33a340 340 0 0 0 41 141l-4-11a262 262 0 0 1-12-38l-3-15-4-14-12-40v-13a306 306 0 0 0 15 51l3 11a1028 1028 0 0 1 11 29l3 1c1 2 0 4-1 4-3 0-2 3 2 15s11 26 20 41a838 838 0 0 1 26 47l12 20c9 15 22 34 31 45l25 30c12 15 29 31 52 47l23 17a163 163 0 0 0 42 26c18 10 21 11 24 11 7 1 18 5 18 8s20 7 37 8c21 2 22 2 8-2Zm227-1c3 0 17-5 16-6l-5 1-13 3a15061 15061 0 0 0 2 2Zm-86-2 5-1-4-1h-23a259 259 0 0 1-56-5l34 6c9 1 36 2 44 1Zm59-2 4-4 1-4-6 1-14 3c-6 2-7 2-4 3h6c3 1 10 2 13 1Z"/>
  <path fill="#FF6C44" d="M622 960c10-2 12-4 4-4l-6-1c-1-3 0-3 5-4a213 213 0 0 0 31-7 414 414 0 0 0-3-1c-13 3-39 4-69 4-34 0-44-1-60-4l-38-5a576 576 0 0 1-125-38c-7 3-23 0-34-6-5-3-5-2-1 1 16 11 26 15 40 20l24 8a306 306 0 0 0 64 16 1094 1094 0 0 0 157 23c1 1 1 1 11-2Zm75-5 63-24a797 797 0 0 0 119-67l-1-3c0-2 0-2-4 1a375 375 0 0 1-113 61 366 366 0 0 1-30 13l-15 6a154 154 0 0 0-34 17l15-4Zm137-54c24-14 33-20 41-28 4-4 4-4-7 4a425 425 0 0 1-34 24Zm61-28c17-10 24-15 32-22 9-8 22-24 30-36l20-27a133 133 0 0 0 30-79v-6l-2 6c-3 16-11 27-15 21 0-2-1-1-3 2-2 5-4 6-6 4-1-1-1-2 1-4 5-5 8-16 9-33l2-13-3-3-4-5-2-4-5 3c-5 3-7 3-10 1-4-1-5-5-4-11l1-5-6-6c-8-8-9-8-11 2l-2 9c-1 4-1 10 1 10l1 2-5 19c-2 5-8 24-10 35-2 13-11 41-17 53a234 234 0 0 1-26 41l6-5c5-5 9-6 10-3 1 4-3 11-13 21l-8 11c-1 5 1 5 7-2l7-6a204 204 0 0 0 21-25c5-7 12-14 14-13 2 0 2 2 0 5-3 2-7 8-23 30a381 381 0 0 1-33 43l16-10Z"/>
  <path d="m1031 827 4-20-8 21c0 2 3 2 4-1Z"/>
  <path fill="#FF6C44" d="M1025 816a521 521 0 0 0 13-113c0-10 1-17 3-16 3 0 6 10 7 23 3 28 0 85-5 104-2 6 0 5 3-2 4-9 5-18 7-53a463 463 0 0 1 4-29c-2-24-4-30-9-38l-3-9-5-8-6-5c-1 0-4 11-4 15v22c0 24 2 22 3-3a7466 7466 0 0 1 2-20 438 438 0 0 1-12 122l-3 11c-2 4-2 6-1 7l2 1 4-9Zm32-4c8-16 14-47 11-64-1-8-8-31-8-27l2 10c2 11 2 37 0 48a620 620 0 0 1-9 40l4-7Z"/>
  <path d="M1013 809c4-13 9-44 8-48l-2 4a408 408 0 0 1-15 45c0 2 4 6 5 6l4-7Z"/>
  <path fill="#FF6C44" d="m1008 773 8-27c3-12 4-29 3-28l-4 10a487 487 0 0 1-16 45l-2 11v8l1 5 2-4c2-2 5-11 8-20Zm-126 1-1-2-2-4-1-3c-2 0-2-1 0-4 1-2 2-2 4-2 3 1 6-1 6-5l2-4c2 0 4-3 5-6 3-5 7-8 12-7 3 0 3 0 3-2l-1-4c-1-1 0-2 2-4l3-6v-5c1-2 0-2-1-3-3-1-3-4-1-8l2-4 5-9c8-13 8-18 1-5l-10 13-8 14-12 18c-17 26-21 38-17 44h5l4-2Zm-20-9a205 205 0 0 1 9-23h-2c-3 1-4-1-2-3l2-6c1-4 0-4-4 5l-5 8c-2 1-2 3-2 10 0 8 1 14 2 14l2-5Z"/>
  <path d="M848 755c-1-11 0-17 4-26 7-12 23-32 40-48l14-15-14 12c-29 27-31 29-35 37-7 13-11 19-12 18-3-1-3 10-1 18 1 7 4 14 5 13l-1-9Z"/>
  <path fill="#FF6C44" d="M860 732a259 259 0 0 1 12-19c-1-1-11 13-15 20l-3 9c0 3 0 3 2-1l4-9Zm-23 2c1-7 4-12 12-22 9-13 21-26 28-30 4-3 34-33 34-35a229 229 0 0 1-41 32l-4 4-4 3c-5 2-11 9-17 20-5 9-10 25-10 31 0 4 2 2 2-3Zm-3-24 6-10c2-3 2-4 0-2-6 3-11 7-12 10-2 5-3 12-1 17 0 3 0 3 2-3l5-12Zm55 1-1-2c-1 0-2-2 0-6l1-4-8 11h2l3 1c1 2 2 2 3 0Zm129-19 15-53c0-3 3-6 4-4v14c-1 2 0 2 2 2s3-1 4-9c2-12 2-14 1-15l-4-6-3-5-2 4c0 2-3 6-5 8l-4 7-3 9a154 154 0 0 0-7 29 1112 1112 0 0 1-2 33l4-14Zm-112-10a699 699 0 0 0 0-4c-3 2-5 5-5 6v3l1 2 4-7Zm100-28c0-6 2-11 7-15 5-5 7-11 5-17-1-3-1-4 1-10l3-9 2-4 2-3 4-10 11-28c8-23 10-32 7-40l-1-4s-3-3-6-1c-1 2-8 2-11 1l-4-2c-3-1-3-2-4-4 0-3 0-3 3-4s3-4 1-4c-3 0-5-6-2-7h2c1 0 2-2 2-6l4-11c5-6 6-12 6-17s-2-7-3-3c-2 5-7 2-7-4l-1-4-1-4c0-3 0-4-2-4l-4-3-2-3-4 2c-4 3-6 3-12 0l-10-3-9-6c-4-4-4-5-4-8s0-5 2-7c2-4 1-7-3-7-3 0-6-2-9-7-2-5-2-10 0-12 3-3 3-3 6-1 5 2 7 5 8 9l1 3c2 0 7 5 7 6s1 2 3 1c2 0 3-1 3-4 0-2-1-5-5-11-7-10-9-15-9-19 1-4 0-4-2-5-6-2-9-6-10-14-1-3-2-7-4-9-6-7-5-13 1-15 3-1 9 2 12 5 1 2 2 5 2 11 0 8 0 8 3 11l4 2c1 0 3-3 4-8l2-5c1-1 0-2-4-7-10-11-17-23-30-45-5-8-8-13-23-31l-12-14-3-6-8 1-12 2-4 2 2 2v7c-2 3-2 3-5 3s-4 1-5 6c-2 8-10 15-17 15l-9 6-9 7c-2 1-3 2-2 8 0 6 0 7-4 16l-5 9 2 3c6 7 6 14 2 20-7 10-23 10-26 0-1-5-5-5-11 0-9 5-13 5-21-1l-7-10c-2-5-2-8-2-27 1-9 1-9-2-11-11-7-16-17-16-30 0-6-1-7-5-11l-4-6c0-3 5-7 11-9 4-1 5-2 6-4 1-3 2-4 4-4 1 0 3 0 3-2 2-3 3-3 7-3 5-1 11 6 11 12 0 3 1 3 5-1 6-6 14-7 19-3 3 3 3 3 4 1l2-6c2-5 4-7 10-7 8 0 16 6 18 12l1 8c-1 3-1 4 1 5 0 1 1 2 2 1v-25a112 112 0 0 1 1-43l2-10c0-4 0-4-12-14l-26-17-12-3c-20-3-34-9-41-15-5-4-6-4-6-1 0 2-2 3-6 2-3-1-4-1-7 1-2 2-4 2-12 2-10 0-23 4-26 7l-4 6c-5 8-15 10-22 3-2-2-3-4-3-7 0-2 0-4-2-4-3-1-7-6-7-10s2-6 6-8l5-5c2-3 5-6 8-5s6 4 6 7l2 3c1 1 1 1 1-4-1-8-1-9 1-12l2-3c-1-1-12 5-19 9-11 7-16 13-20 20-3 7-4 10-2 18l3 11 3 12c12 33 14 38 28 56l7 7 3-3c6-2 9 7 4 10l-3 1 8 9 9 9a154 154 0 0 1 29 48c9 20 22 42 30 48 2 2 6 8 6 10l2 4c3 3 3 7 0 7-1 1-2 2-3 12l-2 18c-4 13-5 20-4 21l-2 11-3 44-2 42c-2 21 7 59 18 72 2 3 2 1-3-12-10-27-11-32-11-42l3-71c2-16 14-61 17-65 2-2 2-2 2 1 0 4 0 7-5 27-4 16-6 35-6 68 0 25 0 29 2 38l3 21c2 15 3 8 1-14a310 310 0 0 1 9-101c9-26 11-31 14-31l3-1c0-2 3-2 4 1 0 3 0 12-2 15 0 2 0 2 2 1 3-2 7-1 8 2 2 2 2 2 3 1s1-3-2-9l-21-31c-3-4-4-7-2-8l2 1h2c2-1 3 0 5 3 6 6 12 17 17 28 7 14 7 15 11 10 6-5 5-9 0-14-4-4-5-7-2-13 1-3 2-3-5-10-6-7-3-14 6-14s14 5 18 16c3 5 3 6 8 8 8 3 11 8 12 15 1 9 4 12 5 5 3-24 14-35 30-32 6 2 6 2 14-2 7-3 9-3 12-2 6 2 10 8 12 15v11l-2 9c0 2 0 3 3 4 6 1 16 14 19 21 2 5 2 6 1 8-2 3-7 5-13 4-4 0-4 0-5 6-2 5-2 6 0 10l4 16c0 2 0 3-2 5-8 7-15 12-19 13-8 3-12 6-14 12l-8 10c-4 3-6 7-9 14-5 9-5 10-3 12 1 2 2 2 3 1h6c3-1 4 0 7 2 2 3 2 3 2 13-1 9-1 9 1 10 3 2 4 5 5 16l4 15c2 6 2 7 1 15v2l3 2c1 3 1 5-3 9-2 3-2 4-1 6h4c4-2 5-4 7-9 1-4 1-4 4-4l4-1c2-1 5-8 5-11l2-5c2-3 2-3 7-3l5 1h2l5 4c4 4 4 8 0 13l-4 6c-1 2-2 3-5 3l-4-2-3-4-1-3-2 2-2 2 4 6c3 5 4 5 8 6 4 0 7 3 7 8 0 3 0 3 4 3 10 0 12 1 13 2 2 2 3 2 3-2Z"/>
  <path fill="#FF6C44" d="M839 621a284 284 0 0 1-17-63c-2 1 0 12 3 24l4 16c1 9 8 24 10 24v-1Z"/>
  <path fill="#FF6C44" d="m826 615-4-12-4-13-2-53v-33a486 486 0 0 1 6-83 204 204 0 0 0-14 60 506 506 0 0 0 2 77c1 25 4 40 9 49 3 7 8 14 9 13l-2-5Zm29-10-5-11a305 305 0 0 1-16-95v-14l-2-5-2-4v6a324 324 0 0 0 0 58v-5c0-3 1-5 2-5 1-2 2-2 3 7a295 295 0 0 0 21 73c3 7 2 3-1-5Z"/>
  <path fill="#FF6C44" d="M871 610a1045 1045 0 0 1-11-29c-5-12-11-42-12-62v-14l-4-3-5-2a810 810 0 0 0 6 44c2 23 6 34 17 58 4 8 4 9 7 9l2-1Zm13-26-5-29a563 563 0 0 1-9-54l2 1c0-2-2-9-3-8l-4-1c-2-1-3-3-4-7l-4-8-3-6-4-9c-1 1 2 16 4 16l2 7c1 6 2 6 4 6s2 1 4 13a632 632 0 0 0 18 93v5l1-4 1-15Zm-11 7-2-14a1424 1424 0 0 1-16-76v-2l-1 2c-2 5 1 33 6 56a422 422 0 0 0 13 34Zm-37-12c-2-12-4-19-4-15 0 3 5 28 6 27l-2-12Zm60-23c-2-14-4-22-7-23-2 0-2 0 0 6l5 40c0 9 2 8 2-2v-21Zm2-46c1-2 1-3-2-7-4-7-3-15 2-25l3-9c0-2-5-10-10-14-3-2-6-5-6-7-1-3-3-4-9-7-4-2-9-5-10-7-3-2-4-2-5-1h-4c-2 0-3 1-3 2l12 23c4 7 12 23 15 33l3 4c2 0 5 4 11 14 2 3 2 3 3 1Zm232-18 3-9c4-11 4-30 0-44-3-15-10-32-19-50-7-16-8-16-16-24-8-7-18-16-25-20l-3-2 2 3 15 30 7 18a459 459 0 0 1 24 62c-6-31-13-53-21-68-5-10-6-15-3-16l4 6c10 17 14 28 22 60l6 20v18l1 17 3-1Zm-25-9-6-39c-3-11-3-14-3-6v14l2 14 1 12-1 11c-1 2 0 3 5 3h2v-9Z"/>
  <path d="M1115 488c1-3-1-13-2-14s-1 3-1 9c1 10 2 12 3 5Zm-29-3v-20l-1 7a242 242 0 0 1-1 16l2-3Z"/>
  <path fill="#FF6C44" d="m1079 456-2-10v1l1 17 1 14v-22Zm76-2c0-11-1-18-7-30l-16-25c-3-3-3-4 3 11 6 17 13 44 14 59l1 9 2-8c1-4 3-10 3-16Zm-86-6a642 642 0 0 0-14-69c-3-11-5-14-9-18a358 358 0 0 1-22-25c-10-8-15-16-19-31-1-6-2-6-19-22a437 437 0 0 1-27-27l5 12a645 645 0 0 1 14 27l7 12c11 20 23 36 28 36h2l-2-3-8-11-5-9 12 13a287 287 0 0 0 29 33c8 10 16 33 22 63a733 733 0 0 1 6 33v-14Z"/>
  <path fill="#FF6C44" d="m1073 388-4-15c-2-11-10-23-19-31l-12-11-29-26c0 3 12 18 26 32l5 6 8 9c7 8 15 19 17 24 0 3 10 21 11 21l-3-9Z"/>
  <path d="m894 232 2-7c0-2 2-4 6-7l2-1-2-4-18-21-3 3c-3 4-2 8 2 15 5 8 7 15 8 21l1 5 2-4Zm104 379c-4-3-8-16-6-20 1-3 7-7 11-7l6 3 5 8 1 5c1 2-2 8-4 10s-4 3-7 3c-3 1-4 0-6-2Zm-22-25-3-5-5-8c-5-6-5-9-4-23l1-10-2-4c-4-5-4-7 1-14 7-10 14-34 17-54 0-7 3-11 7-11s5 3 6 7l1 6 3 10 2 8 1 3 2 3 3 5 2 7c3 8 0 17-6 21-3 1-4 2-4 5l-1 5c-2 3 0 4 2 3 1-1 3-2 8-1 7 0 8 0 10 3 3 3 4 7 3 10s-8 8-13 8l-4 3-4 7-6 8c-4 8-12 12-17 8Z"/>
  <path d="m1025 530-1-3-2 2c-2 3-5 3-7 1-2-3-2-6 0-8 3-2 7-1 8 2 1 2 2 2 3 1v-8c2-1 5 0 5 4l2 4c2 4 0 7-4 7-2 0-3 0-4-2Zm-11-25v-6l1-3c0-3 2-5 5-4l1 3v4c2 1 1 5 0 6l-3 1-4-1Zm-85-136v-3c1-3 4-2 6 0l-1 3c-3 2-3 2-5 0Zm-42-31c-2-3-2-6 1-7 5-1 8 4 4 7-3 2-3 2-5 0Zm-1-14c-2-4 2-8 6-6l1 4c0 2-1 3-3 3-2 1-3 0-4-1Zm-20-9c-11-7-4-23 10-23 3 0 4 0 6-2l1-4 2-3c3-3 8-1 8 3l1 3c2 1 1 2 0 3-2 0-6 7-6 8l2 3c3 3 1 7-4 6-1-1-3 0-6 3-3 4-5 4-8 4l-6-1Zm33-13c-2-2-2-3 0-6 1-3 6-3 8-1s1 6-1 8c-3 2-4 2-7-1Zm11-10c-2-3 0-7 3-7s5 2 5 5c0 5-6 6-8 2Zm4-10-1-4c0-2 0-3-3-3l-3-1c-1-2 1-5 3-5 1 0-1-6-4-11-2-2-2-2 0-7l3-6c3-1 7 1 8 5v6l-3 3 1 3c4 3 4 7 1 8-2 1-3 4 0 4s4 3 4 6c-1 2-2 2-3 2h-3Zm-165-48-1-3c0-2 1-3 2-3 2 0 5 3 4 5s-4 2-5 1Zm-5-8-1-4c1-1 1-2 3-2 3 0 4 3 2 5-1 2-2 2-4 1Zm40-6c-2-3 0-8 5-8 1 0 3 1 3 3 3 4-4 9-8 5Zm-47-6-2-6c0-5 1-7 6-7 7 0 11 8 6 12-2 2-7 3-10 1Zm80-1-3-1-4-3c-3-4-3-7 1-7 2-1 3 0 2 3l2 2c2 1 2 1 2-1l2-5c2-4 2-4-2-6-6-3-8-6-4-5l4-1 5-2c2 0 7 5 7 8l2 2c3 1 5 4 5 6l1 3c2 3 0 5-7 5l-8 2c-2 2-4 2-5 0Zm-25-2c-2-2-1-5 2-5s5 2 4 5c-1 2-4 2-6 0Zm-7-18c-1-3 0-5 3-4 4 0 4 5-1 5l-2-1Z"/>
  <use xlink:href="#a"/>
  <g fill="#FF6C44">
    <path d="M707 96c-1-1-12 4-19 9-11 7-16 13-20 20-3 7-4 10-2 18l3 11 3 12c12 33 14 37 28 56 5 7 7 8 7 6l3-2c6-2 9 7 4 10l-3 1 8 9 9 9a153 153 0 0 1 29 48c9 20 22 42 30 48 2 2 6 8 6 10l2 4c3 3 3 6 0 7-1 0-2 2-3 12l-2 18c-4 13-5 20-4 20l-2 11-3 45-2 42c-2 21 7 59 18 72 2 2 2 1-3-12-10-28-11-32-11-42l3-71c2-17 14-62 17-65 2-2 2-2 2 1s0 6-5 27c-4 15-6 35-6 67 0 26 0 30 2 39l3 21c2 15 3 7 1-14a310 310 0 0 1 9-101c9-26 11-31 14-31l3-1c0-3 3-2 4 1l-1 15h1c3-1 7 0 8 3 2 2 2 2 3 1s1-3-2-9l-21-31c-3-4-4-7-2-8h2l2 1c2-1 3 0 5 2 6 7 12 18 17 29 7 14 7 14 12 10 5-5 4-9-1-14-4-4-5-8-2-13 1-3 2-3-5-10-6-7-3-14 6-14s14 5 18 16c2 5 3 6 8 8 8 3 11 7 12 15s4 11 5 5c3-24 14-35 30-32 6 1 6 1 14-2 7-3 9-3 12-2 6 2 10 8 12 14v12l-2 9c0 2 0 3 3 4 6 1 16 13 19 21 2 5 2 6 1 8-2 3-7 5-13 4-4 0-4 0-5 5-2 6-2 6 0 11l4 16c0 2 0 3-2 5l-19 13c-8 3-12 6-14 12l-8 10c-4 3-6 6-9 14-5 9-5 9-3 12 1 1 2 2 3 1l6-1c3 0 4 1 7 3 2 3 2 3 2 13-1 8-1 9 1 10 3 2 4 5 5 15l4 16c2 6 2 7 1 15-1 2-1 2 1 2l2 2c1 2 1 5-3 9-2 3-2 4-1 6h4c4-2 5-4 7-9 1-4 1-4 4-4l4-1c2-1 5-8 5-11l2-5c2-3 2-3 7-3h5l2 1 5 3c4 4 4 9 0 13l-4 7c-1 2-2 3-5 3l-4-2-3-5-1-2-2 2-2 2 4 6c3 4 4 5 8 6 4 0 7 3 7 8 0 3 0 3 4 3 10 0 12 0 13 2 2 2 3 1 3-3 0-6 2-10 7-14 5-5 7-11 5-17-1-3-1-4 2-10l2-9 2-4 2-3 4-10 11-28c8-23 10-32 7-40l-1-4s-3-4-6-1c-1 1-8 2-11 0l-4-1c-3-1-3-2-4-4 0-3 0-4 3-5s4-3 1-3-5-6-2-7h2c1 0 2-2 2-6l4-11c5-7 6-12 6-18 0-5-2-6-3-2-2 5-7 2-7-5l-1-3-1-4c0-3 0-4-2-4l-4-3-2-4-4 3c-4 3-6 3-12 0l-10-4c-2 0-6-3-8-5-5-4-5-5-5-9 0-2 0-5 2-7 2-3 1-6-3-6-3 0-6-2-9-7-2-5-2-10 0-13 3-2 3-2 6-1 5 3 7 6 8 9l1 4c2 0 7 5 7 6l3 1c2 0 3-1 3-4s-1-5-5-12c-7-10-9-14-9-19 1-3 0-3-2-4-6-2-9-6-10-15l-4-9c-6-6-5-12 1-14 3-1 9 2 12 5 1 2 2 5 2 11 0 7 0 8 3 10l4 3 4-8 2-5c1-1 0-2-4-7-10-12-18-23-30-45-5-9-8-13-23-31l-12-15-3-5-8 1-12 2-4 1 2 3v7c-2 3-2 3-5 3s-4 0-5 5c-2 8-10 16-17 16l-9 6-9 7c-3 1-3 2-2 8 0 6 0 7-4 16l-5 9 2 3c6 7 6 13 2 20-7 10-23 10-26 0-1-5-5-5-11-1-9 6-13 6-21-1-3-2-5-5-7-9-2-5-2-8-2-27 1-9 1-9-2-11-11-7-16-17-16-30 0-7-1-7-5-11l-4-7c0-2 5-6 11-8 4-1 5-2 6-4 1-3 2-4 4-4l3-2c2-3 3-4 7-4 5 0 11 7 11 13 0 3 1 3 5-1 6-6 14-8 19-3 3 3 3 3 4 1l2-6c2-5 4-7 10-7 8 0 16 5 18 12l1 8c-1 3-1 4 1 5l2 1v-26a112 112 0 0 1 1-42l2-11c1-3 0-4-12-13l-26-17-12-3c-20-4-34-9-41-15-5-4-6-4-6-2 0 3-2 4-6 2-3-1-4-1-7 1-2 2-4 3-12 3-10 0-23 3-26 7l-4 6c-5 8-15 9-22 3-2-3-3-4-3-7s0-4-2-4c-3-1-7-7-7-10 0-4 2-7 6-9l5-4c2-4 5-6 8-5s6 4 6 6l2 3c1 2 1 1 1-3-1-8-1-10 1-12l2-3Zm252 161 5 12a635 635 0 0 1 13 26l8 12c11 20 23 37 27 37h3l-2-3-8-12-6-9c1-1 6 5 12 13a289 289 0 0 0 30 33c8 11 16 33 22 63a741 741 0 0 1 6 33v-14a642 642 0 0 0-14-69c-4-10-5-13-10-18a356 356 0 0 1-21-24c-10-9-15-17-19-32-2-6-2-6-19-22a438 438 0 0 1-27-26Z"/>
    <path d="M1009 305c0 4 12 19 26 32l5 6c0 1 3 5 8 9 7 8 15 19 16 25l11 21-2-9-4-16c-3-11-10-22-19-30l-13-12c-7-8-28-27-28-26Zm-889 35a339 339 0 0 0-27 106 245 245 0 0 0 10 98c-2-1-5-6-8-16l-3-10v33a340 340 0 0 0 40 142l-4-12a263 263 0 0 1-11-38l-4-14-3-14-12-40v-13l4 16a307 307 0 0 0 10 35l3 11a1031 1031 0 0 1 11 28l4 1c1 2 0 5-2 5s-1 3 2 14c5 12 11 26 20 42a837 837 0 0 1 27 46l12 20c9 16 22 35 31 45l25 31c11 14 28 30 51 46l23 17a163 163 0 0 0 43 27c18 10 20 11 23 11 8 0 19 5 19 7 0 3 19 8 37 9 21 1 21 1 7-3a388 388 0 0 1-84-33l-10-9c0-2 3-1 6 1l3 3 5 2 8 4 12 5 18 7a953 953 0 0 1 46 11 4137 4137 0 0 1 37 5 1511 1511 0 0 0-33-9l-57-14a725 725 0 0 1-91-47l-5-2c-3-3-3-1 0 2s3 3 1 3c-2 1-3 1-16-10-9-7-19-18-19-20 0-3 2-2 8 4l17 14c1-1 0-2-1-4l-3-6c-1-4-1-5 1-3h2c1-1-4-3-8-3l-7-3-9-6c-10-6-22-19-37-41-2-5-9-12-10-14-5-5-13-17-16-24l-10-16a589 589 0 0 1-33-60c-4-5-10-18-14-29l-10-26c-17-37-20-48-28-84-4-23-4-30-4-85-1-55-2-56 2-92a763 763 0 0 1 11-51Zm949 3 3 4c4 6 10 20 14 30l7 17a457 457 0 0 1 25 63c-6-32-13-54-21-69-5-9-6-14-4-15 1-1 3 1 5 5 10 18 14 28 22 60l5 20v18c0 16 1 18 2 18l3-1 3-10c3-11 3-30 0-43-4-16-10-33-19-50-8-16-8-17-16-25l-26-20-3-2Zm60 55 5 13c7 17 13 43 15 59v8l3-7 3-17c0-11-2-18-7-29l-17-26-2-1Zm-308 23a205 205 0 0 0-13 60 505 505 0 0 0 1 77c2 25 5 40 9 50l9 13c1-1 0-3-1-5l-4-13-4-13c-1-4-3-31-2-52v-33a486 486 0 0 1 5-84Zm42 9h-2l-5 1c-2 0-3 1-3 2l13 24c5 8 12 25 16 35l3 5c2 0 5 4 11 15 2 3 3 3 4 1s1-4-2-8c-4-7-4-15 2-26l3-9c0-3-6-12-11-16l-6-7c-1-3-3-5-9-8a74 74 0 0 1-14-9Zm233 4v18l2 14 1 12-1 11c-1 2 0 3 5 3h2v-9c-1-13-4-27-7-39l-2-10Zm-20 12v2l2 17v13l1-7v-14l-2-10-1-1Zm-227 15c-1 1 3 17 5 17l2 7c1 6 2 7 4 7s2 1 4 12c3 26 10 58 13 69 2 4 2 9 6 28v5l1-4 1-16-6-30a581 581 0 0 1-9-55h2c1-1-1-8-3-8l-4-1c-2-1-3-3-4-7l-4-8-3-6-5-10Zm237 4-1 7a253 253 0 0 1-1 17l1-4 1-12v-8Zm26 9v9c0 10 2 12 3 6 1-3-1-13-3-15Zm-282 3-1 6a324 324 0 0 0 1 58v-5l1-6c2-2 2-1 4 8a295 295 0 0 0 21 73 164 164 0 0 0-6-17 305 305 0 0 1-16-94v-15l-3-5-1-3Zm25 22-1 3c-3 4 1 32 6 55a422 422 0 0 0 12 34l-2-13a1436 1436 0 0 1-15-76v-3Z"/>
    <path d="M839 501a811 811 0 0 0 5 44c3 22 6 34 17 57 4 9 5 10 7 10 3 0 3 0 2-2a1184 1184 0 0 1-11-29c-5-12-10-41-11-61v-15l-5-2-4-2Zm48 28a336 336 0 0 1 7 51c0 10 2 9 2-2v-23c-2-16-5-25-8-26h-1Zm-65 30c-2 1-1 12 2 23l4 17c2 9 8 24 10 24v-2a284 284 0 0 1-16-62Zm10 4v1l6 28-2-13-4-16Zm205 54-2 3-5 9-4 6-3 9a157 157 0 0 0-8 29 1006 1006 0 0 1-2 34l5-14 14-53c1-4 4-7 5-5 1 1 0 10-1 15 0 2 0 2 2 2 3-1 4-1 5-9 2-13 2-14 1-16l-4-6-3-4Zm-126 30-12 10a277 277 0 0 1-33 26l-4 4c-6 2-12 9-17 20-5 8-10 25-10 30s1 3 2-2c1-8 4-13 11-23 10-12 22-25 28-29 5-3 35-34 35-36Zm41 4c-2 0-2 2-3 7l-2 10c-2 3-1 10 0 10l2 2-6 18-9 35c-3 14-12 41-17 53a233 233 0 0 1-27 42l6-5c6-5 9-6 10-3 2 4-3 11-12 21-5 4-7 8-8 10-1 6 0 5 6-2 3-3 6-5 8-5l5-4 16-21c5-8 11-14 13-14 3 1 3 2 1 5l-23 30a381 381 0 0 1-33 43l15-9c18-11 24-15 32-22 9-8 22-24 31-37 7-10 9-14 20-27 7-8 17-26 23-42 3-9 7-29 7-37l-1-6-1 6c-4 17-11 28-15 21-1-1-1-1-3 3s-4 6-6 3c-1-1-1-2 1-3 5-6 8-16 9-34l1-12c1-1 0-2-2-3l-5-5-2-4-4 2c-5 3-7 3-11 2-3-2-5-6-3-12l1-5-6-6c-4-4-6-6-8-5Z"/>
    <path d="M906 666c-2 0-6 5-15 12-28 27-30 30-35 38-6 12-10 18-12 17s-3 10-1 18l6 14-1-10c-2-11-1-16 4-25 6-13 22-33 39-49a144 144 0 0 0 15-15Zm128 5-5 14 1 22a7241 7241 0 0 1 5-22 438 438 0 0 1-12 122l-4 10v7l2 2 4-10a524 524 0 0 0 13-113c-1-9 0-16 2-16 3 1 7 11 8 23 2 28 0 85-5 104-2 6-1 6 3-1 4-9 5-19 7-54a437 437 0 0 1 3-28c-2-25-3-30-8-39l-4-8c0-3-1-5-5-9l-5-4Zm-123 3-5 4c-3 3-6 5-5 6v6l5-7 5-9Zm14 6-6 7-9 14-9 13-11 19c-17 26-22 38-17 44 1 1 2 1 5-1l4-2-2-2-1-4-2-2c-2 0-2-1 0-5 2-1 3-2 4-1 4 0 7-2 7-5 0-2 0-3 2-4l5-6c2-6 6-9 12-8 3 1 3 1 2-1l-1-4c0-1 0-3 3-5 2-2 3-3 2-5l1-5c0-2 0-3-2-4s-3-4 0-7l2-4 5-10 6-12Zm-84 18h-1c-6 3-11 7-13 11s-2 12-1 16c1 3 1 3 3-3a79 79 0 0 1 12-24Zm47 2-7 10 2 1 2 1c1 1 3 1 3-1v-1c-2 0-2-3-1-6l1-4Z"/>
    <path d="m872 713-15 21-3 9c0 2 0 2 1-1l5-10a259 259 0 0 1 12-19Zm147 6-4 10a488 488 0 0 1-16 45l-2 10v9l1 4 2-4c1-2 5-11 7-20l9-27c3-12 4-28 3-27Zm41 2 1 10c2 12 2 38 0 49a613 613 0 0 1-9 39l4-6c9-17 14-47 12-64-1-8-7-29-8-28Zm-191 10-4 7-6 8c-1 2-2 3-2 11s1 14 2 14l2-5a204 204 0 0 1 10-24l-3 1c-3 0-4-2-1-4l2-5v-3Zm152 32c-1-1-1 1-2 4a405 405 0 0 1-15 44c0 2 3 7 5 7l3-8c4-13 10-44 9-47Zm14 44c-1-1-8 19-8 22 0 2 2 1 4-1l4-21Zm-158 53-4 3a375 375 0 0 1-112 60 369 369 0 0 1-46 20c-8 2-29 12-32 15l-1 2 15-5 63-24a798 798 0 0 0 118-67v-3l-1-1Zm0 11-9 6a424 424 0 0 1-34 24 168 168 0 0 0 43-30Zm-554 22 3 3c16 10 25 15 40 19l24 8a306 306 0 0 0 63 17 1094 1094 0 0 0 157 22c2 1 2 1 12-1 10-3 11-5 4-5l-6-1c-1-2-1-3 5-4a213 213 0 0 0 31-6 412 412 0 0 0-3-1c-13 2-39 4-69 3-34 0-44 0-60-3l-39-6a576 576 0 0 1-125-37c-7 3-22-1-33-7l-4-1Zm331 65-6 1c-4 0-10 1-14 3-7 2-7 2-4 2l6 1h12c2 0 3-2 4-4l2-3Zm-143 2 34 7h44l5-1h-4l-23-1a259 259 0 0 1-56-5Zm180 3-5 1-12 3c-8 2-12 4-6 3l8-1c3 0 16-5 15-6Zm-178 9c1 2 23 5 44 5h20l-13-1-51-4Z"/>
  </g>
  <g fill="#FFF">
    <path d="M663 129c-4 0-6 4-6 8 2 13 7 23 17 41l4 8c-3 2-6 6-3 10 5 9 13 17 22 22l6 8 5 9 2 2c3 5 7 9 11 12l13 19 2 4 3 3 2 4c11 19 17 28 26 38l2 2 5 4c4 2 9 1 12-3l2-4c0-5-2-10-5-14l-8-10-1-2-5-5-8-9-2-2-8-9h8c3-1 6 0 13 5l2 1 7 4c7 3 13 1 18-5 2-4 3-8 2-13l-5-9-4-5-6-8c-7-12-22-16-32-6l-7-6-2-2c-5-6-8-8-11-10s-7-2-10 1l-5-13v-1l-1-2-2-7c-4-11-16-13-23-5l-2-3-2-5-1-2-2-2c-9-18-13-27-15-37-1-4-4-7-8-6Zm105 108 5 4-2-1-5-2 2-1Zm-21 4h1l3 1v1h-1l-3-2Zm39 18 1 3h-1l-2-1 2-2Zm23 202c-2-1-5 1-6 3l-7 10c-5 5-6 7-8 11-3 4-5 9-6 15-3 28-2 53 3 77a7 7 0 1 0 14-3c-5-22-6-46-3-72 1-7 3-11 10-19l9-12a7 7 0 0 0-3-10h-3Zm41 24c-4-1-7 2-7 6-2 26-5 49-9 71a7 7 0 1 0 13 3c5-23 8-47 10-73 0-4-3-7-7-7Zm154 19c-4 0-7 3-7 7l-1 17a490 490 0 0 0 7 77 1417 1417 0 0 1 4 44v2l4 30a7 7 0 0 0 14-3l-4-28v-2a385 385 0 0 0-5-45l-2-16c-3-32-5-53-3-75 0-4-3-7-7-8Z"/>
    <path d="M1002 393c-3 0-5 1-6 4-6 12-9 22-17 43l-1 1-6 17c-2 5-5 6-14 5h-15c-7 2-11 6-14 12-3 10-2 20 5 29 4 6 9 11 20 21l9 9a76 76 0 0 1 11 12v1h1v1h1l1 1 4 1 6-5v-4c4 1 8-1 8-5v-1l1 2c1 7 11 8 13 1l6-15 13-37c4-14 6-27 5-40 0-6-8-9-12-4l-3 7-1-10v-1l-1-21c-1-8-4-15-8-21-1-2-4-3-6-3Zm-53 83 6 1h11v2l-3 4-3 6v2l-1 2c-5-3-11 3-9 9-8-9-10-15-8-21 2-4 3-5 7-5Zm32 18 2 2 1 1v5l-1 7-2-13v-2Zm25 77c-3 1-6 3-6 6-1 8-3 13-7 27l-2 4-3 9c-2-1-6-1-8 1-7 7-10 16-11 29a228 228 0 0 0-1 15c-1 8 11 10 13 3l5-13c1 2 3 4 5 4 2 5 8 6 12 3 0 8 12 8 13 0a298 298 0 0 0 3-56c1-4-2-6-5-7l1-4c1-6 0-11-1-16-2-4-5-5-8-5Zm108-159-3 2c-4 3-6 7-8 14v1l-2 5v3c0 2 1 5 4 6s5 1 7-1c2 10 5 18 9 25 1 2 3 3 6 3 2 0 5-1 6-4 3-1 6-3 5-7l-1-15v-5l-1-19c0-4-4-6-8-6-3-2-6-2-8-1-2-1-4-2-6-1ZM937 730c-2 0-4 1-5 4l-3 6-3 6c-9 18-14 29-15 41l-1 12v2l1 5v1c2 5 7 7 11 4l2 10c1 6 10 7 13 1 6-13 10-23 12-33 2-8 3-16 2-23l3-8c2-8 2-16-3-21-2-2-4-2-6-2-1-3-4-5-8-5Zm85-22h-3c-4 1-6 4-5 8l4 31v1c1 19 2 28 5 39 2 5 8 7 12 4 4-4 6-8 8-13l3-14v-1l2-7c2 6 2 15 0 27-1 9 13 10 14 1 2-15 4-29 8-43a7 7 0 1 0-13-4l-1 3-4-4c-3-2-7-2-10 1-5 6-7 11-9 22l-1-13-5-33c0-3-3-5-5-5ZM769 254h-8c-3 0-6 2-7 5v3l2 7 5 4 2 1c3 2 8 1 10-2l1-4 1 1v1c0 4 3 7 7 7s7-3 7-7c0-6-3-11-8-14-3-2-7-2-12-2Z"/>
    <path d="M1036 409c-2 0-5 2-6 4-3 6-3 11-1 21l-2-2h-17c-3-1-7 1-9 3-3 6-5 11-7 22v1l-1 2-1-2v-1c3-9 2-17-4-22-3-3-8-3-11 1-8 12-12 25-10 38 1 4 4 7 8 6 2 0 4-2 5-3l1-1v9c0 6 7 9 12 5 4-4 7-8 10-14l4-15v-1l5-14h10v1l-3 9a347 347 0 0 0-1 2c-4 8 6 14 11 8 7-8 12-15 15-23 2-5 3-9 3-14l-3-15c-1-2-3-4-5-4l-3-1Z"/>
    <path d="M1041 429c-2 0-5 2-5 5l-5 14-4 10c-6 13-15 26-26 37l-1-3-1-6c0-5-5-8-9-6h-1c-1-2-3-4-6-4-4 0-7 2-8 6l-1 12v3c1 3 1 5 3 7 3 3 8 3 11 0h1c2 4 6 7 11 8l6-2 21-24c2 1 6 1 8-2l3-3c2 2 5 3 8 0 8-6 12-13 19-27l1-1 3-8a7 7 0 1 0-12-6l-4 8-6-1 2-8c1-6-3-9-8-9Zm-186 37c-4 1-7 4-7 8 2 19 1 35-4 68-4 18-7 36-6 54v1c0 5 3 7 7 7 3 0 7-2 7-7l3-33h1c1 3 3 6 6 7 4 2 8 0 9-5l4-15c8-32 12-48 13-67 1-7-8-10-12-5l-13 19-1-25c0-4-3-7-7-7Zm14 49-7 32h-2l-3 1 1-3c3-11 6-21 11-30Z"/>
    <path d="m864 520-5 3c-4 6-7 13-9 20l-2 6c0 5 3 9 8 9l4-1c2 1 4 2 7 1 3 0 6-3 8-5l5-8 1-8c1-4 1-7-1-9l-4-3-5-1-2-3a7 7 0 0 0-5-1Zm141-234c-3 0-7 2-7 7a334 334 0 0 0 0 47 7 7 0 0 0 10 5h2l1 14c1 4 4 6 7 6v8c-1 3 2 7 6 7s7-3 8-7a197 197 0 0 0 0-33v-28c0-5-4-7-8-7l-3-1c-1-2-4-4-7-3l-2-1v-7c0-4-4-7-7-7Zm-21 235-3 1c-4 1-6 5-5 8l3 10 1 5c5 17 8 26 15 36v3l1 2 5 21a7 7 0 1 0 13-5l-4-19-1-2c-3-17-6-26-12-35l-3-2v-3l-2-4-2-11-6-5Zm-50-235h-3c-5 1-7 2-15 7l-2 1-8 3c-10 2-17 7-21 16-3 6-4 12-7 25v3c-3 13-5 20-8 25-3 4-4 7-4 12v4l4 13 1 1 3 10c0 4 4 7 7 6 4 0 6-3 7-6l1-1c4 2 8 0 10-4 1 7 3 13 6 19 5 10 16 15 26 12 11-3 15-14 8-25-3-5-4-9-5-15l3-16 2-16c0-6-1-11-3-16 10-15 14-30 10-45-2-8-6-13-12-13Zm-2 14 1 2v1l-6-1 5-2ZM145 677c-4 0-8 3-7 7 0 8 2 15 5 23l-1 2 1 3v2h1l3 5 3 3v1l6 11 3 5c1 2 3 3 5 3l5 7 8 19c7 13 13 23 22 33 4 5 12 1 12-5l-1-3-2-7c2-1 3-3 3-5l-1-3-11-27c-2-3-4-4-7-4l-2-5-9-20c-2-3-5-4-8-3l-8-20v-1l-5-13c-4-5-9-8-15-8Zm309 257h-16l-12 1c-5 0-8 4-7 8-13 0-20 0-28 3-6 2-7 10-1 13a120 120 0 0 0 44 15h1c4 0 6-2 7-5 16 2 25 3 36 2h3l4-1 9-2 3-3c1-2 2-5 1-7-1-3-3-4-6-5l-1-1 5 1a641 641 0 0 0 49 1c12 1 22 4 31 8a7 7 0 0 0 6-12c-11-5-22-8-35-10a289 289 0 0 0-50-1l-31-4-12-1Z"/>
    <path d="M1019 502c-2 1-4 2-5 5-4 8-5 15-6 31v2c-1 13-2 20-5 27l-1 3c0 2 1 5 4 6h5c1 2 3 3 5 3 4 0 7-3 7-7l3-17c1 0 2-1 2-3 3-6 4-12 4-20v-9c0-4-2-6-4-7l-1-7c0-5-4-7-8-7ZM754 258c-1 0-3 0-5 2l-2 6 1 6 7 5 6 2 4 1 1 1 3 1c7 0 11-9 4-13v-1h-2l-1-1-11-7-5-2ZM135 616a177 177 0 0 0 10 97l2 7c3 7 14 5 14-3l-1-7 2-1c3-2 4-6 2-10-4-6-7-12-9-20v-2l-1-4-2-20c-6 0-11-5-13-11l-4-22v-4Z"/>
    <path d="m131 596 1 5-1-5Zm1 6c3 14 5 30 8 57l1 6 6 47c1 4 5 6 9 6 3-1 6-5 5-8l-6-46-1-7v-3c-7-1-13-5-15-12l-4-22v-1l-3-17Zm638-370a7 7 0 0 0-7 7h-2l-5-2-5 1c-5-2-9 2-9 6 0 2 0 4 2 5l6 7 9 10 5 7 4 6a7 7 0 0 0 11-9l-3-4c-3-6-5-8-8-11l-1-1a9 9 0 0 0 6-5v-1h1c3-1 5-5 4-8l-1-3h-1a7 7 0 0 0-6-5Zm159 61c-3 1-6 4-6 8v1l-1 8-2 6a7 7 0 0 0 14 3l1-5 1-2v-3l1-1v-8c0-4-4-7-8-7Zm-65 190c-3 0-6 4-5 8l1 13v1l1 15 2 3-1 4a7 7 0 0 0 14 1l1-7 1-8-1-6c0-2-1-4-3-5l-1-14c-1-4-5-6-9-5Zm158-49-4 2c-3 0-6 2-7 6l-3 9a85 85 0 0 0-2 7c-1 4 3 8 8 7l4 1c2 0 5-2 6-5l2-8 2-9a7 7 0 0 0-3-9l-3-1Zm-53 10-4 3-2 4-3 3-2 7v1l-2 3a7 7 0 0 0 4 9l3 1c2 0 5-2 6-4l1-3h1l2-6 3-7a7 7 0 0 0-7-11Z"/>
  </g>
  <path d="m722 87-12 1h-14c-6 0-8 2-16 10l-9 8c-4 3-13 24-14 26a60 60 0 0 0 0 44s-1 0 0 0l2 5 13 22 2 4a666 666 0 0 0 59 89l12 16 12 18 13 22c8 10 12 17 13 23l-2 15a147 147 0 0 1-2 13l-3 16-2 9-6 28-2 47v3l5 47 1 6 1 3c3 17 6 25 12 34l2 4 1 1c6 10 11 15 16 19l2 2 10 7c16 9 30 12 43 5l13-10c9-7 13-11 20-13l3-2 1-1 7-2c3 1 6 3 7 6l2 11-2 14c0 3-2 5-5 4l-5 5c-16 11-27 17-40 20l-14 5-3 1c-5 3-8 6-11 10l-13 20c-3 7-4 13-2 20 2 9 6 18 15 32l2 3c4 7 10 12 23 20l1 1a384 384 0 0 1 8 4l2 1 9 6c3 3 5 7 5 11 1 2-1 4-2 5-2 3-4 8-8 12v1l-1 2-9 11-2 3-8 10c-4 6-10 11-17 15-5 4-11 6-20 10l-9 3c-57 23-82 33-114 44-24 7-41 12-58 15-21 4-41 5-59 2l-52-5-40-3-8-1-42-6a524 524 0 0 1-94-47l-1-1-22-14c-10-6-16-11-31-24-11-9-15-13-22-17-9-7-15-14-27-30l-13-16c-20-23-32-40-38-60l-15-32h-1c-10-19-14-28-17-39l-8-28v-1a504 504 0 0 1 2-313c-4 2-6 4-7 6a335 335 0 0 0-53 151v1l-2 21a321 321 0 0 0 4 102c1 17 2 25 5 34l8 29v2a649 649 0 0 0 13 47l1 4c6 20 10 31 17 41v4l4 8v1l4 8c15 25 34 54 49 73l1 2a224 224 0 0 0 40 40l9 7 24 20a193 193 0 0 0 56 38l3 2a405 405 0 0 0 191 53 448 448 0 0 1 36 6h34a550 550 0 0 0 157-26l7-1a294 294 0 0 0 101-49l5-3 21-14c21-13 35-25 47-39a249 249 0 0 1 21-23l18-20c7-8 10-15 11-21 0-3 2-5 5-5l4 2c2 0 4 0 5 3l10 13c4 3 6 7 11 14v1c6 11 9 14 15 15 13 2 27-9 38-25 6-9 8-18 10-37v-2l2-17c3-20-1-42-11-70l-1-2-2-4-5-16-2-11-1-4v-4a43 43 0 0 1 2-19l2-9 9-38 1-5 1-3 2-15 2-10v-2a471 471 0 0 1 8-30c3-6 8-10 14-11l15-1c6 0 11-1 22-5a250 250 0 0 1 8-2c4-2 6-6 11-13v-1l4-6c7-10 11-19 11-29 0-12-3-22-12-41l-2-4-2-5c-3-7-7-12-15-23h-1l-10-14c-3-5-6-8-14-15h-1l-8-8c-12-12-19-18-27-23-17-9-100-68-112-77v-1l-13-9c-12-9-48-54-50-58-6-10-16-19-29-25a191 191 0 0 0-32-12 431 431 0 0 1-77-34l-5-6v-1h-1l-1-2c-7-6-15-8-27-7Zm-15 9-2 2c-2 3-2 5-1 12 0 5 0 5-1 4l-2-3c0-2-3-6-6-7-3 0-6 2-8 6l-5 4c-4 2-6 4-6 9 0 3 4 8 7 9 2 1 2 2 2 5l3 6c7 7 17 6 22-3l4-6c3-3 16-6 26-6 8-1 10-1 12-3 3-2 4-2 7-1 4 1 6 1 6-2s1-3 6 1c7 7 21 12 41 16 5 0 10 2 12 3 5 2 21 12 26 17 12 9 13 9 12 13l-2 11-2 10c-1 4-1 26 1 32v26l-2-1c-2-1-2-2-1-6l-1-7c-2-7-10-12-18-12-6-1-8 1-10 7l-2 6c-1 2-1 2-4-1-5-5-13-4-19 3-4 4-5 4-5 0 0-6-6-12-11-12-4 0-5 1-7 4l-3 2c-2 0-3 1-4 3-1 3-2 4-6 5-6 2-11 5-11 8l4 6c4 5 5 5 5 11 0 14 5 23 16 31 3 2 3 2 2 11 0 19 0 21 2 27l7 9c8 6 12 6 21 1 6-4 10-4 11 0 3 10 19 11 26 1 4-7 4-13-2-20l-2-3 5-9c4-10 4-10 4-16-1-7-1-7 2-9l9-7 9-5c7 0 15-8 17-16 1-5 2-5 5-5s3-1 5-4v-6l-2-3 4-1 12-3h8l3 5 12 15 23 30c12 22 20 34 30 46 4 5 5 6 4 7l-2 4c-1 5-3 9-4 9l-4-3c-3-3-3-3-3-11 0-6-1-8-2-10-3-3-9-6-12-5-6 2-7 7-1 14l4 9c1 9 4 13 10 14 2 1 3 2 2 5 0 5 2 9 9 19 4 7 5 9 5 12s-1 3-3 4l-3-1c0-2-5-6-7-6l-1-4c-1-4-3-7-8-9-3-2-3-1-6 1-2 3-2 8 0 13 3 5 6 7 9 7 4 0 5 3 3 6-2 2-2 5-2 7 0 4 0 5 5 9l8 5 10 4c6 3 8 3 12 0l4-3 2 4 4 3c2 0 2 1 2 3l1 4 1 4c0 6 5 10 7 4 1-4 3-2 3 3 0 6-1 11-6 18l-4 11-2 6h-2c-3 0-1 7 2 7s2 2-1 3-3 2-3 4c1 3 1 4 4 4l4 2h11c3-3 6 1 6 1l1 4c3 7 1 17-7 39a869 869 0 0 1-21 55c-3 5-3 6-2 10 2 5 0 11-5 16s-7 9-7 15c0 4-1 5-3 2l-13-1c-4 0-4 0-4-4s-3-7-7-8c-4 0-5-1-8-6l-4-5 2-2 2-2 1 2 3 4c1 2 2 2 4 2 3 0 4 0 5-3l4-6c4-4 4-9 0-13-1-2-4-3-5-3l-2-1-5-1c-5 0-5 1-7 3l-2 6-5 11h-4c-3 0-3 1-4 5-2 4-3 7-7 9h-4c-1-2-1-4 1-6 4-5 4-7 3-9l-2-2c-2 0-2-1-1-3 1-7 1-8-1-14l-4-16c-1-10-2-13-5-15-2-1-2-2-1-11 0-9 0-9-2-12-3-2-4-3-7-3l-6 1c-1 0-2 0-3-2-2-2-2-2 3-12 3-7 5-10 9-14 3-2 6-6 8-10 2-5 6-8 14-11l19-14c2-1 2-3 2-4l-4-16c-2-5-2-6 0-11 1-6 1-6 5-5 6 0 11-1 13-4 1-2 1-3-1-8-3-8-13-20-19-22-3-1-3-1-3-4l2-9v-11c-2-7-6-13-12-14-3-1-5-1-12 2-8 3-8 3-14 2-16-3-27 8-30 31-1 7-4 4-5-4s-4-13-12-16c-5-2-6-2-8-8-4-11-9-15-18-15s-12 7-6 14c7 7 6 6 5 10-3 5-2 9 2 13 5 5 6 8 1 13s-5 5-12-10c-5-11-11-22-17-28-2-2-3-3-5-3h-2l-2-1c-2 2-1 5 2 9 5 5 16 22 21 31 3 6 3 7 2 9-1 1-1 1-3-1-1-4-5-5-8-3-2 1-2 1-1-1l1-14c-1-3-4-4-4-2l-3 2c-3 0-5 4-14 31-5 15-6 18-7 30l-2 21v50c2 21 1 29-1 13l-3-21c-2-9-2-12-2-38a307 307 0 0 1 11-94c0-3 0-3-2-2a307 307 0 0 0-20 136c0 10 1 15 11 43 5 13 5 14 3 11-11-12-20-51-18-71l2-42a285 285 0 0 1 9-76l2-18c1-10 2-12 3-12 3-1 3-4 0-7l-2-4c0-2-4-8-6-10-8-6-21-28-30-49l-9-20a153 153 0 0 0-29-36l-8-9 3-2c5-3 2-11-4-10l-3 3c0 2-2 1-7-7a159 159 0 0 1-31-68l-3-11c-2-8-1-10 2-18 4-7 9-12 20-20 7-4 18-9 19-8Zm177 95 18 22 2 3-2 2c-4 2-6 5-6 7l-2 6-2 5-1-6c-1-6-3-13-8-20-4-7-5-12-2-16l3-3Zm75 65 5 5 22 21c17 16 18 16 19 22 4 15 9 23 19 32l11 11 11 13c4 5 6 8 9 18l7 20a637 637 0 0 1 6 57l-5-27c-6-30-14-52-22-63a447 447 0 0 0-29-33l-12-13 5 9 8 12 2 3h-2c-5 0-17-17-28-37l-7-12-6-9a631 631 0 0 0-13-29Zm86 35 3 2-3-2Zm-36 13a317 317 0 0 1 41 38c9 8 17 19 19 30l5 16 2 9-11-21c-2-6-10-17-17-25l-8-9-5-6c-14-13-26-28-26-32Zm-888 35-2 8c-2 10-9 38-9 43-5 36-4 37-3 92s0 62 5 85c7 36 11 47 27 84l11 26 13 29 15 26a588 588 0 0 0 44 74c2 2 8 9 10 14a140 140 0 0 0 47 47l7 3c3 0 8 2 8 3h-2c-3-2-3-1-1 3l3 6 1 4-18-14c-5-6-8-7-8-4 0 2 11 13 20 20 13 11 13 11 15 10 2 0 2 0 0-3-4-3-4-5 0-2l4 2 8 4 13 8a14634 14634 0 0 1 70 35 634 634 0 0 0 83 20c10 2 11 3 7 3l-14-2a4242 4242 0 0 0-48-8 954 954 0 0 0-38-13l-13-5-8-4-4-2-4-3c-3-2-6-3-6-1l11 9a374 374 0 0 0 60 27l24 6c14 4 13 4-8 3-17-1-37-6-37-9s-11-7-18-7c-3 0-6-1-24-11l-13-7a1064 1064 0 0 0-52-36c-23-17-40-33-52-47l-25-31a343 343 0 0 1-43-65l-13-22-13-24c-9-16-16-30-20-42-4-11-5-14-2-14 1 0 2-3 1-5l-3-1c-2 1-3 0-6-10a1026 1026 0 0 0-13-45 308 308 0 0 1-10-35v13a789 789 0 0 0 16 54l3 14a364 364 0 0 1 12 38l4 12a324 324 0 0 1-41-175l4 10c3 10 5 15 8 16 2 1 2-2 0-5l-2-6-3-10c-5-17-7-45-5-76a339 339 0 0 1 27-107Zm949 3 3 2 25 20c8 8 9 9 17 25 8 17 15 34 18 50 4 13 4 32 0 43l-3 10-3 1-1-18v-18l-6-20c-8-32-12-42-22-60-2-4-3-6-4-5-3 1-2 6 3 15a262 262 0 0 1 21 74 459 459 0 0 0-31-85l-15-30-2-4Zm60 55 2 1c4 6 12 17 16 26 6 11 7 18 7 29 0 6-2 12-3 17l-2 7-1-8c-1-16-8-42-14-59l-5-13Zm29 11 2 6-1-5-1-1Zm-337 12-2 13a486 486 0 0 0-4 104l2 52a481 481 0 0 1 10 31l-9-13c-5-10-8-25-9-50l-2-22a504 504 0 0 1 4-86l10-29Zm-692 3a475 475 0 0 0 24 183v1l8 28c3 11 7 19 16 37l5 8-8-15c-2-2-5-9-7-16l-7-20-6-20a1445 1445 0 0 0-16-62c0-6-2-13-3-16l-1-10-1-11c-4-21-5-50-4-84v-3Zm733 9 3 2 10 6 9 7c0 2 3 5 6 7 5 4 10 12 10 15l-3 9c-5 10-6 17-2 24 3 4 3 6 2 7-1 3-1 2-3-1l-11-14-3-4c-3-10-11-25-15-33l-12-23 3-1 4-1h2Zm233 2 3 9c2 12 5 26 6 40v9h-2c-5 0-6-1-5-3l1-11-1-13-2-13v-18Zm-20 11 1 1a63 63 0 0 1 2 24v7l-1-13a300 300 0 0 0-2-19Zm94 16c-2 8-5 17-11 25l-4 6-1 1-5 8 8-7c10-10 13-18 13-33Zm-320 1 4 10 3 6 4 7c1 5 2 6 4 7l4 1 3 8h-2c-2-1-2-1-2 2l1 7 3 15 7 29a133 133 0 0 1 4 44l-1 4v-4l-5-28a632 632 0 0 1-17-78c-2 0-3-1-4-7l-2-6c-2 0-5-16-4-17Zm236 3v20l-2 4v-5l1-12 1-7Zm27 9c1 1 3 11 2 14-1 7-2 5-3-5 0-6 0-10 1-9Zm-283 2 2 3 2 5v15a305 305 0 0 0 16 99c-5-12-11-38-15-61-1-9-2-10-3-8l-2 6v5l-1-1-1-12c-1-9 0-31 2-45v-6Zm25 22v3l3 12a741 741 0 0 1 15 84l-13-41c-5-23-8-51-6-55l1-3Zm-16 2 5 2 4 2v15a229 229 0 0 0 23 90c0 2 0 2-2 2-3 0-3-1-7-10-11-23-15-35-17-57a1979 1979 0 0 0-6-44Zm49 32 1 1c3 0 5 8 7 22v22c0 9-2 10-2 2a305 305 0 0 0-6-47Zm189 24-1 7c-1 8-1 12-3 17l-1 3a3084 3084 0 0 1-9 41l-2 11-2 14v1h1l3-15c8-34 12-51 14-77v-2Zm-255 2a284 284 0 0 0 17 64c-2 0-9-15-10-24l-4-17c-3-11-5-23-3-23Zm11 4 3 16 2 13a205 205 0 0 1-5-29Zm204 54 3 4 4 6c1 2 1 3-1 16-1 7-2 8-4 9-2 0-3 0-2-2v-15c-1-2-4 1-4 5a918 918 0 0 1-19 67v-16a1248 1248 0 0 0 3-28l6-19 3-9 4-6 5-9 2-3Zm-126 30c0 2-30 33-34 36-7 4-19 17-28 29-8 10-11 15-12 23 0 5-2 7-2 2s6-22 10-30c6-11 12-18 17-20 3-1 4-3 4-4l4-4c6-3 24-17 29-22l12-10Zm41 4c2-1 4 1 8 5l6 6-1 5c-1 6 0 10 4 12 3 1 5 1 10-2l5-2 2 4 4 5 3 3-2 12c-1 18-4 28-9 34-2 1-2 2-1 3 2 2 4 1 6-3s3-4 3-3c4 7 12-4 15-21l2-6v6c0 8-3 28-7 37-6 16-16 34-23 42l-20 27c-8 13-21 29-30 37-8 7-15 11-32 22a1137 1137 0 0 0-13 4c8-8 18-20 30-38l23-30c2-3 2-4 0-5-2 0-9 6-14 14l-16 21-5 4-7 5c-6 7-8 7-7 2l8-10c10-10 14-17 13-21-1-3-5-2-10 3l-6 5 4-6c10-14 18-27 22-36 6-12 15-39 17-53 2-11 8-30 10-35l5-18-1-2c-2 0-2-7-1-10l2-10c1-5 2-7 3-7Zm109 14 6 18v2l-5-16-1-4Zm-155 1v1l-14 15c-17 16-33 36-40 48-4 9-5 15-4 26l1 9c-1 1-4-6-5-13-2-8-2-19 1-18 1 1 5-5 12-17 4-9 6-11 35-38l14-13Zm128 5 6 4 5 9 3 8c5 9 7 14 9 39 0 3 0 4-1 2l-1 2-2 24c-2 35-3 45-7 54-3 7-5 7-3 1 5-19 8-76 5-104-1-12-4-22-7-23-2 0-3 7-3 16a522 522 0 0 1-13 113l-4 10-2-2c-1-1-1-2 1-7l3-11a438 438 0 0 0 12-121l-2 1v18c-1 25-3 27-3 3v-22c0-4 3-14 4-14Zm-123 3a611 611 0 0 1-10 14v-4l5-6 5-4Zm14 6-6 12-5 10-2 4c-2 3-2 6 1 7 1 1 2 2 1 4v5l-3 5c-2 2-3 4-2 5l1 4c0 2 0 2-3 1-5-1-9 2-12 8-1 3-3 5-5 6l-2 4c0 3-3 5-6 5-2-1-3 0-4 1-2 3-2 5 0 5l1 2 2 4 1 2-4 2c-3 2-4 2-5 1-4-6 0-18 17-44a384 384 0 0 0 20-32 279 279 0 0 0 15-21Zm-84 18-1 3a113 113 0 0 0-11 21c-2 6-2 6-2 3-2-4-1-12 1-16 1-4 6-8 12-11h1Zm48 2-1 4c-2 3-1 6 0 6l1 1c-1 2-2 2-3 1l-3-1-2-1 8-10Zm-694 9a112 112 0 0 0 1 3l-1-3Zm677 4-4 7a260 260 0 0 0-14 23l3-9 15-21Zm147 6c1-1 0 15-3 27l-8 27c-3 9-6 18-8 20l-2 4-1-4v-9l2-10 7-21a498 498 0 0 0 13-34Zm41 2c1-1 7 20 8 28 3 17-3 47-11 64l-4 6-1 1 10-40a193 193 0 0 0-2-59Zm-191 10v3l-2 5c-2 2-1 4 2 4l2-1-4 10a203 203 0 0 0-7 19c-1 0-2-6-2-14s0-9 2-11l5-8 4-7Zm213 17-1 16-2 17-1 2c-1 20-4 31-10 41l-4 5c4-4 8-8 10-12a156 156 0 0 0 8-69Zm-61 14a220 220 0 0 1-12 56l-5-7a1604 1604 0 0 1 17-49Zm-767 31Zm781 15-4 20c-1 3-4 3-4 1l8-21Zm-56 2c-2 6-6 12-11 19l-19 20-2 2-19 20-4 5c7-5 14-10 21-17 13-14 22-26 35-47l-1-2Zm-102 50 1 1 1 3-33 22a797 797 0 0 1-164 74l1-2c3-3 24-13 33-15l15-7 10-4 20-9a2091 2091 0 0 1 62-27 375 375 0 0 0 54-36Zm1 11-3 3a168 168 0 0 1-45 29l14-9a425 425 0 0 0 34-23Zm-555 22 4 1c11 6 27 10 34 7 2-1 4 0 11 3a350 350 0 0 0 47 18 576 576 0 0 0 257 17l16-4-5 2a1446 1446 0 0 0-46 11l-16 3c-5 1-6 2-5 4l6 1c8 0 6 2-4 5-10 2-10 2-11 1l-41-4-29-3a1094 1094 0 0 1-175-40 140 140 0 0 1-43-22Zm331 65-1 3-4 4h-13l-6-1c-3 0-2-1 4-2 4-2 10-3 14-3l6-1Zm-142 2 18 2c14 2 23 3 38 3l23 1h4l-5 1a267 267 0 0 1-78-7Zm180 3c0 1-13 6-16 6l-8 1c-6 1-2-1 6-3a149 149 0 0 0 18-4Zm-178 9 50 4 14 1h-20c-22 0-43-4-44-5Z"/>
  <path d="m976 586-3-5-5-8c-5-6-5-9-4-22l1-11-2-4c-4-5-4-7 1-14 7-10 14-34 17-54 0-6 3-10 7-10s5 2 6 6l1 6 3 10 2 8 1 3 2 3 3 5 2 7c3 8 0 17-6 21-3 2-4 2-4 5l-1 6c-2 2 0 3 2 2l8-1c7 0 8 1 10 3 3 3 4 7 3 10s-8 8-13 9l-4 2-4 7-6 9c-4 7-12 11-17 7Z"/>
  <path d="m821 188-4 2-4 1c-4-1-2 2 3 5 4 2 4 2 2 6l-1 5c0 2-1 2-2 1l-2-2c0-3 0-4-2-3-4 0-5 3-2 7l5 3 2 1c1 2 4 2 6 0l8-2c7 0 9-2 7-5l-1-3c0-2-3-5-6-6l-1-2c0-3-5-8-8-8Zm63 5-3 3c-3 4-3 8 2 15 4 8 7 14 7 21l1 5 3-4 2-7c0-2 2-4 6-7l2-1-2-4-18-21Zm-143 9c-5 0-6 2-6 7 0 3 0 5 2 6 3 2 7 1 10-1 4-4 0-12-6-12Zm53 5c-3 0-4 3-2 5 1 2 5 2 5 0 1-3-1-5-3-5Zm-6 6c-4 0-7 5-4 8 3 4 10-1 8-6l-4-2Zm-42 8c-2 0-3 1-3 2l1 4c2 1 2 1 4-1s0-5-2-5Zm4 8c-2 0-2 1-2 3v3c2 1 5 0 5-1 1-2-1-5-3-5Zm161 17h-2l-4 6v7c3 5 6 11 4 11s-3 3-3 5l4 1c2 0 3 1 3 3v4h3c2 0 3 0 3-2 1-3-1-6-3-6-3 0-3-3 0-4s2-5-1-8c-2-1-2-3-2-3l3-3c2-2 2-3 1-6s-4-5-6-5Zm-24 37-2 1-2 3-2 4c-1 2-2 2-6 2-14 0-21 16-10 23l7 1c3 0 4 0 8-4 3-3 4-4 6-3 4 1 6-3 3-6l-1-3c-1-2 4-9 5-9 2 0 2-1 1-2l-2-4c0-2-3-4-5-3Zm26 3c-3 0-5 4-3 7 2 4 8 2 8-2 0-3-2-5-5-5Zm-11 8-4 3c-2 3-2 4 1 6 2 3 4 3 6 1 3-2 3-6 1-8l-4-2Zm-13 25c-3 0-5 2-3 5 0 2 2 2 3 2 3 0 3-1 3-3 1-2 0-3-1-4h-2Zm0 13h-1c-3 1-4 4-2 6 2 3 3 3 6 1 3-3 1-7-3-7Zm42 33c-1 0-2 0-3 2l1 3c1 2 2 2 4 0 2-1 2-2 1-3l-3-2Zm86 128c-1 0-3 1-3 4l-1 3c-1 1 0 5 1 6l3 1 3-1c2-1 2-5 1-6l-1-4c1-2 0-3-1-3h-2Zm10 25h-2v8c-1 1-1 1-2-1-2-3-6-4-8-2-3 2-3 5-1 8 2 2 5 2 8-1l2-2 1 3c0 2 1 2 4 2 4 0 6-3 3-7l-1-5c-1-2-3-4-4-3Zm-25 66c-3 1-10 5-11 8-1 4 3 17 6 20 3 2 4 3 7 2 2 0 5-1 6-3 3-2 5-8 4-10l-1-5c0-3-1-5-4-8l-7-4Z"/>
</svg>