<svg xmlns="http://www.w3.org/2000/svg" version="1.1" xmlns:xlink="http://www.w3.org/1999/xlink" xmlns:svgjs="http://svgjs.com/svgjs" width="1090.78" height="922.72"><svg xmlns="http://www.w3.org/2000/svg" style="enable-background:new 0 0 1208 1208" viewBox="78.47 77.58 1090.78 922.72">
  <path d="m522 1000-27-3a26307 26307 0 0 0-45-7c-27-3-41-6-49-9-11-4-36-16-47-22a5941 5941 0 0 0-18-10 219 219 0 0 1-26-16c-20-11-33-20-41-27l-15-11c-5-3-12-7-16-11-11-8-15-13-46-50-22-27-61-90-71-113-14-35-20-54-34-112-9-37-10-56-7-108l2-41c1-21 10-62 11-69a311 311 0 0 1 42-92c2-2 16-19 20-15 2 3-8 32-14 52a467 467 0 0 0-2 211l3 18 19 63 35 83a226 226 0 0 0 42 63 1145 1145 0 0 1 15 18l21 21 23 22c17 16 33 26 76 47l27 14c6 6 25 13 50 19 20 4 17 4 72 11a498 498 0 0 0 100 3c24-4 49-8 59-11l56-22 42-14c21-7 27-10 44-20s29-21 40-33c10-12 18-26 17-28 0-1-4-10-8-10s-14-7-18-9c-10-4-20-16-25-27l-8-14c-5-7-6-8-8-18-3-13-3-19 2-27 6-13 12-17 40-30 24-11 37-18 47-25l6-4-1-13c0-18 0-18-5-11-3 4-6 6-13 9-5 3-14 5-15 8-1 5-6 10-14 12-5 2-6 3-15 2-8-1-9-1-17-6l-12-9-11-7-14-12c-13-13-19-25-24-53-3-14-3-18-3-35a423 423 0 0 1 12-115l6-32c-1-7-5-15-15-25a920 920 0 0 0-76-108l-10-17c-10-12-12-17-20-37-8-19-11-28-11-35 0-12 5-32 8-38 7-12 24-25 42-34 4-2 7-3 18-3 12-1 15 0 22 2 14 3 21 8 33 24 5 5 10 9 19 11l22 7c10 1 20 4 28 8l15 7c14 5 19 8 29 19l15 15a371 371 0 0 1 53 61l12 9 19 11 22 14c21 12 35 22 50 36 8 7 16 15 19 16a398 398 0 0 1 83 90c4 10 9 30 10 45 1 21-1 29-13 41-14 14-21 16-42 16-14 0-14 1-22 4-4 1-9 4-9 5-3 4-6 14-6 20l-1 18c-2 27-5 44-14 77l-4 21 3 13c5 11 7 19 10 35l6 24c4 17 5 24 5 36 0 18-4 41-9 53-4 9-19 22-32 27l-11 4c-7 3-10 3-16-1-9-4-14-11-24-30l-6-13-2 4c-15 23-24 35-38 50-11 12-20 18-34 27-14 7-29 17-39 24a497 497 0 0 1-113 62 399 399 0 0 1-99 22c-5 2-15 3-23 3l-24 3c-9 1-73 3-90 2Z"></path>
  <path fill="#FF6C44" d="m564 975-50-3c1 1 22 4 44 4h20l-14-1Zm-115-5a388 388 0 0 1-84-34l-11-9 6 2 4 2 4 3 8 4 13 5 17 6a950 950 0 0 1 46 11 4069 4069 0 0 1 37 5c4 0 3 0-7-2l-26-6c-23-5-50-12-57-15a716 716 0 0 1-91-47c-1 0-3 0-4-2-4-2-4-1 0 3 2 2 2 2 0 3s-2 1-15-10c-9-7-20-19-20-21 0-3 3-2 8 4 6 6 17 15 18 14l-1-3-3-7c-2-3-2-4 1-3l2 1c0-1-5-4-8-4l-7-3-10-6c-10-5-22-19-37-41-2-5-8-11-10-13l-16-24-9-17a586 586 0 0 1-34-59l-13-29-11-26c-16-37-20-48-27-84-5-23-4-31-5-86-1-54-2-55 3-91a761 761 0 0 1 11-51 274 274 0 0 0-15 40c-8 31-11 47-12 66a245 245 0 0 0 10 98c-3-1-5-7-8-17l-4-9v33a340 340 0 0 0 41 141l-4-11a262 262 0 0 1-12-38l-3-15-4-14-12-40v-13a306 306 0 0 0 15 51l3 11a1028 1028 0 0 1 11 29l3 1c1 2 0 4-1 4-3 0-2 3 2 15s11 26 20 41a838 838 0 0 1 26 47l12 20c9 15 22 34 31 45l25 30c12 15 29 31 52 47l23 17a163 163 0 0 0 42 26c18 10 21 11 24 11 7 1 18 5 18 8s20 7 37 8c21 2 22 2 8-2Zm227-1c3 0 17-5 16-6l-5 1-13 3c-8 2-12 4-6 3l8-1Zm-86-2 5-1-4-1h-23a259 259 0 0 1-56-5l34 6c9 1 36 2 44 1Zm59-2 4-4 1-4-6 1-14 3c-6 2-7 2-4 3h6c3 1 10 2 13 1Z"></path>
  <path fill="#FF6C44" d="M622 960c10-2 12-4 4-4l-6-1c-1-3 0-3 5-4a213 213 0 0 0 31-7 414 414 0 0 0-3-1c-13 3-39 4-69 4-34 0-44-1-60-4l-38-5a576 576 0 0 1-125-38c-7 3-23 0-34-6-5-3-5-2-1 1 16 11 26 15 40 20l24 8a306 306 0 0 0 64 16 1094 1094 0 0 0 157 23c1 1 1 1 11-2Zm75-5 63-24a797 797 0 0 0 119-67l-1-3c0-2 0-2-4 1a375 375 0 0 1-113 61 366 366 0 0 1-30 13l-15 6a154 154 0 0 0-34 17l15-4Zm137-54c24-14 33-20 41-28 4-4 4-4-7 4a425 425 0 0 1-34 24Zm61-28c17-10 24-15 32-22 9-8 22-24 30-36l20-27a133 133 0 0 0 30-79v-6l-2 6c-3 16-11 27-15 21 0-2-1-1-3 2-2 5-4 6-6 4-1-1-1-2 1-4 5-5 8-16 9-33l2-13-3-3-4-5-2-4-5 3c-5 3-7 3-10 1-4-1-5-5-4-11l1-5-6-6c-8-8-9-8-11 2l-2 9c-1 4-1 10 1 10l1 2-5 19c-2 5-8 24-10 35-2 13-11 41-17 53a234 234 0 0 1-26 41l6-5c5-5 9-6 10-3 1 4-3 11-13 21l-8 11c-1 5 1 5 7-2l7-6a204 204 0 0 0 21-25c5-7 12-14 14-13 2 0 2 2 0 5-3 2-7 8-23 30a381 381 0 0 1-33 43l16-10Z"></path>
  <path d="m1031 827 4-20-8 21c0 2 3 2 4-1Z"></path>
  <path fill="#FF6C44" d="M1025 816a521 521 0 0 0 13-113c0-10 1-17 3-16 3 0 6 10 7 23 3 28 0 85-5 104-2 6 0 5 3-2 4-9 5-18 7-53a463 463 0 0 1 4-29c-2-24-4-30-9-38l-3-9-5-8-6-5c-1 0-4 11-4 15v22c0 24 2 22 3-3a7466 7466 0 0 1 2-20 438 438 0 0 1-12 122l-3 11c-2 4-2 6-1 7l2 1 4-9Zm32-4c8-16 14-47 11-64-1-8-8-31-8-27l2 10c2 11 2 37 0 48a620 620 0 0 1-9 40l4-7Z"></path>
  <path d="M1013 809c4-13 9-44 8-48l-2 4-8 24-7 21c0 2 4 6 5 6l3-7Z"></path>
  <path fill="#FF6C44" d="m1008 773 8-27c3-12 4-29 3-28l-4 10a487 487 0 0 1-16 45l-2 11v8l1 5 2-4c2-2 5-11 8-20Zm-126 1-1-2-2-4-1-3c-2 0-2-1 0-4 1-2 2-2 4-2 3 1 6-1 6-5l2-4c2 0 4-3 5-6 3-5 7-8 12-7 3 0 3 0 3-2l-1-4c-1-1 0-2 2-4l3-6v-5c1-2 0-2-1-3-3-1-3-4-1-8l2-4 5-9c8-13 8-18 1-5l-10 13-8 14-12 18c-17 26-21 38-17 44h5l4-2Zm-20-9 5-14 4-9h-2c-3 1-4-1-2-3l2-6c1-4 0-4-4 5l-5 8c-2 1-2 3-2 10 0 8 1 14 2 14l2-5Z"></path>
  <path d="M848 755c-1-11 0-17 4-26 7-12 23-32 40-48l14-15-14 12c-29 27-31 29-35 37-7 13-11 19-12 18-3-1-3 10-1 18 1 7 4 14 5 13l-1-9Z"></path>
  <path fill="#FF6C44" d="M860 732a259 259 0 0 1 12-19c-1-1-11 13-15 20l-3 9c0 3 0 3 2-1l4-9Zm-23 2c1-7 4-12 12-22 9-13 21-26 28-30 4-3 34-33 34-35a229 229 0 0 1-41 32l-4 4-4 3c-5 2-11 9-17 20-5 9-10 25-10 31 0 4 2 2 2-3Zm-3-24 6-10c2-3 2-4 0-2-6 3-11 7-12 10-2 5-3 12-1 17 0 3 0 3 2-3l5-12Zm55 1-1-2c-1 0-2-2 0-6l1-4-8 11h2l3 1c1 2 2 2 3 0Zm129-19 15-53c0-3 3-6 4-4v14c-1 2 0 2 2 2s3-1 4-9c2-12 2-14 1-15l-4-6-3-5-2 4c0 2-3 6-5 8l-4 7-3 9a154 154 0 0 0-7 29 1112 1112 0 0 1-2 33l4-14Zm-112-10a699 699 0 0 0 0-4c-3 2-5 5-5 6v3l1 2 4-7Zm-67-61a284 284 0 0 1-17-63c-2 1 0 12 3 24l4 16c1 9 8 24 10 24v-1Z"></path>
  <path fill="#FF6C44" d="m826 615-4-12-4-13-2-53v-33a486 486 0 0 1 6-83 204 204 0 0 0-14 60 506 506 0 0 0 2 77c1 25 4 40 9 49 3 7 8 14 9 13l-2-5Zm29-10-5-11a305 305 0 0 1-16-95v-14l-2-5-2-4v6a324 324 0 0 0 0 58v-5c0-3 1-5 2-5 1-2 2-2 3 7a295 295 0 0 0 21 73c3 7 2 3-1-5Z"></path>
  <path fill="#FF6C44" d="M871 610a1045 1045 0 0 1-11-29c-5-12-11-42-12-62v-14l-4-3-5-2a810 810 0 0 0 6 44c2 23 6 34 17 58 4 8 4 9 7 9l2-1Zm13-26-5-29a563 563 0 0 1-9-54l2 1c0-2-2-9-3-8l-4-1c-2-1-3-3-4-7l-4-8-3-6-4-9c-1 1 2 16 4 16l2 7c1 6 2 6 4 6s2 1 4 13a632 632 0 0 0 18 93v5l1-4 1-15Zm-11 7-2-14a1424 1424 0 0 1-16-76v-2l-1 2c-2 5 1 33 6 56a422 422 0 0 0 13 34Zm-37-12c-2-12-4-19-4-15 0 3 5 28 6 27l-2-12Zm60-23c-2-14-4-22-7-23-2 0-2 0 0 6l5 40c0 9 2 8 2-2v-21Zm2-46c1-2 1-3-2-7-4-7-3-15 2-25l3-9c0-2-5-10-10-14-3-2-6-5-6-7-1-3-3-4-9-7-4-2-9-5-10-7-3-2-4-2-5-1h-4c-2 0-3 1-3 2l12 23c4 7 12 23 15 33l3 4c2 0 5 4 11 14 2 3 2 3 3 1Zm232-18 3-9c4-11 4-30 0-44-3-15-10-32-19-50-7-16-8-16-16-24-8-7-18-16-25-20l-3-2 2 3 15 30 7 18a459 459 0 0 1 24 62c-6-31-13-53-21-68-5-10-6-15-3-16l4 6c10 17 14 28 22 60l6 20v18l1 17 3-1Zm-25-9-6-39c-3-11-3-14-3-6v14l2 14 1 12-1 11c-1 2 0 3 5 3h2v-9Z"></path>
  <path d="M1115 488c1-3-1-13-2-14s-1 3-1 9c1 10 2 12 3 5Zm-29-3v-20l-1 7a242 242 0 0 1-1 16l2-3Z"></path>
  <path fill="#FF6C44" d="m1079 456-2-10v1l1 17 1 14v-22Zm76-2c0-11-1-18-7-30l-16-25c-3-3-3-4 3 11 6 17 13 44 14 59l1 9 2-8c1-4 3-10 3-16Zm-86-6a642 642 0 0 0-14-69c-3-11-5-14-9-18a358 358 0 0 1-22-25c-10-8-15-16-19-31-1-6-2-6-19-22a437 437 0 0 1-27-27l5 12a645 645 0 0 1 14 27l7 12c11 20 23 36 28 36h2l-2-3-8-11-5-9 12 13a287 287 0 0 0 29 33c8 10 16 33 22 63a733 733 0 0 1 6 33v-14Z"></path>
  <path fill="#FF6C44" d="m1073 388-4-15c-2-11-10-23-19-31l-12-11-29-26c0 3 12 18 26 32l5 6 8 9c7 8 15 19 17 24 0 3 10 21 11 21l-3-9Z"></path>
  <path d="m894 232 2-7c0-2 2-4 6-7l2-1-2-4-18-21-3 3c-3 4-2 8 2 15 5 8 7 15 8 21l1 5 2-4Zm104 379c-4-3-8-16-6-20 1-3 7-7 11-7l6 3 5 8 1 5c1 2-2 8-4 10s-4 3-7 3c-3 1-4 0-6-2Zm-22-25-3-5-5-8c-5-6-5-9-4-23l1-10-2-4c-4-5-4-7 1-14 7-10 14-34 17-54 0-7 3-11 7-11s5 3 6 7l1 6 3 10 2 8 1 3 2 3 3 5 2 7c3 8 0 17-6 21-3 1-4 2-4 5l-1 5c-2 3 0 4 2 3 1-1 3-2 8-1 7 0 8 0 10 3 3 3 4 7 3 10s-8 8-13 8l-4 3-4 7-6 8c-4 8-12 12-17 8Z"></path>
  <path d="m1025 530-1-3-2 2c-2 3-5 3-7 1-2-3-2-6 0-8 3-2 7-1 8 2 1 2 2 2 3 1v-8c2-1 5 0 5 4l2 4c2 4 0 7-4 7-2 0-3 0-4-2Zm-11-25v-6l1-3c0-3 2-5 5-4l1 3v4c2 1 1 5 0 6l-3 1-4-1Zm-85-136v-3c1-3 4-2 6 0l-1 3c-3 2-3 2-5 0Zm-42-31c-2-3-2-6 1-7 5-1 8 4 4 7-3 2-3 2-5 0Zm-1-14c-2-4 2-8 6-6l1 4c0 2-1 3-3 3-2 1-3 0-4-1Zm-20-9c-11-7-4-23 10-23 3 0 4 0 6-2l1-4 2-3c3-3 8-1 8 3l1 3c2 1 1 2 0 3-2 0-6 7-6 8l2 3c3 3 1 7-4 6-1-1-3 0-6 3-3 4-5 4-8 4l-6-1Zm33-13c-2-2-2-3 0-6 1-3 6-3 8-1s1 6-1 8c-3 2-4 2-7-1Zm11-10c-2-3 0-7 3-7s5 2 5 5c0 5-6 6-8 2Zm4-10-1-4c0-2 0-3-3-3l-3-1c-1-2 1-5 3-5 1 0-1-6-4-11-2-2-2-2 0-7l3-6c3-1 7 1 8 5v6l-3 3 1 3c4 3 4 7 1 8-2 1-3 4 0 4s4 3 4 6c-1 2-2 2-3 2h-3Zm-165-48-1-3c0-2 1-3 2-3 2 0 5 3 4 5s-4 2-5 1Zm-5-8-1-4c1-1 1-2 3-2 3 0 4 3 2 5-1 2-2 2-4 1Zm40-6c-2-3 0-8 5-8 1 0 3 1 3 3 3 4-4 9-8 5Zm-47-6-2-6c0-5 1-7 6-7 7 0 11 8 6 12-2 2-7 3-10 1Zm80-1-3-1-4-3c-3-4-3-7 1-7 2-1 3 0 2 3l2 2c2 1 2 1 2-1l2-5c2-4 2-4-2-6-6-3-8-6-4-5l4-1 5-2c2 0 7 5 7 8l2 2c3 1 5 4 5 6l1 3c2 3 0 5-7 5l-8 2c-2 2-4 2-5 0Zm-25-2c-2-2-1-5 2-5s5 2 4 5c-1 2-4 2-6 0Zm-7-18c-1-3 0-5 3-4 4 0 4 5-1 5l-2-1Z"></path>
  <g fill="#FF6C44">
    <path d="M707 96c-1-1-12 4-19 9-11 7-16 13-20 20-3 7-4 10-2 18l3 11 3 12c12 33 14 37 28 56l11 15 8 9 9 9a153 153 0 0 1 29 48c9 20 22 42 30 48 2 2 6 8 6 10l2 4c3 3 3 6 0 7-1 0-2 2-3 12l-2 18c-4 13-5 20-4 20l-2 11-3 45-2 42c-2 21 7 59 18 72 2 2 2 1-3-12-10-28-11-32-11-42l3-71c2-17 14-62 17-65 2-2 2-2 2 1s0 6-5 27c-4 15-6 35-6 67 0 26 0 30 2 39l3 21c2 15 3 7 1-14a310 310 0 0 1 9-101c9-26 11-31 14-31l2-1c1-3 4-2 5 1 0 2 0 12-2 15h2c3-1 7 0 8 3 2 2 2 2 3 1s1-3-2-9l-21-31c-3-4-4-7-2-8h2l2 1c2-1 3 0 5 2 6 7 12 18 17 29 7 14 7 14 12 10 5-5 4-9-1-14-4-4-5-8-2-13 1-3 2-3-5-10-6-7-3-14 6-14s14 5 18 16c2 5 3 6 8 8 8 3 11 7 12 15s4 11 5 4c3-23 14-34 30-31 6 1 6 1 14-2 7-3 9-3 12-2 6 2 10 8 12 14v12l-2 9c0 2 0 3 3 4 6 1 16 13 19 21 2 5 2 6 1 8-2 3-7 5-13 4-4 0-4 0-5 5-2 6-2 6-1 11l5 16c0 2 0 3-2 5l-19 13c-8 3-12 6-14 12l-8 10c-4 3-6 6-9 14-5 9-5 9-3 12 1 1 2 2 3 1l6-1c3 0 4 1 7 3 2 3 2 3 2 13-1 8-1 9 1 10 3 2 4 5 5 15l4 16c2 6 2 7 1 15-1 2-1 2 1 2l2 2c1 2 1 5-3 9-2 3-2 4-1 6h4c4-2 5-4 7-9 1-4 1-4 4-4l4-1c2-1 5-8 5-11l2-5c2-3 2-3 7-3h5l2 1 5 3c4 4 4 9 0 13l-4 7c-1 2-2 3-5 3l-4-2-3-5-1-2-2 2-2 2 4 6c3 4 4 5 8 6 4 0 7 3 7 8 0 3 0 3 4 3 10 0 12 0 13 2 2 2 3 1 3-3 0-6 2-10 7-14 5-5 7-11 5-17-1-3-1-4 1-10l3-9 2-5 2-2 4-10 11-28c8-23 10-32 7-40l-1-4s-3-4-6-1c-1 1-8 2-11 0l-4-1c-3-1-3-2-4-4 0-3 0-4 3-5s3-3 1-3c-3 0-5-6-2-7h2c1 0 2-2 2-6l4-11c5-7 6-12 6-18 0-5-2-6-3-2-2 5-7 2-7-5l-1-3-1-4c0-3 0-4-2-4l-4-3-2-4-4 3c-4 3-6 3-12 0l-10-4c-2 0-6-3-8-5-5-4-5-5-5-9 0-2 0-5 2-7 2-3 1-6-3-6-3 0-6-2-9-7-2-5-2-10 0-13 3-2 3-2 6-1 5 3 7 6 8 9l1 4c2 0 7 5 7 6l3 1c2 0 3-1 3-4s-1-5-5-12c-7-10-9-14-9-19 1-3 0-3-2-4-6-2-9-6-10-15l-4-9c-6-6-5-12 1-14 3-1 9 2 12 5 1 2 2 5 2 11 0 7 0 8 3 10l4 3 4-8 2-5c1-1 0-2-4-7-10-12-18-23-30-45-5-9-8-13-23-31l-12-15-3-5-8 1-12 2-4 1 2 3v7c-2 3-2 3-5 3s-4 0-5 5c-2 8-10 16-17 16l-9 6-9 7c-3 1-3 2-2 8 0 6 0 7-4 16l-5 9 2 3c6 7 6 13 2 20-7 10-23 10-26 0-1-5-5-5-11-1-9 6-13 6-21-1-3-2-5-5-7-9-2-5-2-8-2-27 1-9 1-9-2-11-11-7-16-17-16-30 0-7-1-7-5-11l-4-7c0-2 5-6 11-8 4-1 5-2 6-5 1-2 2-3 4-3l3-2c2-3 3-4 7-4 5 0 11 7 11 13 0 3 1 3 5-1 6-6 14-8 19-3 3 3 3 3 4 1l2-6c2-5 4-7 10-7 8 0 16 5 18 12l1 8c-1 3-1 4 1 5l2 1v-26a112 112 0 0 1 1-42l2-11c0-3 0-4-12-13l-26-17-12-3c-20-4-34-9-41-15-5-4-6-4-6-2 0 3-2 4-6 2-3-1-4-1-7 1-2 2-4 3-12 3-10 0-23 3-26 7l-4 6c-5 8-15 9-22 3-2-3-3-4-3-7s0-4-2-4c-3-1-7-7-7-10 0-4 2-7 6-9l5-4c2-4 5-6 8-5s6 4 6 6l2 3c1 2 1 1 1-3-1-8-1-10 1-12l2-3Zm252 161 5 12a635 635 0 0 1 13 26l8 12c11 20 23 37 27 37h3l-2-3-8-12-6-9c1-1 6 5 12 13a289 289 0 0 0 30 33c8 11 16 33 22 63a741 741 0 0 1 6 33v-14a642 642 0 0 0-14-69c-4-10-5-13-10-18a356 356 0 0 1-21-24c-10-9-15-17-19-32-2-6-2-6-19-22a438 438 0 0 1-27-26Z"></path>
    <path d="M1009 305c0 4 12 19 26 32l5 6c0 1 3 5 8 9 7 8 15 19 16 25l11 21-2-9-4-16c-3-11-10-22-19-30l-13-12c-7-8-28-27-28-26Zm-889 35a339 339 0 0 0-27 106 245 245 0 0 0 10 98c-2-1-5-6-8-16l-3-10v33a340 340 0 0 0 40 142l-4-12a263 263 0 0 1-11-38l-4-14-3-14-12-40v-13l4 16a307 307 0 0 0 10 35l3 11 6 18c3 10 3 11 5 10l4 1c1 2 0 5-2 5s-1 3 2 14c5 12 11 26 20 42a837 837 0 0 1 27 46l12 20c9 16 22 35 31 45l25 31c11 14 28 30 51 46l23 17a163 163 0 0 0 43 27c18 10 20 11 23 11 8 0 19 5 19 7 0 3 19 8 37 9 21 1 21 1 7-3a388 388 0 0 1-84-33l-10-9c0-2 3-1 6 1l3 3 5 2 8 4 12 5 18 7a953 953 0 0 1 46 11 4137 4137 0 0 1 37 5 1511 1511 0 0 0-33-9l-57-14a725 725 0 0 1-91-47l-5-2c-3-3-3-1 0 2s3 3 1 3c-2 1-3 1-16-10-9-7-19-18-19-20 0-3 2-2 8 4l17 14c1-1 0-2-1-4l-3-6c-1-4-1-5 1-3h2c1-1-4-3-8-3l-7-3-9-6c-10-6-22-19-37-41-2-5-9-12-10-14-5-5-13-17-16-24l-10-16a589 589 0 0 1-33-60c-4-5-10-18-14-29l-10-26c-17-37-20-48-28-84-4-23-4-30-4-85-1-55-2-56 2-92a763 763 0 0 1 11-51Zm949 3 3 4c4 6 10 20 14 30a690 690 0 0 0 7 17 457 457 0 0 1 25 63c-6-32-13-54-21-69-5-9-6-14-4-15 1-1 3 1 5 5 10 18 14 28 22 60l5 20v18c0 16 1 18 2 18l3-1 3-10c3-11 3-30 0-43-4-16-10-33-19-50-8-16-8-17-16-25l-26-20-3-2Zm60 55 5 13c7 17 13 43 15 59v8l3-7 3-17c0-11-2-18-7-29l-17-26-2-1Zm-308 23a205 205 0 0 0-13 60 505 505 0 0 0 1 77c2 25 5 40 9 50l9 13c1-1 0-3-1-5l-4-13-4-13c-1-4-3-31-2-52v-33a486 486 0 0 1 5-84Zm42 9h-2l-5 1c-2 0-3 1-3 2l13 24c5 8 12 25 16 35l3 5c2 0 5 4 11 15 2 3 3 3 4 1s1-4-2-8c-4-7-4-15 2-26l3-9c0-3-6-12-11-16l-6-7c-1-3-3-5-9-8a74 74 0 0 1-14-9Zm233 4v18l2 14 1 12-1 11c-1 2 0 3 5 3h2v-9c-1-13-4-27-7-39l-2-10Zm-20 12v2l2 17v13l1-7v-14l-2-10-1-1Zm-227 15c-1 1 3 17 5 17l2 7c1 6 2 7 4 7s2 1 4 12c3 26 10 58 13 69 2 4 2 9 6 28v5l1-4 1-16-6-30a581 581 0 0 1-9-55h2c1-1-1-8-3-8l-4-1c-2-1-3-3-4-7l-4-8-3-6-5-10Zm237 4-1 7a253 253 0 0 1-1 17l1-4 1-12v-8Zm26 9v9c0 10 2 12 3 6 1-3-1-13-3-15Zm-282 3-1 6a324 324 0 0 0 1 58v-5l1-6c2-2 2-1 4 8a295 295 0 0 0 21 73 164 164 0 0 0-6-17 305 305 0 0 1-16-94v-15l-3-5-1-3Zm25 22-1 3c-3 4 1 32 6 55a422 422 0 0 0 12 34l-2-13a1436 1436 0 0 1-15-76v-3Z"></path>
    <path d="M839 501a811 811 0 0 0 5 44c3 22 6 34 17 57 4 9 5 10 7 10 3 0 3 0 2-2a1184 1184 0 0 1-11-29c-5-12-10-41-11-61v-15l-5-2-4-2Zm48 28a336 336 0 0 1 7 51c0 10 2 9 2-2v-23c-2-16-5-25-8-26h-1Zm-65 30c-2 1-1 12 2 23l4 17c2 9 8 24 10 24v-2a284 284 0 0 1-16-62Zm10 4v1l6 28-2-13-4-16Zm205 54-2 3-5 9-4 6-3 9a157 157 0 0 0-8 29 1006 1006 0 0 1-2 34l5-14 14-53c1-4 4-7 5-5 1 1 0 10-1 15 0 2 0 2 2 2 3-1 4-1 5-9 2-13 2-14 1-16l-4-6-3-4Zm-126 30-12 10a277 277 0 0 1-33 26l-4 4c-6 2-12 9-17 20-5 8-10 25-10 30s1 3 2-2c1-8 4-13 11-23 10-12 22-25 28-29 5-3 35-34 35-36Zm41 4c-2 0-2 2-3 7l-2 10c-2 3-1 10 0 10l2 2-6 18-9 35c-3 14-12 41-17 53a233 233 0 0 1-27 42l6-5c6-5 9-6 10-3 2 4-3 11-12 21-5 4-7 8-8 10-1 6 0 5 6-2 3-3 6-5 8-5l5-4 16-21c5-8 11-14 13-14 3 1 3 2 1 5l-23 30a381 381 0 0 1-33 43l15-9c18-11 24-15 32-22 9-8 22-24 31-37 7-10 9-14 20-27 7-8 16-26 23-42 3-9 7-29 7-37l-1-6-1 6c-4 17-11 28-15 21-1-1-1-1-3 3s-4 6-6 3c-1-1-1-2 1-3 5-6 8-16 9-34l1-12c1-1 0-2-2-3l-5-5-2-4-4 2c-5 3-7 3-11 2-3-2-5-6-3-12l1-5-6-6c-4-4-6-6-8-5Z"></path>
    <path d="M906 666c-2 0-6 5-15 12-28 27-30 30-35 38-6 12-10 18-12 17s-3 10-1 18l6 14-1-10c-2-11-1-16 4-25 6-13 22-33 39-49a144 144 0 0 0 15-15Zm128 5-5 14 1 22a7241 7241 0 0 1 5-22 438 438 0 0 1-12 122l-4 10v7l2 2 4-10a524 524 0 0 0 13-113c-1-9 0-16 2-16 3 1 7 11 8 23 2 28 0 85-5 104-2 6-1 6 3-1 4-9 5-19 7-54a437 437 0 0 1 3-28c-2-25-3-30-8-39l-4-8c0-3-1-5-5-9l-5-4Zm-123 3-5 4c-3 3-6 5-5 6v6l5-7 5-9Zm14 6-6 7-9 14-9 13-11 19c-17 26-22 38-17 44 1 1 2 1 5-1l4-2-2-2-1-4-2-2c-2 0-2-1 0-5 2-1 3-2 4-1 4 0 7-2 7-5 0-2 0-3 2-4l5-6c2-6 6-9 12-8 3 1 3 1 2-1l-1-4c0-1 0-3 3-5 2-2 3-3 2-5l1-5c0-2 0-3-2-4s-3-4 0-7l2-4 5-10 6-12Zm-84 18h-1c-6 3-11 7-13 11s-2 12-1 16c1 3 1 3 3-3a79 79 0 0 1 12-24Zm47 2-7 10 2 1 2 1c1 1 3 1 3-1v-1c-2 0-2-3-1-6l1-4Z"></path>
    <path d="m872 713-15 21-3 9c0 2 0 2 1-1l5-10a259 259 0 0 1 12-19Zm147 6-4 10a488 488 0 0 1-16 45l-2 10v9l1 4 2-4c1-2 5-11 7-20l9-27c3-12 4-28 3-27Zm41 2 1 10c2 12 2 38 0 49a613 613 0 0 1-9 39l4-6c9-17 14-47 12-64-1-8-7-29-8-28Zm-191 10-4 7-6 8c-1 2-2 3-2 11s1 14 2 14l2-5a204 204 0 0 1 10-24l-3 1c-3 0-4-2-1-4l2-5v-3Zm152 32c-1-1-1 1-2 4l-8 24-7 20c0 2 3 7 5 7l3-8c4-13 10-44 9-47Zm14 44c-1-1-8 19-8 22 0 2 2 1 4-1l4-21Zm-158 53-4 3a375 375 0 0 1-112 60 369 369 0 0 1-46 20c-8 2-29 12-32 15l-1 2 15-5 63-24a798 798 0 0 0 118-67v-3l-1-1Zm0 11-9 6a424 424 0 0 1-34 24 168 168 0 0 0 43-30Zm-554 22 3 3c16 10 25 15 40 19l24 8a306 306 0 0 0 63 17 1094 1094 0 0 0 157 22c2 1 2 1 12-1 10-3 11-5 4-5l-6-1c-1-2-1-3 5-4a213 213 0 0 0 31-6l14-4a1438 1438 0 0 1 16-4l6-2-17 4-22 5c-13 2-39 4-69 3-34 0-44 0-60-3l-39-6a576 576 0 0 1-125-37c-7 3-22-1-33-7l-4-1Zm331 65-6 1c-4 0-10 1-14 3-7 2-7 2-4 2l6 1h12c2 0 3-2 4-4l2-3Zm-143 2 34 7h44l5-1h-4l-23-1a259 259 0 0 1-56-5Zm180 3-5 1-12 3c-8 2-12 4-6 3l8-1c3 0 16-5 15-6Zm-178 9c1 2 23 5 44 5h20l-13-1-51-4Z"></path>
  </g>
</svg><style>@media (prefers-color-scheme: light) { :root { filter: none; } }
</style></svg>