<?xml version="1.0" standalone="no"?>
<!DOCTYPE svg PUBLIC "-//W3C//DTD SVG 20010904//EN"
 "http://www.w3.org/TR/2001/REC-SVG-20010904/DTD/svg10.dtd">
<svg version="1.0" xmlns="http://www.w3.org/2000/svg"
 width="1091.000000pt" height="1091.000000pt" viewBox="0 0 1091.000000 1091.000000"
 preserveAspectRatio="xMidYMid meet">
<metadata>
Created by potrace 1.14, written by Peter Selinger 2001-2017
</metadata>
<g transform="translate(0.000000,1091.000000) scale(0.100000,-0.100000)"
fill="#000000" stroke="none">
<path d="M6320 10063 c-155 -20 -454 -234 -526 -375 -13 -27 -22 -48 -19 -48
2 0 0 -12 -6 -27 -12 -32 -15 -41 -34 -142 -20 -98 -21 -211 -2 -261 3 -8 22
-58 42 -112 19 -53 44 -115 54 -139 11 -24 17 -47 15 -51 -3 -4 0 -8 5 -8 6 0
11 -6 11 -13 0 -19 80 -180 94 -189 6 -4 7 -8 3 -8 -4 0 15 -28 43 -62 27 -35
50 -68 50 -75 0 -6 3 -13 8 -15 4 -1 18 -24 31 -50 13 -27 28 -48 33 -48 4 0
8 -6 8 -12 0 -7 15 -29 33 -49 17 -21 57 -69 87 -109 30 -40 60 -77 65 -84 6
-6 35 -45 65 -86 30 -41 57 -77 60 -80 3 -3 25 -34 50 -70 24 -36 48 -66 52
-68 4 -2 8 -10 8 -18 0 -8 5 -14 10 -14 6 0 10 -6 10 -13 0 -7 11 -24 23 -38
13 -13 26 -29 28 -34 2 -6 30 -49 62 -97 31 -47 57 -91 57 -97 0 -6 4 -11 9
-11 5 0 16 -12 23 -27 21 -41 42 -77 49 -83 3 -3 17 -25 32 -50 14 -25 41 -62
59 -82 53 -59 67 -80 95 -135 26 -55 31 -84 20 -143 -8 -44 -47 -248 -53 -275
-3 -11 -6 -32 -9 -47 -2 -15 -6 -31 -9 -36 -3 -5 -8 -24 -11 -43 -3 -19 -8
-45 -10 -59 -18 -88 -21 -103 -35 -195 -6 -38 -13 -92 -16 -120 -3 -27 -7 -77
-11 -110 -3 -33 -6 -88 -7 -122 0 -35 -3 -63 -6 -63 -6 0 -4 -475 3 -555 3
-33 10 -81 16 -108 6 -26 14 -64 17 -84 3 -20 10 -47 15 -60 5 -13 7 -23 4
-23 -2 0 2 -18 10 -40 8 -22 14 -41 14 -43 -2 -20 46 -124 87 -187 46 -71 83
-111 164 -180 29 -25 59 -51 66 -57 7 -7 17 -13 23 -13 6 0 11 -3 11 -7 0 -5
23 -21 50 -36 28 -16 50 -32 50 -38 0 -5 5 -9 11 -9 6 0 36 -19 67 -43 84 -63
125 -78 217 -82 69 -3 89 1 142 23 65 28 113 60 113 76 0 15 50 76 62 76 6 0
52 19 102 43 69 33 101 55 134 93 23 27 43 44 43 39 1 -6 3 -46 4 -90 2 -44 5
-106 8 -137 3 -32 1 -58 -3 -58 -5 0 -15 -6 -22 -13 -7 -7 -31 -24 -53 -37
-22 -13 -42 -26 -45 -29 -14 -16 -293 -157 -495 -251 -106 -49 -185 -99 -232
-145 -24 -24 -43 -45 -43 -48 0 -3 -13 -29 -30 -57 -30 -51 -41 -85 -42 -130
-2 -102 53 -300 84 -300 4 0 8 -5 8 -10 0 -6 16 -36 35 -66 19 -30 35 -57 35
-60 0 -3 19 -38 42 -77 37 -65 166 -207 188 -207 4 0 47 -22 95 -50 47 -27 98
-52 112 -54 33 -6 57 -29 78 -72 16 -34 15 -37 -12 -94 -15 -33 -32 -60 -36
-60 -5 0 -5 -4 -2 -10 3 -5 2 -10 -4 -10 -6 0 -18 -14 -26 -30 -16 -31 -36
-58 -67 -92 -10 -10 -18 -22 -18 -28 0 -5 -3 -10 -7 -10 -5 0 -50 -41 -102
-90 -89 -86 -319 -251 -357 -256 -9 -2 -20 -7 -23 -13 -6 -10 -189 -98 -221
-106 -3 0 -36 -11 -75 -25 -38 -13 -71 -22 -73 -21 -1 1 -16 -6 -32 -14 -17
-9 -30 -13 -30 -10 0 3 -10 0 -22 -7 -13 -6 -27 -13 -33 -14 -5 -1 -62 -19
-125 -40 -63 -21 -117 -38 -120 -39 -10 -1 -126 -47 -156 -61 -17 -9 -37 -17
-45 -18 -8 -2 -27 -8 -44 -15 -16 -7 -103 -41 -193 -77 -163 -64 -195 -74
-327 -99 -16 -3 -41 -8 -55 -10 -14 -3 -42 -8 -64 -11 -21 -3 -48 -8 -60 -10
-11 -3 -39 -7 -61 -10 -22 -3 -46 -7 -53 -10 -23 -7 -114 -18 -159 -18 -24 -1
-43 -4 -43 -7 0 -8 -542 -4 -641 5 -118 9 -268 26 -361 41 -18 3 -55 7 -83 10
-27 2 -63 7 -80 10 -16 4 -48 8 -70 10 -22 2 -53 6 -70 8 -16 3 -55 8 -85 12
-30 4 -57 8 -60 10 -3 2 -23 6 -45 9 -32 5 -130 27 -275 61 -97 22 -314 109
-350 140 -17 14 -157 88 -443 233 -108 56 -210 110 -226 121 -16 12 -33 21
-37 21 -10 0 -138 83 -142 92 -2 5 -10 8 -18 8 -8 0 -14 5 -14 10 0 6 -6 10
-14 10 -8 0 -16 3 -18 8 -1 4 -27 27 -57 52 -99 82 -530 503 -571 557 -18 24
-95 115 -130 154 -28 30 -34 38 -103 124 -27 33 -55 68 -63 77 -7 10 -11 18
-8 18 3 0 -2 7 -10 16 -21 21 -116 176 -115 188 0 5 -4 12 -9 15 -9 5 -122
233 -122 246 0 5 -77 191 -100 240 -5 11 -23 54 -40 95 -39 93 -44 106 -64
153 -9 20 -23 54 -32 75 -9 20 -20 45 -25 54 -5 10 -9 25 -9 33 0 8 -4 15 -8
15 -4 0 -8 10 -9 22 -1 11 -6 24 -11 27 -6 3 -15 26 -22 51 -6 25 -18 65 -27
90 -8 25 -16 53 -18 63 -2 10 -16 57 -32 105 -15 48 -28 89 -28 92 -5 20 -27
98 -32 110 -3 8 -7 21 -9 27 -1 7 -11 41 -22 75 -11 35 -25 99 -32 143 -7 44
-14 89 -16 100 -3 11 -9 40 -14 65 -5 25 -12 56 -15 70 -4 14 -7 32 -7 40 0 8
-4 35 -9 60 -8 41 -11 65 -25 155 -5 31 -14 120 -19 190 -2 22 -4 40 -5 40 -5
0 -11 188 -12 355 -1 175 6 384 17 465 2 17 6 57 10 90 3 33 8 71 10 85 3 14
7 45 10 70 3 25 10 68 15 95 19 98 21 110 26 140 11 60 53 231 64 260 7 17 14
39 16 50 10 42 13 50 14 50 1 0 3 7 5 15 2 8 13 43 24 78 35 109 53 181 55
222 1 19 -5 26 -21 28 -16 2 -45 -20 -112 -86 -50 -50 -91 -97 -91 -105 0 -9
-4 -17 -8 -19 -5 -1 -20 -24 -34 -49 -46 -82 -53 -94 -59 -99 -3 -3 -30 -54
-60 -115 -30 -60 -58 -113 -64 -117 -5 -4 -7 -8 -4 -8 4 0 -11 -41 -33 -91
-46 -107 -125 -341 -134 -396 -8 -48 -12 -68 -14 -68 -1 0 -3 -11 -5 -25 -1
-14 -15 -88 -30 -165 -14 -77 -28 -151 -30 -165 -7 -48 -16 -122 -21 -159 -5
-47 -13 -160 -19 -296 -3 -60 -8 -166 -12 -235 -9 -160 -9 -610 0 -675 20
-138 21 -143 46 -265 11 -52 24 -110 30 -128 5 -18 10 -35 10 -37 2 -16 13
-65 22 -93 6 -19 13 -44 15 -55 5 -32 20 -94 37 -157 9 -30 25 -91 37 -135 12
-44 24 -87 27 -95 3 -8 7 -22 9 -30 5 -22 61 -194 90 -275 74 -203 163 -389
285 -594 38 -63 69 -118 69 -123 0 -4 5 -8 10 -8 6 0 10 -6 10 -14 0 -8 4 -16
8 -18 5 -1 24 -29 43 -62 37 -63 39 -66 114 -177 27 -41 54 -82 60 -91 17 -28
97 -141 119 -170 12 -14 31 -39 43 -55 44 -58 59 -75 84 -103 14 -15 36 -42
50 -60 13 -17 33 -41 44 -53 11 -13 36 -42 55 -66 81 -99 181 -202 243 -250
31 -24 57 -47 57 -52 0 -5 3 -8 8 -7 4 1 36 -17 72 -40 88 -57 99 -65 120 -82
10 -8 31 -24 46 -35 15 -11 53 -40 85 -65 75 -58 194 -140 203 -140 9 0 265
-158 276 -170 3 -3 16 -11 30 -18 14 -7 39 -20 55 -30 76 -47 215 -120 375
-198 96 -48 196 -97 222 -110 27 -13 56 -24 66 -24 10 0 22 -4 27 -9 11 -9
104 -39 145 -45 14 -3 25 -5 25 -6 0 -2 37 -9 85 -14 25 -3 56 -8 70 -10 49
-9 125 -19 155 -21 28 -2 147 -20 205 -32 25 -4 44 -7 127 -17 24 -2 51 -7 60
-10 17 -5 72 -13 153 -21 19 -2 64 -8 100 -12 113 -14 878 -5 1015 12 22 3 58
7 80 9 23 3 54 7 70 10 17 3 70 8 120 11 49 3 110 11 135 16 50 12 79 16 160
24 30 3 62 7 70 10 8 2 35 7 60 10 25 3 59 8 75 11 17 4 41 8 55 9 14 2 25 4
25 5 0 1 11 3 25 5 14 2 34 6 45 8 11 3 52 13 90 22 98 23 96 23 135 35 19 6
46 13 59 16 25 5 188 59 231 77 14 5 31 11 38 13 7 1 33 12 58 23 24 12 46 21
49 21 7 0 146 64 218 100 32 17 65 30 73 30 8 0 14 4 14 8 0 4 16 14 35 21 19
7 35 17 35 22 0 5 7 9 15 9 33 0 371 210 635 395 52 37 102 69 110 73 8 3 17
8 20 12 8 9 97 63 165 100 72 39 218 135 260 169 48 41 197 192 240 245 22 27
51 63 66 80 14 17 43 56 64 86 22 30 42 57 45 60 3 3 11 17 19 32 8 15 22 37
33 47 10 11 18 24 18 29 0 4 8 17 18 28 9 10 22 30 28 44 l11 25 15 -35 c27
-62 62 -135 67 -140 3 -3 14 -21 25 -40 37 -69 84 -136 117 -165 49 -43 129
-83 164 -80 77 5 355 136 355 166 0 5 5 9 11 9 30 0 145 152 155 205 1 6 9 37
18 70 9 33 19 76 22 95 3 19 7 41 9 48 25 72 24 378 0 502 -3 14 -7 34 -9 45
-2 11 -11 47 -20 81 -8 33 -17 69 -19 80 -1 10 -6 24 -10 31 -4 7 -9 27 -11
45 -10 86 -86 376 -106 403 -4 6 -15 39 -23 75 -15 61 -16 120 -2 180 3 14 10
45 15 70 16 79 18 84 31 130 7 25 12 48 11 52 -1 4 3 19 8 34 6 15 13 43 16
62 3 19 10 46 15 59 4 12 11 42 14 65 3 24 7 50 9 58 10 52 16 91 22 135 3 28
8 64 10 80 4 30 11 129 19 280 3 44 7 91 11 105 3 14 8 37 11 53 3 15 8 27 12
27 4 0 13 15 19 34 11 31 59 66 89 66 6 0 24 7 41 15 44 22 62 25 199 29 67 2
136 7 155 11 52 10 128 38 128 47 0 4 6 8 14 8 23 0 180 162 203 210 49 103
54 227 18 455 -2 17 -6 39 -9 50 -22 97 -29 125 -47 177 -20 59 -104 198 -120
198 -5 0 -9 5 -9 11 0 9 -25 44 -85 116 -5 7 -15 18 -20 25 -151 193 -498 536
-624 616 -14 9 -31 21 -37 27 -6 5 -37 33 -69 60 -32 28 -67 60 -79 71 -25 26
-99 89 -145 124 -18 14 -38 30 -45 36 -25 23 -195 134 -205 134 -6 0 -11 4
-11 8 0 8 -64 42 -77 41 -3 0 -10 6 -15 15 -5 9 -13 16 -19 16 -10 0 -151 90
-160 103 -3 5 -8 8 -10 6 -2 -1 -22 9 -44 23 -22 14 -62 37 -90 53 -66 36
-145 89 -172 114 -12 12 -27 21 -33 21 -5 0 -10 4 -10 8 0 5 -28 46 -62 92
-35 46 -72 95 -83 110 -11 15 -45 55 -75 90 -117 134 -148 166 -371 385 -144
141 -208 197 -249 217 -159 79 -364 162 -439 180 -47 11 -111 27 -141 36 -30
9 -61 17 -67 19 -24 6 -38 10 -53 15 -8 4 -48 16 -89 29 -79 24 -150 73 -198
135 -58 77 -134 143 -198 173 -36 17 -74 31 -86 31 -11 0 -30 5 -42 12 -20 11
-216 19 -277 11z"/>
</g>
</svg>
